<svg width="94" height="22" viewBox="0 0 94 22" fill="none" xmlns="http://www.w3.org/2000/svg">
<path d="M9.98657 3.0939C12.5763 3.0939 12.883 3.10355 13.9061 3.14998C14.5212 3.15747 15.1305 3.26988 15.7074 3.48232C16.1258 3.6429 16.5058 3.8889 16.8228 4.20447C17.1399 4.52003 17.3871 4.89819 17.5485 5.31458C17.7619 5.88876 17.8749 6.49512 17.8824 7.1073C17.9286 8.12548 17.9387 8.4307 17.9387 11.0081C17.9387 13.5855 17.929 13.8907 17.8824 14.9089C17.8749 15.5211 17.7619 16.1274 17.5485 16.7016C17.3871 17.118 17.1399 17.4961 16.8228 17.8117C16.5058 18.1273 16.1258 18.3733 15.7074 18.5339C15.1305 18.7463 14.5212 18.8587 13.9061 18.8662C12.8835 18.9122 12.5768 18.9223 9.98657 18.9223C7.39635 18.9223 7.08966 18.9126 6.06706 18.8662C5.45195 18.8587 4.84268 18.7463 4.26574 18.5339C3.84735 18.3733 3.46738 18.1273 3.1503 17.8117C2.83321 17.4961 2.58604 17.118 2.42469 16.7016C2.21122 16.1274 2.09827 15.5211 2.09075 14.9089C2.04456 13.8907 2.0344 13.5855 2.0344 11.0081C2.0344 8.4307 2.0441 8.12548 2.09075 7.1073C2.09827 6.49512 2.21122 5.88876 2.42469 5.31458C2.58604 4.89819 2.83321 4.52003 3.1503 4.20447C3.46738 3.8889 3.84735 3.6429 4.26574 3.48232C4.84268 3.26988 5.45195 3.15747 6.06706 3.14998C7.09013 3.10401 7.39681 3.0939 9.98657 3.0939ZM9.98657 1.35449C7.35386 1.35449 7.02223 1.36552 5.98762 1.41241C5.18259 1.42835 4.3861 1.58004 3.63204 1.86105C2.98517 2.10361 2.39928 2.48371 1.91523 2.97484C1.4213 3.45675 1.03905 4.04018 0.795176 4.68436C0.512821 5.43482 0.360395 6.22751 0.344382 7.0287C0.298195 8.05745 0.287109 8.38749 0.287109 11.0076C0.287109 13.6278 0.298194 13.9578 0.345306 14.9875C0.361318 15.7887 0.513744 16.5813 0.7961 17.3318C1.0397 17.9759 1.42163 18.5593 1.91523 19.0413C2.39955 19.5326 2.98577 19.9127 3.63296 20.1551C4.38702 20.4361 5.18351 20.5878 5.98854 20.6038C7.02315 20.6497 7.3534 20.6617 9.98749 20.6617C12.6216 20.6617 12.9518 20.6506 13.9864 20.6038C14.7915 20.5878 15.588 20.4361 16.342 20.1551C16.9861 19.9066 17.5711 19.5271 18.0594 19.0408C18.5477 18.5545 18.9287 17.9721 19.178 17.3309C19.4603 16.5804 19.6127 15.7877 19.6288 14.9866C19.6749 13.9578 19.686 13.6278 19.686 11.0076C19.686 8.38749 19.6749 8.05745 19.6278 7.02778C19.6118 6.22659 19.4594 5.43391 19.177 4.68344C18.9334 4.03934 18.5515 3.45592 18.0579 2.97392C17.5736 2.48268 16.9874 2.10257 16.3402 1.86013C15.5861 1.57913 14.7896 1.42743 13.9846 1.41149C12.9509 1.36552 12.6193 1.35449 9.98657 1.35449Z" fill="#485AFF"/>
<path d="M10.2187 6.20996C9.23357 6.20996 8.27056 6.50069 7.45146 7.04539C6.63235 7.59008 5.99394 8.36428 5.61694 9.27007C5.23995 10.1759 5.14131 11.1726 5.3335 12.1342C5.52569 13.0957 6.00008 13.979 6.69667 14.6723C7.39326 15.3656 8.28077 15.8377 9.24697 16.0289C10.2132 16.2202 11.2147 16.122 12.1248 15.7469C13.0349 15.3717 13.8129 14.7363 14.3602 13.9211C14.9075 13.1059 15.1996 12.1475 15.1996 11.1671C15.1996 9.85237 14.6748 8.59151 13.7407 7.66187C12.8066 6.73223 11.5397 6.20996 10.2187 6.20996ZM10.2187 14.3848C9.57924 14.3848 8.95414 14.1961 8.42245 13.8425C7.89077 13.4889 7.47636 12.9864 7.23165 12.3984C6.98694 11.8105 6.92292 11.1635 7.04767 10.5393C7.17242 9.91516 7.48035 9.34182 7.93251 8.89181C8.38468 8.44181 8.96077 8.13535 9.58794 8.01119C10.2151 7.88704 10.8652 7.95076 11.456 8.1943C12.0468 8.43784 12.5517 8.85026 12.907 9.37941C13.2622 9.90856 13.4519 10.5307 13.4519 11.1671C13.4519 12.0205 13.1112 12.8389 12.5049 13.4423C11.8985 14.0458 11.0762 14.3848 10.2187 14.3848Z" fill="#485AFF"/>
<path d="M15.7382 7.02574C16.381 7.02574 16.9021 6.50711 16.9021 5.86736C16.9021 5.22761 16.381 4.70898 15.7382 4.70898C15.0953 4.70898 14.5742 5.22761 14.5742 5.86736C14.5742 6.50711 15.0953 7.02574 15.7382 7.02574Z" fill="#485AFF"/>
<path d="M29.7329 5.95133V15.5081H27.4231V5.95133H29.7329ZM33.4648 11.4203V15.5081H31.183V8.34051H33.3529V9.65643H33.4322C33.5908 9.21779 33.8615 8.87403 34.2441 8.62516C34.6268 8.37318 35.0825 8.24718 35.6114 8.24718C36.1153 8.24718 36.5524 8.36073 36.9226 8.58783C37.2959 8.81181 37.5853 9.12602 37.7906 9.53043C37.999 9.93174 38.1017 10.4015 38.0986 10.9397V15.5081H35.8167V11.3877C35.8198 10.9895 35.7187 10.6784 35.5134 10.4544C35.3112 10.2304 35.0296 10.1184 34.6688 10.1184C34.4292 10.1184 34.2177 10.1713 34.0341 10.2771C33.8537 10.3797 33.7137 10.5275 33.6142 10.7204C33.5177 10.9132 33.468 11.1466 33.4648 11.4203ZM45.7689 10.529L43.6737 10.585C43.6519 10.4357 43.5928 10.3035 43.4964 10.1884C43.3999 10.0702 43.2739 9.97841 43.1184 9.91308C42.966 9.84464 42.7886 9.81042 42.5864 9.81042C42.322 9.81042 42.0965 9.8633 41.9098 9.96907C41.7263 10.0748 41.6361 10.2179 41.6392 10.3984C41.6361 10.5384 41.692 10.6597 41.8072 10.7624C41.9254 10.865 42.1354 10.9475 42.4371 11.0097L43.8184 11.271C44.5339 11.4079 45.0658 11.635 45.4143 11.9523C45.7658 12.2696 45.9431 12.6896 45.9462 13.2122C45.9431 13.7037 45.7969 14.1315 45.5076 14.4955C45.2214 14.8594 44.8294 15.1425 44.3317 15.3447C43.8339 15.5438 43.2646 15.6434 42.6238 15.6434C41.6003 15.6434 40.793 15.4334 40.2019 15.0134C39.614 14.5903 39.278 14.0242 39.194 13.3149L41.4478 13.2589C41.4976 13.5202 41.6267 13.7193 41.8352 13.8562C42.0436 13.993 42.3096 14.0615 42.6331 14.0615C42.9255 14.0615 43.1635 14.007 43.3471 13.8982C43.5306 13.7893 43.6239 13.6446 43.627 13.4642C43.6239 13.3024 43.5524 13.1733 43.4124 13.0769C43.2724 12.9773 43.0531 12.8996 42.7544 12.8436L41.5038 12.6056C40.7852 12.4749 40.2501 12.2338 39.8986 11.8823C39.5471 11.5276 39.3729 11.0766 39.376 10.529C39.3729 10.05 39.5004 9.64087 39.7586 9.30178C40.0168 8.95958 40.3839 8.69827 40.8599 8.51783C41.3358 8.3374 41.8974 8.24718 42.5444 8.24718C43.515 8.24718 44.2803 8.45095 44.8403 8.85848C45.4003 9.2629 45.7098 9.81975 45.7689 10.529ZM51.1154 8.34051V10.0204H46.5937V8.34051H51.1154ZM47.541 6.62329H49.8228V13.2542C49.8228 13.3942 49.8446 13.5077 49.8881 13.5948C49.9348 13.6788 50.0017 13.7395 50.0888 13.7768C50.1759 13.8111 50.2801 13.8282 50.4014 13.8282C50.4885 13.8282 50.5803 13.8204 50.6768 13.8048C50.7763 13.7862 50.851 13.7706 50.9007 13.7582L51.2461 15.4054C51.1372 15.4365 50.9832 15.4754 50.7841 15.5221C50.5881 15.5687 50.3532 15.5983 50.0795 15.6107C49.5444 15.6356 49.0855 15.5734 48.7029 15.4241C48.3234 15.2716 48.0325 15.0352 47.8303 14.7148C47.6312 14.3943 47.5347 13.9915 47.541 13.5062V6.62329ZM54.3002 15.6294C53.8429 15.6294 53.4369 15.5532 53.0823 15.4007C52.7307 15.2452 52.4523 15.0119 52.247 14.7008C52.0448 14.3866 51.9437 13.993 51.9437 13.5202C51.9437 13.122 52.0137 12.786 52.1537 12.5122C52.2937 12.2385 52.4865 12.0161 52.7323 11.845C52.9781 11.6739 53.2611 11.5448 53.5816 11.4576C53.902 11.3674 54.2442 11.3068 54.6082 11.2757C55.0157 11.2383 55.3439 11.1994 55.5928 11.159C55.8417 11.1154 56.0221 11.0548 56.1341 10.977C56.2492 10.8961 56.3067 10.7826 56.3067 10.6364V10.613C56.3067 10.3735 56.2243 10.1884 56.0594 10.0577C55.8945 9.92708 55.6721 9.86175 55.3921 9.86175C55.0904 9.86175 54.8477 9.92708 54.6642 10.0577C54.4806 10.1884 54.364 10.3688 54.3142 10.599L52.2097 10.5244C52.2719 10.0888 52.4321 9.69998 52.6903 9.35778C52.9516 9.01247 53.3094 8.74182 53.7636 8.54583C54.2209 8.34673 54.7699 8.24718 55.4108 8.24718C55.8681 8.24718 56.2896 8.30162 56.6754 8.41051C57.0611 8.51628 57.3971 8.67182 57.6833 8.87714C57.9695 9.07935 58.1904 9.32823 58.3459 9.62376C58.5046 9.9193 58.5839 10.2568 58.5839 10.6364V15.5081H56.4374V14.5095H56.3814C56.2538 14.7521 56.0905 14.9574 55.8914 15.1254C55.6954 15.2934 55.4637 15.4194 55.1961 15.5034C54.9317 15.5874 54.6331 15.6294 54.3002 15.6294ZM55.0048 14.1361C55.2506 14.1361 55.4715 14.0864 55.6674 13.9868C55.8665 13.8873 56.0252 13.7504 56.1434 13.5762C56.2616 13.3989 56.3207 13.1935 56.3207 12.9602V12.2789C56.2554 12.3131 56.1761 12.3443 56.0827 12.3723C55.9925 12.4003 55.893 12.4267 55.7841 12.4516C55.6752 12.4765 55.5632 12.4982 55.4481 12.5169C55.333 12.5356 55.2226 12.5527 55.1168 12.5682C54.9022 12.6025 54.7186 12.6553 54.5662 12.7269C54.4169 12.7985 54.3017 12.8918 54.2209 13.0069C54.1431 13.1189 54.1042 13.2526 54.1042 13.4082C54.1042 13.6446 54.1882 13.8251 54.3562 13.9495C54.5273 14.0739 54.7435 14.1361 55.0048 14.1361ZM63.3203 18.3452C62.639 18.3452 62.0557 18.2503 61.5704 18.0606C61.0851 17.8708 60.704 17.611 60.4271 17.2813C60.1503 16.9515 59.9838 16.5782 59.9278 16.1613L62.0884 16.04C62.1288 16.1862 62.2035 16.3138 62.3124 16.4227C62.4243 16.5315 62.569 16.6155 62.7463 16.6746C62.9268 16.7338 63.1383 16.7633 63.381 16.7633C63.7636 16.7633 64.0794 16.67 64.3282 16.4833C64.5802 16.2998 64.7062 15.9778 64.7062 15.5174V14.2575H64.6269C64.5367 14.4783 64.3998 14.6759 64.2162 14.8501C64.0327 15.0243 63.804 15.1612 63.5303 15.2607C63.2596 15.3603 62.9485 15.4101 62.597 15.4101C62.0744 15.4101 61.5953 15.2887 61.1598 15.0461C60.7273 14.8003 60.3805 14.4208 60.1192 13.9075C59.861 13.3911 59.7319 12.7269 59.7319 11.915C59.7319 11.0781 59.8656 10.389 60.1332 9.84775C60.4007 9.30334 60.7507 8.90047 61.1831 8.63916C61.6186 8.37784 62.0868 8.24718 62.5877 8.24718C62.9641 8.24718 63.2861 8.31251 63.5536 8.44317C63.8243 8.57072 64.0467 8.7356 64.2209 8.93781C64.3951 9.14002 64.5273 9.35 64.6175 9.56777H64.6829V8.34051H66.9554V15.5361C66.9554 16.1427 66.803 16.6544 66.4981 17.0713C66.1932 17.4882 65.767 17.8039 65.2195 18.0186C64.672 18.2363 64.0389 18.3452 63.3203 18.3452ZM63.3903 13.7488C63.6672 13.7488 63.9036 13.6757 64.0996 13.5295C64.2956 13.3833 64.4464 13.1733 64.5522 12.8996C64.658 12.6258 64.7109 12.2976 64.7109 11.915C64.7109 11.5261 64.658 11.1917 64.5522 10.9117C64.4496 10.6286 64.2987 10.4108 64.0996 10.2584C63.9036 10.106 63.6672 10.0297 63.3903 10.0297C63.1072 10.0297 62.8677 10.1075 62.6717 10.2631C62.4757 10.4186 62.3264 10.6379 62.2237 10.921C62.1241 11.201 62.0744 11.5323 62.0744 11.915C62.0744 12.2976 62.1257 12.6258 62.2284 12.8996C62.331 13.1733 62.4788 13.3833 62.6717 13.5295C62.8677 13.6757 63.1072 13.7488 63.3903 13.7488ZM68.4101 15.5081V8.34051H70.6267V9.64709H70.7013C70.832 9.17424 71.0451 8.8227 71.3406 8.59249C71.6362 8.35918 71.9799 8.24252 72.3719 8.24252C72.4777 8.24252 72.5865 8.25029 72.6985 8.26585C72.8105 8.27829 72.9147 8.29851 73.0112 8.32651V10.3097C72.9023 10.2724 72.7592 10.2428 72.5819 10.2211C72.4077 10.1993 72.2521 10.1884 72.1152 10.1884C71.8446 10.1884 71.6004 10.2491 71.3826 10.3704C71.168 10.4886 70.9984 10.655 70.874 10.8697C70.7527 11.0812 70.692 11.3301 70.692 11.6163V15.5081H68.4101ZM75.692 15.6294C75.2347 15.6294 74.8287 15.5532 74.4741 15.4007C74.1226 15.2452 73.8441 15.0119 73.6388 14.7008C73.4366 14.3866 73.3355 13.993 73.3355 13.5202C73.3355 13.122 73.4055 12.786 73.5455 12.5122C73.6855 12.2385 73.8783 12.0161 74.1241 11.845C74.3699 11.6739 74.653 11.5448 74.9734 11.4576C75.2938 11.3674 75.636 11.3068 76 11.2757C76.4075 11.2383 76.7357 11.1994 76.9846 11.159C77.2335 11.1154 77.4139 11.0548 77.5259 10.977C77.641 10.8961 77.6985 10.7826 77.6985 10.6364V10.613C77.6985 10.3735 77.6161 10.1884 77.4512 10.0577C77.2864 9.92708 77.0639 9.86175 76.7839 9.86175C76.4822 9.86175 76.2395 9.92708 76.056 10.0577C75.8724 10.1884 75.7558 10.3688 75.706 10.599L73.6015 10.5244C73.6637 10.0888 73.8239 9.69998 74.0821 9.35778C74.3434 9.01247 74.7012 8.74182 75.1554 8.54583C75.6127 8.34673 76.1618 8.24718 76.8026 8.24718C77.2599 8.24718 77.6814 8.30162 78.0672 8.41051C78.4529 8.51628 78.7889 8.67182 79.0751 8.87714C79.3613 9.07935 79.5822 9.32823 79.7378 9.62376C79.8964 9.9193 79.9757 10.2568 79.9757 10.6364V15.5081H77.8292V14.5095H77.7732C77.6457 14.7521 77.4823 14.9574 77.2832 15.1254C77.0873 15.2934 76.8555 15.4194 76.588 15.5034C76.3235 15.5874 76.0249 15.6294 75.692 15.6294ZM76.3966 14.1361C76.6424 14.1361 76.8633 14.0864 77.0593 13.9868C77.2584 13.8873 77.417 13.7504 77.5352 13.5762C77.6534 13.3989 77.7125 13.1935 77.7125 12.9602V12.2789C77.6472 12.3131 77.5679 12.3443 77.4746 12.3723C77.3843 12.4003 77.2848 12.4267 77.1759 12.4516C77.067 12.4765 76.955 12.4982 76.8399 12.5169C76.7248 12.5356 76.6144 12.5527 76.5086 12.5682C76.294 12.6025 76.1104 12.6553 75.958 12.7269C75.8087 12.7985 75.6936 12.8918 75.6127 13.0069C75.5349 13.1189 75.496 13.2526 75.496 13.4082C75.496 13.6446 75.58 13.8251 75.748 13.9495C75.9191 14.0739 76.1353 14.1361 76.3966 14.1361ZM81.371 15.5081V8.34051H83.5408V9.65643H83.6202C83.7695 9.2209 84.0215 8.87714 84.3761 8.62516C84.7308 8.37318 85.1539 8.24718 85.6454 8.24718C86.1431 8.24718 86.5693 8.37473 86.924 8.62983C87.2786 8.88492 87.5041 9.22712 87.6006 9.65643H87.6752C87.809 9.23023 88.0703 8.88959 88.4592 8.63449C88.8481 8.37629 89.3069 8.24718 89.8358 8.24718C90.514 8.24718 91.0646 8.46495 91.4877 8.90047C91.9108 9.33289 92.1223 9.92708 92.1223 10.683V15.5081H89.8404V11.2057C89.8404 10.8479 89.7487 10.5757 89.5651 10.389C89.3816 10.1993 89.1436 10.1044 88.8512 10.1044C88.537 10.1044 88.2897 10.2071 88.1092 10.4124C87.9319 10.6146 87.8432 10.8868 87.8432 11.229V15.5081H85.65V11.1823C85.65 10.8495 85.5598 10.5866 85.3794 10.3937C85.199 10.2008 84.961 10.1044 84.6654 10.1044C84.4663 10.1044 84.2906 10.1526 84.1381 10.2491C83.9857 10.3424 83.8659 10.4762 83.7788 10.6504C83.6948 10.8246 83.6528 11.0299 83.6528 11.2663V15.5081H81.371Z" fill="#4455F0"/>
</svg>
