<svg viewBox="0 0 1180 314" fill="none" xmlns="http://www.w3.org/2000/svg"><path d="M477.961 265.916v-1.776l3.36-.432c.768-.096 1.248-.32 1.44-.672.192-.352.288-.864.288-1.536v-3.552h-14.256l-.48-2.928 15.024-23.04 6.864-.96.864.624v22.32h4.656v3.984h-4.656v3.792c0 .608.112 1.088.336 1.44.224.32.672.512 1.344.576l2.256.288v1.872h-17.04Zm-6.192-11.952h11.28v-17.232h-.096l-11.184 17.232Zm40.099 12.576c-2.976 0-5.456-.752-7.44-2.256-1.952-1.504-3.424-3.568-4.416-6.192-.96-2.624-1.44-5.616-1.44-8.976 0-3.424.4-6.304 1.2-8.64.8-2.336 1.84-4.208 3.12-5.616 1.312-1.408 2.768-2.432 4.368-3.072 1.6-.64 3.216-.96 4.848-.96 2.432 0 4.624.624 6.576 1.872 1.952 1.216 3.504 3.088 4.656 5.616 1.152 2.528 1.728 5.76 1.728 9.696 0 4.064-.576 7.472-1.728 10.224-1.152 2.752-2.72 4.832-4.704 6.24-1.984 1.376-4.24 2.064-6.768 2.064Zm.288-2.352c.832 0 1.552-.24 2.16-.72.608-.512 1.104-1.344 1.488-2.496.416-1.184.72-2.768.912-4.752.192-2.016.288-4.528.288-7.536s-.112-5.52-.336-7.536c-.224-2.016-.56-3.6-1.008-4.752-.448-1.184-.992-2.016-1.632-2.496-.64-.48-1.392-.72-2.256-.72-.768 0-1.472.224-2.112.672-.64.416-1.184 1.168-1.632 2.256-.416 1.088-.752 2.624-1.008 4.608-.224 1.952-.336 4.48-.336 7.584 0 2.848.112 5.296.336 7.344.256 2.016.608 3.648 1.056 4.896.48 1.248 1.056 2.176 1.728 2.784a3.503 3.503 0 0 0 2.352.864Zm25.008 1.728v-1.776l3.36-.432c.768-.096 1.248-.32 1.44-.672.192-.352.288-.864.288-1.536v-3.552h-14.256l-.48-2.928 15.024-23.04 6.864-.96.864.624v22.32h4.656v3.984h-4.656v3.792c0 .608.112 1.088.336 1.44.224.32.672.512 1.344.576l2.256.288v1.872h-17.04Zm-6.192-11.952h11.28v-17.232h-.096l-11.184 17.232Zm37.316 11.952v-1.872l2.16-.24c.608-.064 1.008-.256 1.2-.576.192-.352.288-1.008.288-1.968v-25.44c0-.832-.112-1.392-.336-1.68-.192-.32-.624-.512-1.296-.576l-2.016-.192V231.5h24.192l1.488 8.736-2.304.432c-.48-1.44-.96-2.608-1.44-3.504-.48-.896-1.008-1.6-1.584-2.112a4.704 4.704 0 0 0-2.016-1.056c-.768-.192-1.712-.288-2.832-.288h-3.84v13.536h3.216c.832 0 1.472-.096 1.92-.288.448-.224.8-.624 1.056-1.2.256-.608.528-1.488.816-2.64l1.824-.192v10.752l-1.824.24c-.224-1.184-.48-2.08-.768-2.688-.256-.64-.624-1.072-1.104-1.296-.448-.256-1.088-.384-1.92-.384h-3.216v14.112h4.944c1.088 0 2-.096 2.736-.288a4.525 4.525 0 0 0 1.968-1.152c.544-.544 1.04-1.28 1.488-2.208.448-.96.896-2.176 1.344-3.648h2.352l-1.008 9.552h-25.488Zm29.942 0v-1.824l1.92-.288c.48-.064.8-.24.96-.528.16-.32.24-.896.24-1.728v-15.12c0-1.024-.096-1.744-.288-2.16-.192-.416-.64-.656-1.344-.72l-1.92-.24.192-1.92 9.792-.528.48.336.24 4.8h.096c.704-1.76 1.712-3.104 3.024-4.032 1.312-.96 2.752-1.44 4.32-1.44 1.728 0 3.088.48 4.08 1.44s1.488 2.224 1.488 3.792c0 .896-.144 1.696-.432 2.4a3.423 3.423 0 0 1-1.344 1.584c-.576.384-1.344.576-2.304.576-1.184 0-2.064-.256-2.64-.768-.576-.512-.864-1.136-.864-1.872 0-.352.048-.688.144-1.008.128-.352.32-.768.576-1.248.256-.48.608-1.072 1.056-1.776-.736-.256-1.504-.272-2.304-.048-.768.192-1.504.592-2.208 1.2-.672.608-1.216 1.392-1.632 2.352-.416.928-.624 2-.624 3.216v11.232c0 .768.08 1.312.24 1.632.16.288.528.464 1.104.528l3.264.336v1.824H598.23Zm25.594 0v-1.824l1.92-.288c.48-.064.8-.24.96-.528.16-.32.24-.896.24-1.728v-15.12c0-1.024-.096-1.744-.288-2.16-.192-.416-.64-.656-1.344-.72l-1.92-.24.192-1.92 9.792-.528.48.336.24 4.8h.096c.704-1.76 1.712-3.104 3.024-4.032 1.312-.96 2.752-1.44 4.32-1.44 1.728 0 3.088.48 4.08 1.44s1.488 2.224 1.488 3.792c0 .896-.144 1.696-.432 2.4a3.423 3.423 0 0 1-1.344 1.584c-.576.384-1.344.576-2.304.576-1.184 0-2.064-.256-2.64-.768-.576-.512-.864-1.136-.864-1.872 0-.352.048-.688.144-1.008.128-.352.32-.768.576-1.248.256-.48.608-1.072 1.056-1.776-.736-.256-1.504-.272-2.304-.048-.768.192-1.504.592-2.208 1.2-.672.608-1.216 1.392-1.632 2.352-.416.928-.624 2-.624 3.216v11.232c0 .768.08 1.312.24 1.632.16.288.528.464 1.104.528l3.264.336v1.824h-15.312Zm37.895.672c-2.656 0-4.944-.48-6.864-1.44-1.92-.992-3.408-2.416-4.464-4.272-1.056-1.888-1.584-4.16-1.584-6.816 0-2.944.56-5.424 1.68-7.44 1.152-2.016 2.752-3.536 4.8-4.56 2.08-1.024 4.512-1.536 7.296-1.536 2.528 0 4.736.464 6.624 1.392 1.92.928 3.408 2.32 4.464 4.176 1.056 1.824 1.584 4.112 1.584 6.864 0 2.848-.544 5.296-1.632 7.344-1.088 2.016-2.656 3.568-4.704 4.656-2.016 1.088-4.416 1.632-7.2 1.632Zm.72-2.352c1.12 0 2.016-.336 2.688-1.008.704-.672 1.216-1.76 1.536-3.264.32-1.504.48-3.504.48-6 0-2.08-.128-3.84-.384-5.28-.224-1.44-.576-2.576-1.056-3.408-.448-.864-1.008-1.488-1.68-1.872-.64-.384-1.376-.576-2.208-.576-1.056 0-1.952.32-2.688.96-.736.608-1.296 1.616-1.68 3.024-.384 1.408-.576 3.328-.576 5.76 0 2.816.224 5.088.672 6.816.448 1.696 1.072 2.928 1.872 3.696.832.768 1.84 1.152 3.024 1.152Zm16.088 1.68v-1.824l1.92-.288c.48-.064.8-.24.96-.528.16-.32.24-.896.24-1.728v-15.12c0-1.024-.096-1.744-.288-2.16-.192-.416-.64-.656-1.344-.72l-1.92-.24.192-1.92 9.792-.528.48.336.24 4.8h.096c.704-1.76 1.712-3.104 3.024-4.032 1.312-.96 2.752-1.44 4.32-1.44 1.728 0 3.088.48 4.08 1.44s1.488 2.224 1.488 3.792c0 .896-.144 1.696-.432 2.4a3.423 3.423 0 0 1-1.344 1.584c-.576.384-1.344.576-2.304.576-1.184 0-2.064-.256-2.64-.768-.576-.512-.864-1.136-.864-1.872 0-.352.048-.688.144-1.008.128-.352.32-.768.576-1.248.256-.48.608-1.072 1.056-1.776-.736-.256-1.504-.272-2.304-.048-.768.192-1.504.592-2.208 1.2-.672.608-1.216 1.392-1.632 2.352-.416.928-.624 2-.624 3.216v11.232c0 .768.08 1.312.24 1.632.16.288.528.464 1.104.528l3.264.336v1.824h-15.312Z" fill="#1B2D59"/><path d="M487.006 120.586c-2.395-6.147-1.828-13.534 1.25-19.941 3.94-8.2 11.926-13.357 20.372-16.732 8.445-3.363 8.646-3.48 17.445-6.454l18.567 51.033c-8.658 3.386-8.882 3.433-17.517 6.277-8.634 2.844-18.071 4.024-26.351.283-6.464-2.926-11.655-8.224-13.766-14.466Z" fill="#fff"/><path d="M545.489 64.775 532.62 69.46c-7.396 2.69-8.364 18.726-2.147 35.811 6.216 17.086 17.257 28.744 24.653 26.054l12.869-4.685-22.506-61.853v-.012Z" fill="#fff"/><path d="M567.992 126.623c7.401-2.694 8.363-18.724 2.149-35.803-6.214-17.079-17.252-28.74-24.653-26.045-7.401 2.695-8.363 18.724-2.149 35.803 6.214 17.079 17.251 28.74 24.653 26.045Z" fill="#fff"/><path d="M485.826 121.036c4.01 10.761 14.568 17.404 25.892 17.64 11.465.236 22.86-4.873 33.37-8.979 1.521-.59.648-2.974-.885-2.372-8.575 3.351-17.599 7.245-26.765 8.472-12.161 1.64-24.747-3.599-29.229-15.646-.567-1.522-2.949-.649-2.371.885h-.012Z" fill="#3E57DA"/><path d="M488.197 120.163c-4.306-12.177 2.029-24.284 12.444-30.832 7.809-4.91 17.175-7.717 25.868-10.655 1.546-.52.673-2.903-.884-2.384-10.404 3.516-22.035 6.832-30.598 13.959-8.977 7.469-13.165 19.564-9.213 30.785.543 1.534 2.925.661 2.371-.885l.012.012Z" fill="#3E57DA"/><path d="M.22 79.502v-2.714c13.718-5.334 53.54-19.47 67.813-23.717 23.78-7.068 48.162-12.33 72.568-14.82 30.716-3.139 67.023 1.947 85.247 30.1 9.083 14.018 8.387 30.537 12.752 46.101 4.623 16.46 17.21 28.708 32.568 35.576 17.528 7.846 37.463 8.955 56.407 8.436 17.776-.484 35.446-2.938 52.821-6.678 35.894-7.717 70.361-20.827 104.463-34.231.13-.047.259-.106.401-.153.283-.118.554-.118.79-.047.814.236 1.18 1.416.578 2.076 0 .012-.012.024-.023.024-.118.13-.272.236-.46.307-.036 0-.059.023-.095.035-.189.071-.365.142-.554.224-37.251 14.632-74.997 28.874-114.466 36.201-17.705 3.292-35.706 5.121-53.729 4.803-17.269-.307-35.152-2.396-50.722-10.408-12.964-6.666-24.11-17.416-29.1-31.327-5.686-15.871-3.975-33.7-13.034-48.45-19.51-31.728-60.843-33.545-93.753-28.814-20.973 3.021-41.78 7.694-62.199 13.688C54.103 59.938 14.127 74.074.208 79.49l.012.012Zm695.865-36.804c.071-.378.307-.732.767-.92.035-.012.071-.024.106-.048 37.204-14.607 74.867-28.86 114.265-36.27C828.669 2.167 846.41.29 864.186.49c17.363.189 35.281 2.112 51.075 9.853 12.811 6.277 24.075 16.566 29.501 29.959 6.288 15.528 4.377 33.31 12.516 48.224 17.788 32.567 59.242 35.753 91.902 31.422 20.11-2.655 40.09-6.914 59.71-12.436 15.3-4.307 56.15-18.396 70.9-24.095v2.714c-17.89 6.88-61.96 21.723-80.55 26.466-19.89 5.074-40.28 9.393-60.76 11.08-30.32 2.502-66.021-4.047-82.653-32.59-8.257-14.148-7.219-30.726-12.032-45.96-5.072-16.047-18.201-27.764-33.405-34.206-17.635-7.47-37.57-8.401-56.466-7.776-17.777.59-35.447 3.139-52.798 6.95-35.423 7.776-69.453 20.743-103.142 33.97-.071.036-.165.06-.236.095-.424.165-.802.106-1.085-.094a1.188 1.188 0 0 1-.401-.437 1.43 1.43 0 0 1-.165-.932h-.012ZM576.984 30.073 568.385 2.72c-.484-1.557-2.867-.672-2.371.885l8.599 27.352c.483 1.557 2.866.672 2.371-.885Zm18.436 2.301a15035.42 15035.42 0 0 1 7.833-21.51c.554-1.523-1.734-2.62-2.289-1.086-2.607 7.174-5.214 14.336-7.832 21.51-.555 1.522 1.734 2.62 2.288 1.086Zm-28.557 7.836c-6.653-3.104-13.294-6.207-19.947-9.31-1.474-.685-2.571 1.604-1.085 2.289 6.653 3.103 13.294 6.206 19.946 9.31 1.475.684 2.572-1.605 1.086-2.29Zm39.645 95.067c3.362 9.228 6.712 18.467 10.074 27.694.554 1.534 2.937.661 2.371-.885-3.362-9.227-6.712-18.466-10.074-27.694-.554-1.534-2.937-.66-2.371.885Zm13.942-7.834c6.051 2.82 12.114 5.651 18.166 8.472 1.474.684 2.571-1.605 1.085-2.29-6.052-2.82-12.115-5.652-18.166-8.472-1.474-.684-2.571 1.605-1.085 2.29Zm-29.442 9.475c-2.607 5.581-5.202 11.162-7.809 16.743-.684 1.475 1.605 2.572 2.289 1.086 2.607-5.582 5.202-11.163 7.809-16.744.684-1.475-1.605-2.572-2.289-1.085Zm3.964-65.298c10.675-3.882 5.107-1.77 15.794-5.652 1.533-.555.661-2.938-.885-2.372-10.675 3.882-5.107 1.77-15.794 5.652-1.534.554-.661 2.938.885 2.372Zm7.891 22.772c11.124-4.106 4.884-1.805 16.007-5.911 1.533-.567.66-2.95-.885-2.372-11.123 4.106-4.883 1.805-16.007 5.912-1.533.566-.66 2.95.885 2.371Zm-33.913-3.116c2.595 7.363 4.541 15.352 3.928 23.222-.33 4.271-1.604 10.855-6.877 11.257-4.919.377-9.602-4.992-12.256-8.39-4.022-5.156-6.994-11.091-9.224-17.215-2.453-6.738-4.128-13.96-4.022-21.169.059-4.554.967-12.873 6.971-13.31 4.6-.33 8.906 4.307 11.548 7.493 4.412 5.345 7.514 11.646 9.932 18.112.566 1.523 2.949.65 2.371-.885-3.574-9.522-9.696-22.76-20.076-26.584-9.13-3.351-12.869 6.537-13.223 13.853-.661 13.557 4.494 28.236 12.244 39.257 3.786 5.392 12.22 14.997 19.722 10.112 4.046-2.631 5.143-8.248 5.414-12.696.519-8.154-1.403-16.307-4.093-23.953-.542-1.534-2.925-.661-2.371.885l.012.011Z" fill="#3E57DA"/><path d="M653.314 60.658c-6.217-17.086-17.257-28.744-24.653-26.053l-12.869 4.684c-7.396 2.69-8.364 18.726-2.147 35.811 6.216 17.086 17.257 28.744 24.653 26.054l12.869-4.684c7.396-2.69 8.363-18.726 2.147-35.812Z" fill="#fff"/><path d="m696.911 44.787-.059-.165c-2.112-6.242-7.243-11.375-13.707-14.301-8.281-3.752-17.717-2.572-26.352.283-8.634 2.844-15.888 5.558-24.535 8.932-6.086 2.219-6.877 15.399-1.757 29.44 5.107 14.042 14.178 23.635 20.265 21.416 8.799-2.973 16.101-5.569 24.547-8.932 8.445-3.363 16.431-8.53 20.371-16.731 3.067-6.396 3.645-13.794 1.25-19.942h-.023Z" fill="#fff"/><path d="M545.052 63.596c-4.352 1.581-9 2.867-13.199 4.826-7.03 3.28-7.125 13.487-6.547 20.024.991 11.304 5.108 22.749 11.418 32.165 3.48 5.192 9.307 12.555 16.338 12.354 2.406-.071 4.812-1.286 7.042-2.1 2.783-1.015 5.555-2.03 8.339-3.033 1.534-.554.661-2.938-.885-2.383l-7.584 2.761c-2.112.767-4.542 2.077-6.83 2.23-4.435.283-8.599-4.012-11.182-7.068-3.964-4.672-6.936-10.159-9.248-15.811-2.595-6.372-4.435-13.145-4.943-20.024-.353-4.802-.53-12.555 3.716-15.965 1.84-1.475 4.683-2.041 6.853-2.832 2.525-.92 5.061-1.84 7.585-2.76 1.534-.555.661-2.939-.885-2.372l.012-.012Zm110.397 24.541c-.672 2.809-1.887 5.888-4.765 7.045-1.51.601-.637 2.985.884 2.383 3.763-1.51 5.485-5.239 6.382-8.98.377-1.592-2.112-2.017-2.501-.436v-.012ZM629.062 35.7c2.937-.932 5.804.602 8.127 2.313 1.31.956 2.961-.968 1.64-1.935-3.114-2.29-6.759-3.988-10.64-2.75-1.557.496-.672 2.868.885 2.384l-.012-.012Z" fill="#3E57DA"/><path d="M628.177 33.329c-4.352 1.58-9 2.867-13.199 4.826-7.03 3.28-7.125 13.486-6.547 20.023.991 11.304 5.108 22.75 11.418 32.166 3.48 5.192 9.307 12.555 16.338 12.354 2.406-.071 4.812-1.286 7.042-2.1 2.783-1.015 5.555-2.03 8.339-3.033 1.534-.554.661-2.938-.885-2.383-2.524.92-5.06 1.84-7.584 2.76-2.112.768-4.542 2.078-6.83 2.231-4.435.283-8.599-4.012-11.182-7.068-3.964-4.673-6.936-10.16-9.248-15.811-2.595-6.372-4.435-13.145-4.942-20.024-.354-4.803-.531-12.555 3.715-15.965 1.84-1.475 4.683-2.041 6.853-2.832 2.525-.92 5.061-1.84 7.585-2.76 1.534-.555.661-2.939-.885-2.384h.012Z" fill="#3E57DA"/><path d="M698.067 44.255c-4.011-10.761-14.568-17.404-25.892-17.64-6.806-.142-13.211 1.781-19.581 3.952-7.006 2.384-13.919 5.003-20.819 7.694-1.522.59-.649 2.973.885 2.383 10.793-4.2 22.246-9.581 33.794-11.138 12.162-1.64 24.748 3.598 29.23 15.646.566 1.522 2.949.649 2.371-.885l.012-.012Z" fill="#3E57DA"/><path d="M695.684 45.128c4.306 12.177-2.029 24.284-12.444 30.832-9.85 6.195-22.011 9.428-32.957 13.133-1.546.52-.673 2.903.884 2.372 7.255-2.455 14.474-4.991 21.61-7.776 5.721-2.23 11.336-4.708 16.089-8.661 8.977-7.47 13.164-19.564 9.213-30.785-.543-1.534-2.925-.66-2.371.885h-.024Z" fill="#3E57DA"/><path d="M650.283 89.093c-3.551 1.05-6.995-2.006-9.236-4.39-3.799-4.035-6.535-9.109-8.6-14.206-2.205-5.451-3.739-11.257-4.034-17.133-.2-4.035-.153-10.773 4.259-12.732 1.486-.66.613-3.044-.885-2.383-4.164 1.852-5.485 6.442-5.851 10.667-.649 7.599 1.31 15.469 4.129 22.466 2.937 7.257 10.805 23.127 21.09 20.095 1.569-.46.685-2.844-.884-2.372l.012-.012Zm-95.487-4.211c-.354-.968-1.333-1.7-2.584-1.251-1.238.448-1.51 1.64-1.156 2.608.354.967 1.333 1.699 2.584 1.25 1.238-.448 1.509-1.64 1.156-2.607Zm7.891 22.773c-.354-.967-1.333-1.699-2.583-1.251-1.239.449-1.51 1.641-1.156 2.608.354.968 1.333 1.699 2.583 1.251 1.239-.448 1.51-1.64 1.156-2.608Z" fill="#3E57DA"/><path d="M498.618 307.112a4.03 4.03 0 0 1-1.4-.252 3.206 3.206 0 0 1-1.12-.686l-.224.826h-.602l-.28-3.024.784-.07c.14.382.303.723.49 1.022.187.289.397.532.63.728.243.186.504.331.784.434.28.093.579.14.896.14.401 0 .737-.061 1.008-.182.271-.131.476-.318.616-.56.14-.243.21-.532.21-.868 0-.355-.07-.654-.21-.896-.14-.252-.373-.476-.7-.672-.317-.196-.747-.378-1.288-.546a8.826 8.826 0 0 1-1.344-.532 3.497 3.497 0 0 1-.882-.616 2.053 2.053 0 0 1-.49-.77 2.913 2.913 0 0 1-.154-.98c0-.327.047-.626.14-.896.093-.28.224-.528.392-.742.177-.224.387-.416.63-.574.252-.159.532-.28.84-.364.308-.084.639-.126.994-.126.383 0 .756.065 1.12.196.373.13.691.308.952.532l.182-.728h.644l.308 2.842-.756.112c-.14-.504-.327-.915-.56-1.232a2.175 2.175 0 0 0-.798-.728 2.204 2.204 0 0 0-1.05-.238c-.504 0-.915.144-1.232.434-.308.28-.462.653-.462 1.12 0 .308.07.574.21.798.14.224.369.429.686.616.317.177.747.359 1.288.546.532.177.985.368 1.358.574.373.196.672.41.896.644.224.224.387.476.49.756.103.28.154.602.154.966 0 .438-.079.84-.238 1.204a2.772 2.772 0 0 1-.644.952c-.28.27-.616.48-1.008.63-.383.14-.803.21-1.26.21Zm8.003 0c-.69 0-1.292-.145-1.806-.434a3.066 3.066 0 0 1-1.19-1.246c-.27-.542-.406-1.176-.406-1.904 0-.803.145-1.494.434-2.072a3.144 3.144 0 0 1 1.246-1.358c.542-.318 1.181-.476 1.918-.476.682 0 1.27.144 1.764.434.495.289.878.7 1.148 1.232.271.532.406 1.162.406 1.89 0 .793-.144 1.488-.434 2.086a3.286 3.286 0 0 1-1.218 1.372c-.522.317-1.143.476-1.862.476Zm.196-.854c.411 0 .756-.103 1.036-.308.28-.215.49-.528.63-.938.15-.411.224-.91.224-1.498 0-.486-.051-.915-.154-1.288a2.76 2.76 0 0 0-.42-.966 1.79 1.79 0 0 0-.658-.616 1.836 1.836 0 0 0-.882-.21c-.42 0-.774.102-1.064.308-.289.205-.513.504-.672.896-.149.392-.224.882-.224 1.47 0 .662.089 1.227.266 1.694.178.466.43.826.756 1.078.327.252.714.378 1.162.378Zm4.595.658v-.658l.672-.126c.149-.028.247-.084.294-.168.046-.094.07-.262.07-.504v-3.948c0-.327-.028-.546-.084-.658-.056-.112-.187-.182-.392-.21l-.686-.098.084-.672 1.904-.154.168.098.154 1.26h.042c.27-.476.583-.836.938-1.078a1.941 1.941 0 0 1 1.148-.378c.438 0 .788.121 1.05.364.261.242.392.564.392.966 0 .242-.038.448-.112.616a.746.746 0 0 1-.308.364.991.991 0 0 1-.518.126c-.262 0-.467-.052-.616-.154a.56.56 0 0 1-.21-.462c0-.075.009-.15.028-.224.018-.075.046-.159.084-.252.046-.103.098-.215.154-.336a.81.81 0 0 0-.644-.042c-.224.065-.434.2-.63.406a2.352 2.352 0 0 0-.462.728c-.122.28-.182.578-.182.896v2.87c0 .224.018.378.056.462.046.074.144.121.294.14l1.204.182v.644h-3.892Zm6.617 0v-.658l.672-.126c.149-.028.247-.084.294-.168.046-.094.07-.262.07-.504v-3.948c0-.327-.028-.546-.084-.658-.056-.112-.187-.182-.392-.21l-.686-.098.084-.672 1.904-.154.168.098.154 1.26h.042c.27-.476.583-.836.938-1.078a1.941 1.941 0 0 1 1.148-.378c.438 0 .788.121 1.05.364.261.242.392.564.392.966 0 .242-.038.448-.112.616a.746.746 0 0 1-.308.364.991.991 0 0 1-.518.126c-.262 0-.467-.052-.616-.154a.56.56 0 0 1-.21-.462c0-.075.009-.15.028-.224.018-.075.046-.159.084-.252.046-.103.098-.215.154-.336a.81.81 0 0 0-.644-.042c-.224.065-.434.2-.63.406a2.352 2.352 0 0 0-.462.728c-.122.28-.182.578-.182.896v2.87c0 .224.018.378.056.462.046.074.144.121.294.14l1.204.182v.644h-3.892Zm7.429 3.22c-.439 0-.789-.103-1.05-.308-.261-.196-.392-.467-.392-.812 0-.271.084-.495.252-.672a.891.891 0 0 1 .658-.266c.215 0 .387.046.518.14a.52.52 0 0 1 .224.378c.009.056.009.149 0 .28a5.48 5.48 0 0 1-.07.518.944.944 0 0 0 .532-.126c.159-.094.313-.271.462-.532.159-.252.341-.621.546-1.106l.35-.798-2.324-5.516c-.112-.28-.205-.458-.28-.532-.065-.084-.173-.145-.322-.182l-.49-.112.126-.672h3.332v.63l-.672.098c-.168.018-.28.074-.336.168-.056.093-.033.27.07.532l1.568 3.948h.07l1.568-3.85c.093-.215.112-.383.056-.504-.047-.122-.173-.206-.378-.252l-.616-.14.14-.63h2.898v.644l-.518.112a.734.734 0 0 0-.35.182c-.075.084-.177.275-.308.574l-2.688 6.356a7.886 7.886 0 0 1-.588 1.162 3.253 3.253 0 0 1-.588.756 1.841 1.841 0 0 1-.644.406 2.14 2.14 0 0 1-.756.126Zm6.823-.868-.392-.504c.28-.224.504-.439.672-.644.177-.196.308-.397.392-.602.084-.196.135-.397.154-.602h-.336c-.215 0-.387-.028-.518-.084a.705.705 0 0 1-.28-.266.997.997 0 0 1-.084-.42c0-.299.093-.546.28-.742.187-.196.434-.294.742-.294.411 0 .709.14.896.42.196.27.294.588.294.952 0 .27-.065.578-.196.924a3.57 3.57 0 0 1-.602 1.008 3.878 3.878 0 0 1-1.022.854Zm9.258-2.156c-.41 0-.756-.075-1.036-.224a1.438 1.438 0 0 1-.616-.686c-.13-.308-.196-.7-.196-1.176v-4.34h-1.106v-.714c.327-.028.598-.126.812-.294.215-.178.383-.444.504-.798.122-.364.201-.831.238-1.4l.672-.084.182.084v2.338h2.17v.868h-2.17v4.242c0 .392.08.686.238.882.168.186.42.28.756.28.243 0 .472-.038.686-.112a2.95 2.95 0 0 0 .658-.336l.308.49c-.298.317-.63.56-.994.728a2.551 2.551 0 0 1-1.106.252Zm2.945-.196v-.644l.644-.126c.159-.028.261-.089.308-.182.056-.094.084-.257.084-.49v-7.588c0-.327-.037-.537-.112-.63-.065-.103-.229-.173-.49-.21l-.616-.098.084-.686 2.282-.07.154.154v4.578c.215-.392.537-.705.966-.938a2.741 2.741 0 0 1 1.372-.364c.495 0 .91.093 1.246.28.336.177.593.443.77.798.177.354.266.793.266 1.316v3.57c0 .205.023.345.07.42.047.065.168.116.364.154l.658.112v.644h-3.43v-.63l.616-.112c.177-.038.289-.094.336-.168.056-.075.084-.215.084-.42v-3.178c0-.439-.047-.789-.14-1.05-.084-.262-.229-.448-.434-.56-.205-.122-.481-.182-.826-.182-.383 0-.719.079-1.008.238a1.64 1.64 0 0 0-.672.686c-.159.289-.238.63-.238 1.022v2.968c0 .205.023.35.07.434.047.084.14.14.28.168l.742.154v.63h-3.43Zm9.046 0v-.672l.798-.126c.186-.028.303-.089.35-.182.056-.094.084-.271.084-.532v-3.85c0-.336-.033-.56-.098-.672-.056-.112-.192-.182-.406-.21l-.672-.098.098-.686 2.212-.112.168.07v5.614c0 .177.023.322.07.434.046.112.172.186.378.224l.784.14v.658h-3.766Zm1.68-8.68a.937.937 0 0 1-.672-.252.91.91 0 0 1-.266-.672.907.907 0 0 1 .938-.938c.28 0 .508.088.686.266a.866.866 0 0 1 .266.658c0 .27-.089.494-.266.672a.93.93 0 0 1-.686.266Zm3.332 8.876-.224-2.408.77-.056c.131.364.289.667.476.91.187.242.406.424.658.546.252.121.527.182.826.182.42 0 .747-.103.98-.308.233-.215.35-.509.35-.882a.849.849 0 0 0-.154-.518c-.093-.14-.261-.266-.504-.378a5.42 5.42 0 0 0-.98-.35 7.198 7.198 0 0 1-1.05-.364 2.76 2.76 0 0 1-.7-.462 1.616 1.616 0 0 1-.392-.56 2.248 2.248 0 0 1-.112-.742c0-.43.098-.798.294-1.106.196-.318.476-.56.84-.728.364-.178.789-.266 1.274-.266.289 0 .574.046.854.14.289.084.518.196.686.336l.112-.476h.602l.182 2.282-.784-.07c-.093-.448-.289-.803-.588-1.064a1.495 1.495 0 0 0-1.036-.406c-.401 0-.714.088-.938.266-.224.177-.336.429-.336.756 0 .205.047.378.14.518.103.14.271.266.504.378.243.112.569.228.98.35a6.9 6.9 0 0 1 1.05.392c.289.13.523.28.7.448.177.168.308.359.392.574.084.214.126.462.126.742 0 .457-.107.863-.322 1.218a2.252 2.252 0 0 1-.882.812c-.373.196-.812.294-1.316.294-.364 0-.7-.042-1.008-.126a2.196 2.196 0 0 1-.742-.35l-.154.476h-.574Zm8.699 2.828v-.658l.672-.112a.41.41 0 0 0 .308-.182c.065-.094.098-.252.098-.476v-6.986c0-.355-.033-.588-.098-.7-.066-.112-.206-.182-.42-.21l-.644-.084.112-.672 1.932-.14.182.084.084 1.26h.042c.224-.336.462-.607.714-.812.252-.215.527-.374.826-.476.308-.103.639-.154.994-.154.569 0 1.054.14 1.456.42.401.28.709.681.924 1.204.224.522.336 1.148.336 1.876 0 .84-.131 1.558-.392 2.156-.252.597-.626 1.054-1.12 1.372-.486.308-1.074.462-1.764.462-.346 0-.691-.042-1.036-.126a2.711 2.711 0 0 1-.826-.336v1.82c0 .224.032.387.098.49.065.102.182.168.35.196l.854.14v.644h-3.682Zm4.144-3.738c.41 0 .76-.112 1.05-.336.298-.234.522-.565.672-.994.158-.43.238-.948.238-1.554 0-.607-.066-1.111-.196-1.512-.131-.402-.327-.7-.588-.896-.252-.206-.574-.308-.966-.308-.411 0-.766.084-1.064.252-.29.168-.514.406-.672.714-.159.298-.238.662-.238 1.092v2.94c.186.177.443.322.77.434.336.112.667.168.994.168Zm6.708.91c-.588 0-1.064-.173-1.428-.518-.354-.346-.532-.803-.532-1.372 0-.514.126-.929.378-1.246.262-.318.686-.556 1.274-.714.588-.168 1.377-.276 2.366-.322v-.966c0-.383-.056-.696-.168-.938a1.01 1.01 0 0 0-.49-.532c-.214-.122-.499-.182-.854-.182-.252 0-.504.042-.756.126-.242.074-.424.172-.546.294.094.14.168.261.224.364.056.102.094.191.112.266a.438.438 0 0 1 .042.168.556.556 0 0 1-.224.448.784.784 0 0 1-.532.182c-.252 0-.448-.061-.588-.182-.14-.131-.21-.313-.21-.546 0-.327.122-.626.364-.896.252-.28.579-.504.98-.672a3.48 3.48 0 0 1 1.33-.252c.588 0 1.074.093 1.456.28.392.177.682.452.868.826.196.373.294.844.294 1.414v3.388c0 .205.052.359.154.462.112.102.271.154.476.154.103 0 .206-.01.308-.028.103-.019.22-.047.35-.084l.14.518a2.064 2.064 0 0 1-.616.392 1.612 1.612 0 0 1-.672.168c-.401 0-.714-.103-.938-.308-.214-.215-.345-.528-.392-.938-.177.28-.373.513-.588.7a2.363 2.363 0 0 1-.714.406 2.57 2.57 0 0 1-.868.14Zm.532-.952c.29 0 .546-.066.77-.196.234-.131.416-.308.546-.532.14-.224.21-.476.21-.756v-1.022c-.597 0-1.096.051-1.498.154-.392.102-.686.261-.882.476-.186.205-.28.466-.28.784 0 .336.103.602.308.798.206.196.481.294.826.294Zm7.883 3.976a7.79 7.79 0 0 1-1.4-.112 3.385 3.385 0 0 1-1.008-.336 1.61 1.61 0 0 1-.602-.532 1.424 1.424 0 0 1-.196-.756c0-.234.042-.448.126-.644.093-.187.233-.36.42-.518.196-.159.443-.304.742-.434v-.056a1.19 1.19 0 0 1-.602-.42 1.103 1.103 0 0 1-.224-.658 1.4 1.4 0 0 1 .182-.7c.131-.224.373-.523.728-.896v-.042a1.835 1.835 0 0 1-.784-.742c-.168-.327-.252-.719-.252-1.176 0-.504.117-.943.35-1.316a2.39 2.39 0 0 1 1.022-.868c.439-.206.947-.308 1.526-.308a4.11 4.11 0 0 1 1.274.21c.205.065.387.149.546.252.149-.42.35-.742.602-.966.252-.234.537-.35.854-.35.187 0 .35.032.49.098.14.065.247.154.322.266a.575.575 0 0 1 .126.378.75.75 0 0 1-.238.546.769.769 0 0 1-.56.238.55.55 0 0 1-.322-.098.8.8 0 0 1-.238-.28l-.14-.308c-.084.13-.159.266-.224.406-.056.13-.117.289-.182.476.177.205.308.443.392.714.093.261.14.541.14.84 0 .494-.117.924-.35 1.288-.233.364-.56.648-.98.854-.42.196-.919.294-1.498.294a5.2 5.2 0 0 1-.644-.042 2.842 2.842 0 0 1-.504-.098 2.53 2.53 0 0 0-.35.462.789.789 0 0 0-.098.378c0 .13.033.242.098.336a.56.56 0 0 0 .308.182c.149.037.345.056.588.056h1.792c.859 0 1.484.144 1.876.434.401.289.602.746.602 1.372 0 .326-.056.62-.168.882-.103.27-.257.508-.462.714a2.505 2.505 0 0 1-.756.532 4.001 4.001 0 0 1-1.036.336 6.95 6.95 0 0 1-1.288.112Zm.112-.868c.476 0 .882-.056 1.218-.168.345-.112.607-.271.784-.476.187-.196.28-.439.28-.728 0-.29-.112-.509-.336-.658-.215-.14-.541-.21-.98-.21h-2.352a1.802 1.802 0 0 0-.49.518 1.36 1.36 0 0 0-.154.644c0 .382.154.658.462.826.317.168.84.252 1.568.252Zm-.098-5.516c.495 0 .873-.145 1.134-.434.261-.299.392-.71.392-1.232 0-.56-.14-.994-.42-1.302-.28-.308-.677-.462-1.19-.462-.485 0-.854.144-1.106.434-.243.289-.364.718-.364 1.288 0 .513.14.928.42 1.246.28.308.658.462 1.134.462Zm7.953 3.36c-.681 0-1.274-.15-1.778-.448a3.089 3.089 0 0 1-1.162-1.274c-.27-.551-.406-1.195-.406-1.932 0-.775.14-1.447.42-2.016a3.246 3.246 0 0 1 1.204-1.344c.514-.318 1.111-.476 1.792-.476.514 0 .962.102 1.344.308.392.205.696.494.91.868.215.373.322.807.322 1.302 0 .196-.018.41-.056.644a5.53 5.53 0 0 1-.14.714h-4.382c.019.541.122 1.012.308 1.414.187.392.444.69.77.896.336.205.728.308 1.176.308.355 0 .7-.075 1.036-.224.336-.15.635-.355.896-.616l.49.476a3.364 3.364 0 0 1-1.218 1.036 3.433 3.433 0 0 1-1.526.364Zm-1.932-4.424h3.22c.019-.094.028-.192.028-.294.01-.112.014-.229.014-.35 0-.56-.121-.98-.364-1.26-.233-.29-.583-.434-1.05-.434-.354 0-.662.088-.924.266-.252.177-.457.438-.616.784-.158.345-.261.774-.308 1.288Zm11.519 4.424c-.597 0-1.111-.14-1.54-.42-.429-.28-.761-.682-.994-1.204-.224-.532-.336-1.167-.336-1.904 0-.812.14-1.512.42-2.1.28-.598.672-1.055 1.176-1.372.513-.327 1.12-.49 1.82-.49.308 0 .616.042.924.126.317.084.583.196.798.336v-2.198c0-.327-.037-.537-.112-.63-.065-.103-.229-.173-.49-.21l-.616-.098.084-.686 2.282-.07.154.154v9.212c0 .224.028.378.084.462.065.074.191.13.378.168l.686.126v.644l-2.156.084-.196-1.106h-.042c-.205.261-.429.48-.672.658a2.57 2.57 0 0 1-.77.378 2.7 2.7 0 0 1-.882.14Zm.406-.994c.373 0 .695-.089.966-.266.28-.187.499-.439.658-.756.159-.327.238-.7.238-1.12v-2.856a2.58 2.58 0 0 0-.812-.434 2.856 2.856 0 0 0-.938-.154c-.448 0-.821.112-1.12.336-.289.214-.509.536-.658.966-.149.429-.224.966-.224 1.61 0 .569.07 1.054.21 1.456.149.401.364.704.644.91.289.205.635.308 1.036.308Zm8.561.994c-.69 0-1.292-.145-1.806-.434a3.066 3.066 0 0 1-1.19-1.246c-.27-.542-.406-1.176-.406-1.904 0-.803.145-1.494.434-2.072a3.144 3.144 0 0 1 1.246-1.358c.542-.318 1.181-.476 1.918-.476.682 0 1.27.144 1.764.434.495.289.878.7 1.148 1.232.271.532.406 1.162.406 1.89 0 .793-.144 1.488-.434 2.086a3.286 3.286 0 0 1-1.218 1.372c-.522.317-1.143.476-1.862.476Zm.196-.854c.411 0 .756-.103 1.036-.308.28-.215.49-.528.63-.938.15-.411.224-.91.224-1.498 0-.486-.051-.915-.154-1.288a2.76 2.76 0 0 0-.42-.966 1.79 1.79 0 0 0-.658-.616 1.836 1.836 0 0 0-.882-.21c-.42 0-.774.102-1.064.308-.289.205-.513.504-.672.896-.149.392-.224.882-.224 1.47 0 .662.089 1.227.266 1.694.178.466.43.826.756 1.078.327.252.714.378 1.162.378Zm7.952.854c-.682 0-1.274-.15-1.778-.448a3.082 3.082 0 0 1-1.162-1.274c-.271-.551-.406-1.195-.406-1.932 0-.775.14-1.447.42-2.016a3.233 3.233 0 0 1 1.204-1.344c.513-.318 1.11-.476 1.792-.476.513 0 .961.102 1.344.308.392.205.695.494.91.868.214.373.322.807.322 1.302 0 .196-.019.41-.056.644a5.706 5.706 0 0 1-.14.714h-4.382c.018.541.121 1.012.308 1.414.186.392.443.69.77.896.336.205.728.308 1.176.308.354 0 .7-.075 1.036-.224a2.98 2.98 0 0 0 .896-.616l.49.476a3.38 3.38 0 0 1-1.218 1.036 3.44 3.44 0 0 1-1.526.364Zm-1.932-4.424h3.22a1.56 1.56 0 0 0 .028-.294c.009-.112.014-.229.014-.35 0-.56-.122-.98-.364-1.26-.234-.29-.584-.434-1.05-.434a1.6 1.6 0 0 0-.924.266c-.252.177-.458.438-.616.784-.159.345-.262.774-.308 1.288Zm5.906 4.424-.224-2.408.77-.056c.131.364.29.667.476.91.187.242.406.424.658.546.252.121.528.182.826.182.42 0 .747-.103.98-.308.234-.215.35-.509.35-.882a.849.849 0 0 0-.154-.518c-.093-.14-.261-.266-.504-.378a5.392 5.392 0 0 0-.98-.35 7.283 7.283 0 0 1-1.05-.364 2.777 2.777 0 0 1-.7-.462 1.616 1.616 0 0 1-.392-.56 2.274 2.274 0 0 1-.112-.742c0-.43.098-.798.294-1.106.196-.318.476-.56.84-.728.364-.178.789-.266 1.274-.266.29 0 .574.046.854.14.29.084.518.196.686.336l.112-.476h.602l.182 2.282-.784-.07c-.093-.448-.289-.803-.588-1.064a1.494 1.494 0 0 0-1.036-.406c-.401 0-.714.088-.938.266-.224.177-.336.429-.336.756 0 .205.047.378.14.518.103.14.271.266.504.378.243.112.57.228.98.35a6.9 6.9 0 0 1 1.05.392c.29.13.523.28.7.448.178.168.308.359.392.574.084.214.126.462.126.742 0 .457-.107.863-.322 1.218a2.238 2.238 0 0 1-.882.812c-.373.196-.812.294-1.316.294-.364 0-.7-.042-1.008-.126a2.205 2.205 0 0 1-.742-.35l-.154.476h-.574Zm6.19-.196v-.644l.672-.126c.15-.028.248-.084.294-.168.047-.094.07-.262.07-.504v-3.976c0-.336-.028-.556-.084-.658-.056-.112-.186-.182-.392-.21l-.686-.098.084-.658 1.96-.154.168.098.098 1.246h.042a2.866 2.866 0 0 1 1.036-1.05 2.76 2.76 0 0 1 1.414-.392c.495 0 .91.093 1.246.28.336.177.593.443.77.798.178.354.266.793.266 1.316v3.57c0 .205.028.345.084.42.056.074.173.126.35.154l.658.112v.644h-3.43v-.63l.616-.112c.178-.038.29-.094.336-.168.056-.075.084-.215.084-.42v-3.178c0-.439-.046-.789-.14-1.05-.084-.262-.228-.448-.434-.56-.205-.122-.48-.182-.826-.182-.382 0-.718.079-1.008.238a1.64 1.64 0 0 0-.672.686 2.1 2.1 0 0 0-.238 1.022v2.968c0 .205.024.35.07.434.047.084.14.14.28.168l.742.154v.63h-3.43Zm9.284-7.686-.364-2.212-.028-.14v-.126a.83.83 0 0 1 .196-.546c.131-.159.313-.238.546-.238.131 0 .261.046.392.14a.44.44 0 0 1 .196.378c0 .046-.005.102-.014.168a.808.808 0 0 1-.028.196l-.42 2.38h-.476Zm4.848 7.882c-.411 0-.756-.075-1.036-.224a1.433 1.433 0 0 1-.616-.686c-.131-.308-.196-.7-.196-1.176v-4.34h-1.106v-.714c.327-.028.597-.126.812-.294.215-.178.383-.444.504-.798.121-.364.201-.831.238-1.4l.672-.084.182.084v2.338h2.17v.868h-2.17v4.242c0 .392.079.686.238.882.168.186.42.28.756.28.243 0 .471-.038.686-.112a2.95 2.95 0 0 0 .658-.336l.308.49c-.299.317-.63.56-.994.728a2.554 2.554 0 0 1-1.106.252Zm8.967 0c-.681 0-1.274-.15-1.778-.448a3.089 3.089 0 0 1-1.162-1.274c-.27-.551-.406-1.195-.406-1.932 0-.775.14-1.447.42-2.016a3.246 3.246 0 0 1 1.204-1.344c.514-.318 1.111-.476 1.792-.476.514 0 .962.102 1.344.308.392.205.696.494.91.868.215.373.322.807.322 1.302 0 .196-.018.41-.056.644a5.53 5.53 0 0 1-.14.714h-4.382c.019.541.122 1.012.308 1.414.187.392.444.69.77.896.336.205.728.308 1.176.308.355 0 .7-.075 1.036-.224.336-.15.635-.355.896-.616l.49.476a3.364 3.364 0 0 1-1.218 1.036 3.433 3.433 0 0 1-1.526.364Zm-1.932-4.424h3.22c.019-.094.028-.192.028-.294.01-.112.014-.229.014-.35 0-.56-.121-.98-.364-1.26-.233-.29-.583-.434-1.05-.434-.354 0-.662.088-.924.266-.252.177-.457.438-.616.784-.158.345-.261.774-.308 1.288Zm5.314 4.228v-.644l.532-.112c.103-.028.192-.056.266-.084.075-.038.159-.094.252-.168.094-.084.21-.196.35-.336l1.694-2.114-1.764-2.198c-.196-.243-.345-.402-.448-.476-.093-.084-.238-.145-.434-.182l-.476-.112.126-.672h3.374v.63l-.574.098c-.149.028-.242.084-.28.168-.028.084.038.228.196.434l1.19 1.484 1.092-1.428c.15-.196.22-.332.21-.406-.009-.084-.121-.154-.336-.21l-.532-.14.14-.63h2.87v.644l-.546.112c-.112.028-.21.065-.294.112a1.044 1.044 0 0 0-.266.182 2.574 2.574 0 0 0-.308.35l-1.582 1.988 1.82 2.268c.122.149.229.27.322.364.103.093.206.168.308.224.103.046.215.079.336.098l.532.084v.672h-3.71v-.644l.63-.084c.187-.019.29-.08.308-.182.019-.112-.046-.257-.196-.434l-1.232-1.526-1.19 1.54c-.074.102-.13.191-.168.266-.028.065-.023.121.014.168a.661.661 0 0 0 .266.126l.616.14v.63h-3.108Zm8.378 0v-.672l.798-.126c.186-.028.303-.089.35-.182.056-.094.084-.271.084-.532v-3.85c0-.336-.033-.56-.098-.672-.056-.112-.192-.182-.406-.21l-.672-.098.098-.686 2.212-.112.168.07v5.614c0 .177.023.322.07.434.046.112.172.186.378.224l.784.14v.658H666.2Zm1.68-8.68a.937.937 0 0 1-.672-.252.91.91 0 0 1-.266-.672.907.907 0 0 1 .938-.938c.28 0 .508.088.686.266a.866.866 0 0 1 .266.658c0 .27-.089.494-.266.672a.93.93 0 0 1-.686.266Zm3.332 8.876-.224-2.408.77-.056c.13.364.289.667.476.91.186.242.406.424.658.546.252.121.527.182.826.182.42 0 .746-.103.98-.308.233-.215.35-.509.35-.882a.855.855 0 0 0-.154-.518c-.094-.14-.262-.266-.504-.378a5.449 5.449 0 0 0-.98-.35 7.198 7.198 0 0 1-1.05-.364 2.741 2.741 0 0 1-.7-.462 1.603 1.603 0 0 1-.392-.56 2.248 2.248 0 0 1-.112-.742c0-.43.098-.798.294-1.106.196-.318.476-.56.84-.728.364-.178.788-.266 1.274-.266.289 0 .574.046.854.14.289.084.518.196.686.336l.112-.476h.602l.182 2.282-.784-.07c-.094-.448-.29-.803-.588-1.064a1.495 1.495 0 0 0-1.036-.406c-.402 0-.714.088-.938.266-.224.177-.336.429-.336.756 0 .205.046.378.14.518.102.14.27.266.504.378.242.112.569.228.98.35.41.121.76.252 1.05.392.289.13.522.28.7.448.177.168.308.359.392.574.084.214.126.462.126.742 0 .457-.108.863-.322 1.218a2.252 2.252 0 0 1-.882.812c-.374.196-.812.294-1.316.294-.364 0-.7-.042-1.008-.126a2.196 2.196 0 0 1-.742-.35l-.154.476h-.574Zm8.755 0c-.411 0-.756-.075-1.036-.224a1.433 1.433 0 0 1-.616-.686c-.131-.308-.196-.7-.196-1.176v-4.34h-1.106v-.714c.327-.028.597-.126.812-.294.215-.178.383-.444.504-.798.121-.364.201-.831.238-1.4l.672-.084.182.084v2.338h2.17v.868h-2.17v4.242c0 .392.079.686.238.882.168.186.42.28.756.28.243 0 .471-.038.686-.112a2.95 2.95 0 0 0 .658-.336l.308.49c-.299.317-.63.56-.994.728a2.554 2.554 0 0 1-1.106.252Zm4.499.042a1.07 1.07 0 0 1-.77-.294c-.196-.196-.294-.448-.294-.756s.098-.56.294-.756c.205-.206.462-.308.77-.308.317 0 .574.098.77.294a1 1 0 0 1 .308.756c0 .308-.103.564-.308.77-.196.196-.453.294-.77.294Z" fill="#0B0858"/></svg>