<svg viewBox="0 0 41 45" fill="none" xmlns="http://www.w3.org/2000/svg"><g stroke="#000" stroke-width="1.5" stroke-linecap="round" stroke-linejoin="round"><path d="M18.5 15.875h19.114c1.054 0 1.581 0 1.892.34.308.34.267.878.187 1.949l-1.32 17.488c-.28 3.723-.42 5.585-1.621 6.715-1.199 1.133-3.03 1.133-6.694 1.133h-9.571c-3.661 0-5.493 0-6.694-1.133-1.78-1.683-1.494-5.093-1.668-7.367"/><path d="M18.5 15.684v11.59c0 3.642 0 5.46-1.245 6.596C16.01 35 14.008 35 10 35s-6.01 0-7.255-1.13C1.5 32.736 1.5 30.916 1.5 27.274V25.34c0-5.462 0-8.194 1.868-9.892C5.234 13.75 8.24 13.75 14.25 13.75h2.125c1 0 1.502 0 1.815.283.31.282.31.741.31 1.65Z"/><path d="M35.5 15.875C35.5 7.66 30.719 1 24.822 1c-5.38 0-9.832 5.542-10.572 12.75M1.5 26.5h17m0-2.125h19.125"/></g></svg>