<svg viewBox="0 0 51 52" fill="none" xmlns="http://www.w3.org/2000/svg"><g clip-path="url(#a)" fill="#000"><path d="M25.5 25.659c0 7.044-5.712 12.75-12.75 12.75S0 32.703 0 25.659c0-7.038 5.712-12.75 12.75-12.75s12.75 5.705 12.75 12.75Zm3.188 25.5a6.375 6.375 0 1 0 0-12.75 6.375 6.375 0 0 0 0 12.75ZM51 42.66a4.255 4.255 0 0 0-4.252 4.253h-2.123a4.255 4.255 0 0 0-4.252-4.252v-2.123a4.251 4.251 0 0 0 4.252-4.252h2.123A4.255 4.255 0 0 0 51 40.538v2.123Zm-36.127 4.246a2.123 2.123 0 1 0 0-4.245 2.123 2.123 0 0 0 0 4.245ZM2.123 12.909a2.123 2.123 0 1 0 0-4.246 2.123 2.123 0 0 0 0 4.246Zm11.692-4.253a3.188 3.188 0 1 0 0-6.375 3.188 3.188 0 0 0 0 6.375ZM8.498 47.971A3.185 3.185 0 0 1 5.31 51.16a3.189 3.189 0 1 1 3.188-3.188Z"/><path d="M33.998.159c-6.732 0-12.533 3.92-15.287 9.6 6.438 2.423 11.035 8.626 11.035 15.9 0 2.652-.625 5.157-1.715 7.4a16.86 16.86 0 0 0 5.967 1.097c9.39 0 17.002-7.611 17.002-16.995S43.388.159 33.998.159Zm8.504 17.002c0-4.699-3.8-8.498-8.498-8.498V4.41c7.045 0 12.75 5.705 12.75 12.75h-4.252Z"/></g><defs><clipPath id="a"><path fill="#fff" transform="translate(0 .159)" d="M0 0h51v51H0z"/></clipPath></defs></svg>