<svg viewBox="0 0 499 383" fill="none" xmlns="http://www.w3.org/2000/svg" xmlns:xlink="http://www.w3.org/1999/xlink"><path fill="#9D9D9D" d="M0 0h499v383H0z"/><g clip-path="url(#a)"><path fill="#F5F9FF" d="M-881-1129H719v4028H-881z"/><g clip-path="url(#b)"><path fill="#0F172A" d="M-881-140H719v913H-881z"/><g clip-path="url(#c)"><path transform="translate(.53)" fill="url(#d)" d="M0 0h498.47v382.677H0z"/><path transform="matrix(-1 0 0 1 439.914 0)" fill="url(#e)" d="M0 0h378.915v737.573H0z"/></g></g></g><defs><clipPath id="a"><path fill="#fff" transform="translate(-881 -1129)" d="M0 0h1600v4028H0z"/></clipPath><clipPath id="b"><path fill="#fff" transform="translate(-881 -140)" d="M0 0h1600v913H0z"/></clipPath><clipPath id="c"><path fill="#fff" transform="translate(.53)" d="M0 0h498.47v382.677H0z"/></clipPath><pattern id="d" patternContentUnits="objectBoundingBox" width="1" height="1"><use xlink:href="#image0_0_1" transform="matrix(.00052 0 0 .00068 0 -.453)"/></pattern><pattern id="e" patternContentUnits="objectBoundingBox" width="1" height="1"><use xlink:href="#image1_0_1" transform="matrix(.00104 0 0 .00053 -.044 0)"/></pattern></defs></svg>