<svg viewBox="0 0 19 28" fill="none" xmlns="http://www.w3.org/2000/svg"><g clip-path="url(#a)"><path d="M9.554 27.538c-.668-.934-1.34-1.853-1.99-2.788-1.824-2.63-3.723-5.214-5.438-7.917-1.69-2.661-2.484-5.595-1.77-8.795 1.076-4.815 5.85-8.16 10.518-7.39 5.179.857 8.726 5.347 8.16 10.482-.147 1.327-.55 2.656-1.03 3.907-.727 1.887-6.95 10.936-8.45 12.501ZM5.222 10.216c-.016 2.516 1.945 4.556 4.379 4.554 2.41-.002 4.37-1.988 4.39-4.454.019-2.518-1.932-4.547-4.378-4.552-2.407-.004-4.375 1.992-4.391 4.452Z" fill="#A1A1AA"/></g><defs><clipPath id="a"><path fill="#fff" transform="translate(0 .805)" d="M0 0h19v27H0z"/></clipPath></defs></svg>