<svg viewBox="0 0 27 29" fill="none" xmlns="http://www.w3.org/2000/svg"><path d="M19.968 28.54c-1.905-.007-3.643-.557-5.277-1.532-2.998-1.803-5.468-4.178-7.711-6.831-1.569-1.862-3.02-3.805-4.215-5.93-.901-1.613-1.664-3.277-2.074-5.094-.389-1.738-.345-3.445.344-5.102C2.15 1.354 4.407.027 7.273.071c.345.007.711.066 1.034.198.476.183.777.601.938 1.07.22.638.41 1.297.55 1.964.3 1.4.557 2.808.835 4.208.073.38-.03.696-.293.975-.337.359-.77.564-1.21.755-.38.16-.77.322-1.143.505-.469.235-.535.418-.454.931.146.946.608 1.767 1.033 2.595 1.378 2.697 3.342 4.874 5.827 6.59.367.256.719.542 1.107.762.858.484 1.297.352 1.833-.484.27-.433.564-.85.865-1.26.11-.147.27-.257.41-.375.315-.256.66-.3 1.048-.175 1.965.645 3.87 1.429 5.695 2.404 1.137.608 1.35.96 1.13 2.22-.433 2.449-1.753 4.237-4.09 5.205-.77.322-1.591.374-2.42.38Z" fill="#A1A1AA"/></svg>