<svg viewBox="0 0 48 52" fill="none" xmlns="http://www.w3.org/2000/svg"><g clip-path="url(#a)" fill="#38004D"><path d="M39.973 36.925H7.995c-8.187 0-10.617-11.156-4.797-11.156H44.77a3.063 3.063 0 0 1 2.478 1.195c2.319 2.948-.879 9.96-7.275 9.96Zm4.797-7.969H3.198c-.08.765.096 1.53.511 2.183a4.83 4.83 0 0 0 4.286 2.598h31.978a4.796 4.796 0 0 0 4.253-2.582 2.996 2.996 0 0 0 .544-2.199Zm-1.87-6.375a1.585 1.585 0 0 1-1.6-1.323 17.683 17.683 0 0 0-12.167-13.85c-.848-.239-1.36-1.115-1.12-1.96s1.12-1.355 1.967-1.115c.032.015.064.015.096.031a20.868 20.868 0 0 1 14.39 16.352c.144.86-.431 1.69-1.31 1.849-.08.016-.16.016-.257.016Z"/><path d="M43.171 28.956H4.797c-.88 0-1.6-.717-1.6-1.594v-3.187C3.167 15.09 9.083 7.058 17.798 4.38a1.598 1.598 0 0 1 2.014 1.036v.016a1.589 1.589 0 0 1-1.055 1.992 17.539 17.539 0 0 0-12.36 16.75v1.595H43.17c.88 0 1.6.717 1.6 1.593 0 .877-.72 1.594-1.6 1.594Z"/><path d="M27.182 17.8h-6.396a1.583 1.583 0 0 1-1.599-1.243L15.99 2.213A1.612 1.612 0 0 1 17.204.3c.128-.016.256-.032.384-.032H30.38a1.592 1.592 0 0 1 1.63 1.562c0 .128-.015.255-.031.383L28.78 16.557a1.583 1.583 0 0 1-1.6 1.243Zm-5.117-3.188h3.838L28.38 3.456h-8.794l2.478 11.156Zm-9.274 4.781c-.495 0-.975-.239-1.279-.637L6.716 12.38a1.595 1.595 0 0 1 .32-2.231 1.607 1.607 0 0 1 2.238.318l4.797 6.375a1.595 1.595 0 0 1-1.28 2.55Zm22.386 0c-.88 0-1.6-.717-1.6-1.593 0-.35.113-.686.32-.957l4.797-6.375a1.607 1.607 0 0 1 2.239-.318c.703.526.847 1.53.32 2.23l-4.797 6.376a1.6 1.6 0 0 1-1.28.637Zm-9.594 31.875h-3.198c-8.826 0-15.99-7.14-15.99-15.937a1.6 1.6 0 0 1 3.199 0c0 7.044 5.724 12.75 12.791 12.75h3.198c7.067 0 12.791-5.706 12.791-12.75 0-.877.72-1.594 1.6-1.594a1.6 1.6 0 0 1 1.598 1.594c0 8.797-7.163 15.937-15.989 15.937Z"/></g><defs><clipPath id="a"><path fill="#fff" transform="translate(0 .268)" d="M0 0h48v51H0z"/></clipPath></defs></svg>