<svg viewBox="0 0 282 199" fill="none" xmlns="http://www.w3.org/2000/svg"><path d="M78.823 111.96c.72-1.92.84-5.16 1.32-7.44 2.52-12.12 16.68-36.84-4.08-40.32-2.88-.48-5.88-.84-8.76-1.2 1.68 19.08-6.48 26.16-8.04 43.32-.12 3.36-.24 6.72 0 9.96 6.96.84 16.32 4.44 19.56-4.32Zm-27-59.04c6.96-.48 23.28-.84 29.52 1.32 9.96 3.48 16.8 13.8 15.96 24.48-.96 11.16-4.8 21.6-5.4 32.16-.6 8.52-6.48 16.2-15 17.76-1.92.36-3.72.48-5.64.72-6.6-.36-12.84-.72-19.44 0-9.12-38.16 10.2-48.12 0-76.44Zm48.851.36c15.6-1.2 28.56 1.56 42.84 0 1.2 4.56 1.92 8.64 2.4 13.32-10.2.6-19.8-2.04-30-3.36 1.32 12.48-1.44 18.12-5.16 29.4 6.96 1.68 12.48 4.8 19.44 6.6-1.08 3.48-1.8 6.6-2.16 10.2-6.72-1.44-13.2-3.72-19.92-5.04-.48 4.08-.6 7.8-.24 11.88 11.88 1.44 20.52 3.84 33 3.72.6 3.36 1.32 6.24 2.64 9.36-15.72 1.2-28.68-1.56-42.96 0-9.12-38.04 10.08-47.88.12-76.08Zm47.446 0c15.6-1.2 28.56 1.56 42.84 0 1.2 4.56 1.92 8.64 2.4 13.32-10.2.6-19.8-2.04-30-3.36 1.32 12.48-1.44 18.12-5.16 29.4 6.96 1.68 12.48 4.8 19.44 6.6-1.08 3.48-1.8 6.6-2.16 10.2-6.72-1.44-13.2-3.72-19.92-5.04-.48 4.08-.6 7.8-.24 11.88 11.88 1.44 20.52 3.84 33 3.72.6 3.36 1.32 6.24 2.64 9.36-15.72 1.2-28.68-1.56-42.96 0-9.12-38.04 10.08-47.88.12-76.08Zm73.005 39.96c4.44-3.72 6.84-16.68 4.68-21.84-3-6.84-8.52-7.32-14.88-8.04 1.44 12.84-1.32 18.12-5.28 29.88 5.4 1.56 10.2 4.56 15.48 0Zm-24.96-6.6c3.12-13.08 4.2-20.88-.6-33.72 7.92-.48 20.64-1.2 27.72 2.4 9.84 4.8 14.4 14.52 13.2 25.2-1.2 11.52-4.08 22.08-16.8 25.56-6.84 1.92-10.44.12-16.56-1.2-.96 8.64-.24 15.96 2.28 24.24-3.36-.12-6.48 0-9.84.24-4.2-16.44-3.24-26.64.6-42.72ZM15.898 148.909V178h-6.15v-29.091h6.15Zm6.997 16.477V178h-6.05v-21.818h5.766v3.849h.256a6.087 6.087 0 0 1 2.43-3.011c1.136-.748 2.513-1.122 4.133-1.122 1.515 0 2.836.331 3.963.994 1.127.663 2.002 1.61 2.627 2.841.625 1.222.938 2.68.938 4.375V178h-6.051v-12.812c.01-1.336-.331-2.377-1.023-3.126-.691-.757-1.643-1.136-2.855-1.136-.814 0-1.534.175-2.159.526-.616.35-1.099.861-1.449 1.534-.34.663-.516 1.463-.526 2.4Zm26.437-9.204v4.545H36.193v-4.545h13.14Zm-10.156-5.227h6.051v20.34c0 .559.085.995.256 1.307.17.303.407.516.71.639.313.124.672.185 1.08.185.284 0 .568-.024.852-.071.284-.057.502-.099.653-.128l.952 4.503c-.303.095-.73.204-1.278.327-.55.132-1.217.213-2.003.241-1.459.057-2.737-.137-3.835-.582-1.09-.445-1.937-1.136-2.543-2.074-.606-.937-.904-2.121-.895-3.551v-21.136Zm19.722 27.471c-2.207 0-4.115-.469-5.725-1.406-1.6-.947-2.836-2.263-3.707-3.949-.871-1.695-1.307-3.66-1.307-5.895 0-2.254.436-4.223 1.307-5.909.871-1.695 2.107-3.011 3.707-3.949 1.61-.947 3.518-1.42 5.725-1.42 2.206 0 4.11.473 5.71 1.42 1.61.938 2.85 2.254 3.721 3.949.872 1.686 1.307 3.655 1.307 5.909 0 2.235-.435 4.2-1.306 5.895-.872 1.686-2.112 3.002-3.722 3.949-1.6.937-3.504 1.406-5.71 1.406Zm.028-4.687c1.004 0 1.842-.284 2.514-.853.673-.577 1.18-1.363 1.52-2.358.35-.994.526-2.126.526-3.394 0-1.269-.175-2.401-.526-3.395-.34-.995-.847-1.781-1.52-2.358-.672-.578-1.51-.867-2.514-.867-1.013 0-1.866.289-2.557.867-.682.577-1.198 1.363-1.548 2.358-.34.994-.511 2.126-.511 3.395 0 1.268.17 2.4.511 3.394.35.995.866 1.781 1.548 2.358.691.569 1.544.853 2.557.853Zm25.76 4.687c-2.206 0-4.114-.469-5.724-1.406-1.6-.947-2.836-2.263-3.707-3.949-.871-1.695-1.307-3.66-1.307-5.895 0-2.254.436-4.223 1.307-5.909.871-1.695 2.107-3.011 3.707-3.949 1.61-.947 3.518-1.42 5.725-1.42 2.206 0 4.11.473 5.71 1.42 1.61.938 2.85 2.254 3.721 3.949.872 1.686 1.307 3.655 1.307 5.909 0 2.235-.435 4.2-1.306 5.895-.872 1.686-2.112 3.002-3.722 3.949-1.6.937-3.504 1.406-5.71 1.406Zm.03-4.687c1.003 0 1.841-.284 2.513-.853.673-.577 1.18-1.363 1.52-2.358.35-.994.526-2.126.526-3.394 0-1.269-.175-2.401-.526-3.395-.34-.995-.847-1.781-1.52-2.358-.672-.578-1.51-.867-2.514-.867-1.013 0-1.865.289-2.557.867-.681.577-1.198 1.363-1.548 2.358-.34.994-.511 2.126-.511 3.395 0 1.268.17 2.4.511 3.394.35.995.867 1.781 1.548 2.358.692.569 1.544.853 2.557.853Zm24.636-5.029v-12.528h6.051V178h-5.81v-3.963h-.227a6.445 6.445 0 0 1-2.458 3.082c-1.136.777-2.523 1.165-4.162 1.165-1.458 0-2.741-.331-3.849-.994s-1.975-1.605-2.6-2.827c-.615-1.222-.927-2.685-.937-4.389v-13.892h6.051v12.812c.01 1.288.355 2.306 1.037 3.054.682.748 1.596 1.122 2.742 1.122.729 0 1.411-.165 2.045-.497a3.91 3.91 0 0 0 1.534-1.505c.398-.663.592-1.482.583-2.458Zm6.891 9.29v-21.818h5.866v3.807h.228c.397-1.355 1.065-2.377 2.002-3.069.938-.7 2.017-1.051 3.239-1.051.303 0 .63.019.98.057.351.038.658.09.923.156v5.37a7.879 7.879 0 0 0-1.179-.228 10.622 10.622 0 0 0-1.377-.099c-.89 0-1.686.194-2.387.582a4.287 4.287 0 0 0-1.647 1.591c-.398.682-.597 1.468-.597 2.358V178h-6.051Zm33.52-20.724c-.114-1.146-.602-2.036-1.463-2.671-.862-.634-2.032-.952-3.509-.952-1.004 0-1.851.142-2.542.427-.692.274-1.222.658-1.591 1.15a2.77 2.77 0 0 0-.54 1.676c-.019.521.09.976.327 1.364.246.388.582.724 1.008 1.008.426.275.919.517 1.477.725.559.199 1.156.369 1.79.511l2.614.625c1.269.284 2.433.663 3.494 1.137 1.061.473 1.979 1.055 2.756 1.747a7.258 7.258 0 0 1 1.804 2.443c.435.937.658 2.012.667 3.224-.009 1.781-.464 3.324-1.363 4.631-.89 1.297-2.178 2.306-3.864 3.026-1.676.71-3.698 1.065-6.065 1.065-2.349 0-4.394-.36-6.137-1.08-1.733-.719-3.087-1.785-4.062-3.196-.966-1.42-1.473-3.177-1.52-5.27h5.952c.066.976.345 1.79.838 2.444.502.644 1.169 1.131 2.003 1.463.842.322 1.794.483 2.855.483 1.041 0 1.946-.152 2.713-.455.776-.303 1.378-.724 1.804-1.264a2.92 2.92 0 0 0 .639-1.861c0-.653-.194-1.203-.582-1.648-.379-.445-.938-.823-1.677-1.136-.729-.312-1.624-.597-2.684-.852l-3.168-.796c-2.452-.596-4.389-1.529-5.81-2.798-1.42-1.269-2.125-2.978-2.116-5.128-.009-1.761.459-3.3 1.406-4.616.957-1.317 2.268-2.344 3.935-3.083 1.667-.738 3.561-1.108 5.682-1.108 2.159 0 4.043.37 5.653 1.108 1.619.739 2.879 1.766 3.779 3.083.899 1.316 1.363 2.841 1.392 4.574h-5.895Zm16.259 21.15c-2.244 0-4.176-.454-5.795-1.364-1.61-.918-2.851-2.215-3.722-3.892-.871-1.685-1.307-3.679-1.307-5.98 0-2.244.436-4.214 1.307-5.909.871-1.695 2.097-3.016 3.679-3.963 1.591-.947 3.456-1.42 5.596-1.42 1.44 0 2.78.232 4.02.696a8.916 8.916 0 0 1 3.267 2.059c.938.919 1.667 2.074 2.188 3.466.521 1.383.781 3.002.781 4.858v1.662h-18.423v-3.75h12.727c0-.871-.189-1.643-.568-2.315a4.072 4.072 0 0 0-1.577-1.577c-.663-.388-1.434-.582-2.315-.582-.919 0-1.733.213-2.443.639-.701.417-1.25.98-1.648 1.69-.398.701-.601 1.482-.611 2.344v3.565c0 1.08.199 2.013.597 2.799.407.786.98 1.392 1.719 1.818.738.426 1.614.639 2.627.639.673 0 1.288-.095 1.847-.284a3.825 3.825 0 0 0 1.435-.852c.397-.379.7-.843.909-1.392l5.596.369a7.638 7.638 0 0 1-1.747 3.523c-.871.994-1.998 1.771-3.381 2.329-1.373.55-2.959.824-4.758.824Zm9.963-.426v-21.818h5.867v3.807h.227c.398-1.355 1.065-2.377 2.003-3.069.937-.7 2.017-1.051 3.238-1.051.303 0 .63.019.98.057.351.038.659.09.924.156v5.37a7.879 7.879 0 0 0-1.179-.228 10.636 10.636 0 0 0-1.378-.099c-.89 0-1.686.194-2.387.582a4.287 4.287 0 0 0-1.647 1.591c-.398.682-.597 1.468-.597 2.358V178h-6.051Zm33.372-21.818L201.729 178h-6.818l-7.628-21.818h6.392l4.532 15.611h.227l4.517-15.611h6.406ZM208.454 178v-21.818h6.051V178h-6.051Zm3.04-24.631c-.9 0-1.672-.298-2.316-.895-.634-.606-.951-1.33-.951-2.173 0-.833.317-1.548.951-2.145.644-.606 1.416-.909 2.316-.909.899 0 1.666.303 2.301.909.644.597.966 1.312.966 2.145 0 .843-.322 1.567-.966 2.173-.635.597-1.402.895-2.301.895Zm13.716 25.057c-2.235 0-4.157-.473-5.767-1.42-1.6-.957-2.831-2.283-3.693-3.978-.852-1.695-1.278-3.645-1.278-5.852 0-2.235.43-4.195 1.292-5.881.871-1.695 2.107-3.016 3.708-3.963 1.6-.956 3.503-1.434 5.71-1.434 1.903 0 3.57.345 5 1.037 1.43.691 2.561 1.662 3.395 2.912.833 1.25 1.292 2.717 1.377 4.403h-5.71c-.161-1.089-.587-1.965-1.278-2.628-.682-.672-1.577-1.008-2.685-1.008-.937 0-1.756.255-2.457.767-.691.502-1.231 1.235-1.62 2.201-.388.966-.582 2.136-.582 3.509 0 1.392.189 2.576.568 3.551.389.975.933 1.719 1.634 2.23.701.512 1.52.767 2.457.767.691 0 1.312-.142 1.861-.426a3.592 3.592 0 0 0 1.378-1.236c.369-.549.611-1.207.724-1.974h5.71c-.094 1.667-.549 3.134-1.363 4.403-.805 1.26-1.918 2.245-3.338 2.955-1.421.71-3.102 1.065-5.043 1.065Zm19.562 0c-2.244 0-4.176-.454-5.795-1.364-1.61-.918-2.851-2.215-3.722-3.892-.871-1.685-1.307-3.679-1.307-5.98 0-2.244.436-4.214 1.307-5.909.871-1.695 2.097-3.016 3.679-3.963 1.591-.947 3.456-1.42 5.596-1.42 1.44 0 2.78.232 4.02.696a8.916 8.916 0 0 1 3.267 2.059c.938.919 1.667 2.074 2.188 3.466.521 1.383.781 3.002.781 4.858v1.662h-18.423v-3.75h12.727c0-.871-.189-1.643-.568-2.315a4.072 4.072 0 0 0-1.577-1.577c-.663-.388-1.434-.582-2.315-.582-.919 0-1.733.213-2.443.639-.701.417-1.25.98-1.648 1.69-.398.701-.601 1.482-.611 2.344v3.565c0 1.08.199 2.013.597 2.799.407.786.98 1.392 1.719 1.818.738.426 1.614.639 2.627.639.673 0 1.288-.095 1.847-.284a3.825 3.825 0 0 0 1.435-.852c.397-.379.7-.843.909-1.392l5.596.369a7.638 7.638 0 0 1-1.747 3.523c-.871.994-1.998 1.771-3.381 2.329-1.373.55-2.959.824-4.758.824Zm28.116-16.023-5.539.341a2.875 2.875 0 0 0-.611-1.278 3.249 3.249 0 0 0-1.236-.923c-.502-.237-1.103-.355-1.804-.355-.937 0-1.728.198-2.372.596-.644.388-.966.909-.966 1.563 0 .52.208.961.625 1.321.417.359 1.132.648 2.145.866l3.949.796c2.121.435 3.702 1.136 4.744 2.102 1.042.966 1.563 2.235 1.563 3.807 0 1.43-.422 2.684-1.265 3.764-.833 1.079-1.979 1.922-3.437 2.528-1.449.597-3.12.895-5.014.895-2.889 0-5.19-.601-6.904-1.804-1.704-1.212-2.703-2.86-2.997-4.943l5.952-.313c.18.881.615 1.554 1.307 2.018.691.454 1.576.681 2.656.681 1.06 0 1.913-.203 2.557-.61.653-.417.985-.952.994-1.606-.009-.549-.241-.999-.696-1.349-.455-.36-1.155-.634-2.102-.824l-3.779-.753c-2.13-.426-3.717-1.164-4.758-2.216-1.032-1.051-1.548-2.391-1.548-4.019 0-1.402.378-2.609 1.136-3.623.767-1.013 1.842-1.794 3.224-2.343 1.392-.55 3.021-.824 4.887-.824 2.755 0 4.924.582 6.505 1.747 1.591 1.165 2.519 2.751 2.784 4.758Z" fill="#47E8EF"/></svg>