<svg viewBox="0 0 364 155" fill="none" xmlns="http://www.w3.org/2000/svg"><path d="M5.382 154.783c-7.718-28.179-6.613-55.355 0-82.47 4.77-19.496 8.23-39.053 3.379-59.082C7.86 9.504 6.754 5.838 5.607 1.64 7.573 1.23 9.068.616 10.52.636 25.405.923 40.35.534 55.153 1.824c25.551 2.212 45.37 28.733 41.193 53.983-3.542 21.442-7.084 42.884-10.748 64.285-3.706 21.626-19.144 34.343-42.095 34.65-12.57.164-25.12.041-38.122.041Zm30.69-133.442c3.297 24.042-6.08 44.829-12.059 66.352-2.006 7.23-3.234 14.786-3.787 22.261-1.372 18.206-1.126 18.206 16.87 20.869 13.206 1.945 20.658-3.769 23.463-16.957 2.232-10.465 5.549-20.705 8.046-31.129 2.723-11.304 6.204-22.588 7.248-34.056 1.208-13.25-6.982-22.22-19.962-24.596-6.06-1.106-12.202-1.72-19.819-2.744Z" fill="#0F172A"/><path d="M184.671 154.374H97.944c-1.372-12.513-4.177-25.169-3.808-37.743a249.24 249.24 0 0 1 5.733-46.222c4.995-22.732 8.087-45.095-.942-69.035 10.79 0 20.515-.062 30.219.02 16.973.144 33.925.512 50.898.492 3.808 0 5.999.655 6.572 4.894.942 6.963 2.354 13.844 3.644 21.217-20.74 2.6-39.739-4.424-60.356-5.612 2.968 20.459-3.46 38.829-10.196 57.772 13.042 4.792 25.592 9.4 38.47 14.151a8097.545 8097.545 0 0 1-4.484 20.111c-12.775-3.236-25.449-6.451-40.026-10.137 0 7.925-.205 14.642.205 21.339.061 1.106 2.825 2.744 4.483 2.949 19.082 2.437 38.184 4.567 57.266 7.004 1.801.225 4.381 1.659 4.913 3.154 1.741 4.853 2.723 10.034 4.136 15.646Z" fill="#0F172A"/><path d="M190.834 1.333c10.216 0 19.573-.062 28.909.02 17.198.164 34.396.512 51.593.512 3.85 0 5.938.799 6.532 4.956.962 6.779 2.354 13.516 3.726 21.073-20.699 2.765-39.904-4.32-60.521-5.611 2.969 20.459-3.234 38.87-10.155 57.854 12.837 4.71 25.408 9.318 38.327 14.048a8919.694 8919.694 0 0 1-4.074 20.295c-13.021-3.297-25.756-6.533-40.599-10.301 0 7.823-.308 14.356.245 20.807.123 1.372 3.358 3.318 5.344 3.584 19.081 2.478 38.204 4.587 57.285 7.004 1.577.205 3.809 1.659 4.279 3.031 1.7 4.935 2.764 10.096 4.279 15.912-15.437 0-30.424.021-45.431 0-11.916-.02-23.831-.369-35.726-.02-4.034.122-5.058-1.291-5.836-4.752-5.507-24.636-5.016-49.15.676-73.684 2.232-9.604 5.364-19.25 5.692-28.957.43-12.452-1.495-24.985-2.559-37.477-.205-2.437-1.126-4.792-1.986-8.294Z" fill="#0F172A"/><path d="M281.839 154.804c-5.507-20.828-7.902-41.163-3.849-61.847 2.293-11.694 4.832-23.326 7.412-34.958 4.156-18.78 3.869-37.334-2.969-55.171.573-.778.799-1.434 1.106-1.454 16.481-1.7 33.126-2.704 49.075 2.457 19.43 6.287 32.001 24.084 31.366 44.706-.327 10.629-1.843 21.606-5.098 31.682-7.227 22.445-27.435 32.971-50.55 27.872-3.521-.778-7.063-1.393-11.608-2.294 0 8.581-.512 16.342.143 24.022.655 7.7 2.457 15.319 3.87 23.756-6.02.369-12.059.778-18.898 1.229Zm32.206-131.968c-.84 10.3-.758 20.213-2.662 29.756-1.945 9.748-5.794 19.128-9.029 29.326 4.422 1.352 8.435 2.867 12.592 3.83 10.38 2.416 18.344-.717 22.705-10.424 3.03-6.758 5.036-14.315 5.794-21.667 2.088-20.561-8.538-31.354-29.4-30.821Z" fill="#0F172A"/></svg>