<svg viewBox="0 0 52 52" fill="none" xmlns="http://www.w3.org/2000/svg"><path d="M7.64 34.948a3.069 3.069 0 0 0-3.06 3.06 3.069 3.069 0 0 0 3.06 3.06 3.069 3.069 0 0 0 3.06-3.06 3.069 3.069 0 0 0-3.06-3.06Zm0 4.08c-.56 0-1.02-.459-1.02-1.02 0-.56.46-1.02 1.02-1.02.561 0 1.02.46 1.02 1.02 0 .561-.459 1.02-1.02 1.02Z" fill="#010101"/><path d="M51.5 24.748c0-4.6-2.56-8.619-6.345-10.71C43.921 6.154 37.108.268 29.06.268c-8.997 0-16.32 7.324-16.32 16.32 0 2.785.704 5.417 1.938 7.712l-11.74 9.302A6.501 6.501 0 0 0 .51 38.304a6.494 6.494 0 0 0 1.887 4.947 6.522 6.522 0 0 0 4.58 1.897c.122 0 .245 0 .367-.01a6.477 6.477 0 0 0 4.702-2.438l9.303-11.74a16.142 16.142 0 0 0 7.71 1.948c.378 0 .725-.01 1.062-.04.255.285.52.56.795.826a6.933 6.933 0 0 1 2.193 4.508 3.054 3.054 0 0 0-2.01 2.866c0 1.326.858 2.448 2.04 2.877v1.203a6.125 6.125 0 0 0 6.12 6.12 6.125 6.125 0 0 0 6.12-6.12v-1.203a3.05 3.05 0 0 0 2.04-2.877 3.068 3.068 0 0 0-2.009-2.866 6.945 6.945 0 0 1 2.183-4.508 12.235 12.235 0 0 0 3.907-8.946ZM10.455 41.436a4.428 4.428 0 0 1-3.223 1.662 4.446 4.446 0 0 1-3.387-1.295 4.475 4.475 0 0 1-1.295-3.387 4.463 4.463 0 0 1 1.663-3.223l11.566-9.16a16.69 16.69 0 0 0 3.836 3.836l-9.16 11.567Zm4.325-24.848c0-7.874 6.405-14.28 14.28-14.28 6.6 0 12.24 4.519 13.82 10.751a12.63 12.63 0 0 0-2.253-.469c-1.694-4.886-6.345-8.242-11.567-8.242-6.753 0-12.24 5.488-12.24 12.24a12.223 12.223 0 0 0 10.883 12.159c.255.724.571 1.438.949 2.101-7.68-.214-13.872-6.518-13.872-14.26Zm12.403 10.027a10.193 10.193 0 0 1-8.323-10.027c0-5.62 4.58-10.2 10.2-10.2 4.1 0 7.772 2.479 9.363 6.161-6.364.449-11.403 5.743-11.403 12.2 0 .632.061 1.244.163 1.866ZM43.34 45.148a4.079 4.079 0 0 1-4.08 4.08 4.079 4.079 0 0 1-4.08-4.08v-1.02h8.16v1.02Zm1.02-3.06h-10.2c-.561 0-1.02-.459-1.02-1.02 0-.56.459-1.02 1.02-1.02h10.2c.56 0 1.02.46 1.02 1.02 0 .561-.46 1.02-1.02 1.02Zm-8.16-15.3h-1.02c-.561 0-1.02-.459-1.02-1.02 0-.56.459-1.02 1.02-1.02.56 0 1.02.46 1.02 1.02v1.02Zm2.04 2.04h2.04v9.18h-2.04v-9.18Zm5.13 9.18h-1.05v-9.18h1.02a3.069 3.069 0 0 0 3.06-3.06 3.069 3.069 0 0 0-3.06-3.06 3.069 3.069 0 0 0-3.06 3.06v1.02h-2.04v-1.02a3.069 3.069 0 0 0-3.06-3.06 3.069 3.069 0 0 0-3.06 3.06 3.069 3.069 0 0 0 3.06 3.06h1.02v9.18h-1.05c-.184-2.182-1.194-4.263-2.836-5.803a10.182 10.182 0 0 1-3.254-7.457c0-5.61 4.58-10.19 10.2-10.2 5.63.01 10.2 4.59 10.2 10.2 0 2.826-1.183 5.539-3.254 7.457-1.652 1.54-2.662 3.62-2.836 5.803Zm-1.05-11.22v-1.02c0-.56.459-1.02 1.02-1.02.56 0 1.02.46 1.02 1.02 0 .561-.46 1.02-1.02 1.02h-1.02Z" fill="#010101"/></svg>