<svg width="94" height="22" fill="none" xmlns="http://www.w3.org/2000/svg"><path d="M9.987 3.094c2.59 0 2.896.01 3.92.056a5.4 5.4 0 0 1 1.8.332 3.212 3.212 0 0 1 1.841 1.833c.214.574.327 1.18.334 1.792.047 1.018.057 1.324.057 3.901 0 2.578-.01 2.883-.057 3.9a5.333 5.333 0 0 1-.334 1.794 3.196 3.196 0 0 1-1.84 1.832 5.405 5.405 0 0 1-1.802.332c-1.023.046-1.33.056-3.92.056s-2.896-.01-3.919-.056a5.405 5.405 0 0 1-1.801-.332 3.213 3.213 0 0 1-1.841-1.832 5.332 5.332 0 0 1-.334-1.793c-.046-1.018-.057-1.324-.057-3.9 0-2.578.01-2.884.057-3.902.007-.612.12-1.218.334-1.792a3.195 3.195 0 0 1 1.84-1.833 5.404 5.404 0 0 1 1.802-.332c1.023-.046 1.33-.056 3.92-.056Zm0-1.74c-2.633 0-2.965.012-4 .058a7.151 7.151 0 0 0-2.355.45 4.754 4.754 0 0 0-1.717 1.113 4.727 4.727 0 0 0-1.12 1.71 7.057 7.057 0 0 0-.45 2.344C.297 8.057.286 8.387.286 11.008c0 2.62.011 2.95.058 3.98.016.8.169 1.593.451 2.344a4.726 4.726 0 0 0 1.12 1.71c.484.49 1.07.87 1.717 1.113.754.281 1.55.433 2.356.449 1.034.046 1.364.058 3.998.058 2.635 0 2.965-.011 4-.058a7.153 7.153 0 0 0 2.355-.449 4.967 4.967 0 0 0 2.836-2.824c.282-.75.435-1.543.45-2.344.047-1.03.058-1.36.058-3.98s-.011-2.95-.058-3.98a7.056 7.056 0 0 0-.451-2.344 4.726 4.726 0 0 0-1.12-1.71A4.753 4.753 0 0 0 16.34 1.86a7.152 7.152 0 0 0-2.355-.449c-1.034-.045-1.366-.057-3.998-.057Z" fill="#485AFF"/><path d="M10.219 6.21a5 5 0 0 0-2.768.835A4.962 4.962 0 0 0 5.617 9.27a4.935 4.935 0 0 0 1.08 5.402 5.004 5.004 0 0 0 5.428 1.075 4.976 4.976 0 0 0 2.235-1.826 4.94 4.94 0 0 0-.62-6.26 4.993 4.993 0 0 0-3.52-1.451Zm0 8.175c-.64 0-1.265-.189-1.797-.543a3.221 3.221 0 0 1-1.19-1.444 3.203 3.203 0 0 1 .7-3.506 3.238 3.238 0 0 1 3.524-.698 3.23 3.23 0 0 1 1.451 1.185 3.207 3.207 0 0 1-.402 4.063 3.241 3.241 0 0 1-2.286.943Zm5.519-7.359c.643 0 1.164-.519 1.164-1.159s-.521-1.158-1.164-1.158c-.643 0-1.164.519-1.164 1.158 0 .64.521 1.159 1.164 1.159Z" fill="#485AFF"/><path d="M29.733 5.951v9.557h-2.31V5.951h2.31Zm3.732 5.47v4.087h-2.282V8.341h2.17v1.315h.08c.158-.438.428-.782.811-1.03.383-.253.839-.379 1.367-.379.504 0 .941.114 1.312.34.373.225.662.539.868.943.208.402.31.872.308 1.41v4.568h-2.282v-4.12c.003-.399-.098-.71-.304-.934-.202-.224-.483-.336-.844-.336-.24 0-.451.053-.635.16-.18.102-.32.25-.42.442a1.593 1.593 0 0 0-.15.7Zm12.304-.892-2.095.056a.782.782 0 0 0-.178-.397.955.955 0 0 0-.378-.275 1.288 1.288 0 0 0-.532-.103c-.264 0-.49.053-.676.16-.184.105-.274.248-.27.428a.458.458 0 0 0 .167.364c.118.103.328.185.63.248l1.381.261c.716.137 1.248.364 1.596.681.352.318.53.738.532 1.26a2.03 2.03 0 0 1-.438 1.284c-.287.363-.679.646-1.176.849-.498.199-1.067.298-1.708.298-1.024 0-1.831-.21-2.422-.63-.588-.423-.924-.989-1.008-1.698l2.254-.056a.88.88 0 0 0 .387.597c.209.137.475.206.798.206.292 0 .53-.055.714-.164.184-.109.277-.253.28-.434a.46.46 0 0 0-.215-.387c-.14-.1-.359-.177-.658-.233l-1.25-.238c-.719-.131-1.254-.372-1.605-.724-.352-.354-.526-.805-.523-1.353-.003-.479.124-.888.383-1.227.258-.342.625-.604 1.1-.784.477-.18 1.038-.27 1.685-.27.971 0 1.736.203 2.296.61.56.405.87.962.929 1.671Zm5.346-2.188v1.68h-4.521V8.34h4.521Zm-3.574-1.718h2.282v6.631c0 .14.022.254.065.34a.408.408 0 0 0 .2.183.853.853 0 0 0 .313.051c.087 0 .18-.008.276-.023.1-.019.174-.034.224-.047l.345 1.647a9.82 9.82 0 0 1-.462.117c-.196.047-.43.076-.704.089-.536.025-.994-.038-1.377-.187a1.786 1.786 0 0 1-.873-.71c-.199-.32-.295-.723-.289-1.208V6.623Zm6.76 9.006a3.07 3.07 0 0 1-1.219-.228 1.896 1.896 0 0 1-.835-.7c-.202-.314-.303-.708-.303-1.18 0-.399.07-.735.21-1.009.14-.274.332-.496.578-.667.246-.171.53-.3.85-.387.32-.09.662-.151 1.026-.182.408-.038.736-.077.985-.117.249-.044.43-.104.541-.182a.392.392 0 0 0 .173-.34v-.024c0-.24-.083-.425-.248-.555-.164-.13-.387-.196-.667-.196-.302 0-.544.065-.728.196a.863.863 0 0 0-.35.541l-2.104-.075c.062-.435.222-.824.48-1.166.262-.346.62-.616 1.074-.812.457-.2 1.006-.299 1.647-.299.457 0 .879.055 1.264.164.386.105.722.26 1.008.466.286.202.507.451.663.747a2.1 2.1 0 0 1 .238 1.012v4.872h-2.147v-.998h-.056c-.127.242-.29.447-.49.615a1.953 1.953 0 0 1-.695.378 2.954 2.954 0 0 1-.896.126Zm.704-1.493c.246 0 .466-.05.662-.15.2-.099.358-.236.476-.41.119-.177.178-.383.178-.616v-.681a1.355 1.355 0 0 1-.238.093c-.09.028-.19.055-.299.08-.109.024-.22.046-.336.065a21.53 21.53 0 0 1-.331.051 2.064 2.064 0 0 0-.55.159.87.87 0 0 0-.346.28.686.686 0 0 0-.117.401c0 .237.084.417.252.542.171.124.387.186.649.186Zm8.315 4.21c-.681 0-1.264-.096-1.75-.285-.485-.19-.866-.45-1.143-.78a2.158 2.158 0 0 1-.5-1.12l2.161-.121c.04.146.115.274.224.383.112.109.257.193.434.252.18.059.392.088.635.088.383 0 .698-.093.947-.28.252-.183.378-.505.378-.966v-1.26h-.08c-.09.221-.226.419-.41.593a1.947 1.947 0 0 1-.686.41c-.27.1-.581.15-.933.15a2.903 2.903 0 0 1-1.437-.364c-.433-.246-.78-.625-1.04-1.138-.259-.517-.388-1.181-.388-1.993 0-.837.134-1.526.401-2.067.268-.545.618-.948 1.05-1.209a2.683 2.683 0 0 1 1.405-.392c.376 0 .698.066.966.196.27.128.493.293.667.495.174.202.306.412.397.63h.065V8.34h2.272v7.195c0 .607-.152 1.118-.457 1.535-.305.417-.731.733-1.279.948-.547.217-1.18.326-1.899.326Zm.07-4.597c.277 0 .514-.073.71-.22a1.38 1.38 0 0 0 .452-.63 2.72 2.72 0 0 0 .159-.984 2.84 2.84 0 0 0-.159-1.003 1.395 1.395 0 0 0-.452-.654 1.12 1.12 0 0 0-.71-.228 1.12 1.12 0 0 0-.718.233 1.442 1.442 0 0 0-.448.658c-.1.28-.15.611-.15.994s.052.71.154.985c.103.273.25.483.444.63.196.146.435.219.718.219Zm5.02 1.76V8.34h2.217v1.306h.074c.131-.473.344-.824.64-1.055.295-.233.639-.35 1.03-.35.107 0 .216.008.328.024.112.012.216.033.312.06v1.984a2.18 2.18 0 0 0-.43-.089 3.8 3.8 0 0 0-.466-.033c-.27 0-.515.061-.732.182a1.307 1.307 0 0 0-.509.5c-.121.211-.182.46-.182.746v3.892H68.41Zm7.282.12a3.07 3.07 0 0 1-1.218-.228 1.897 1.897 0 0 1-.835-.7c-.202-.314-.303-.708-.303-1.18 0-.399.07-.735.21-1.009.14-.274.332-.496.578-.667.246-.171.529-.3.85-.387.32-.09.662-.151 1.026-.182.407-.038.736-.077.985-.117.249-.044.429-.104.54-.182a.392.392 0 0 0 .173-.34v-.024c0-.24-.082-.425-.247-.555-.165-.13-.387-.196-.667-.196-.302 0-.544.065-.728.196a.863.863 0 0 0-.35.541l-2.105-.075c.063-.435.223-.824.481-1.166.261-.346.62-.616 1.073-.812.458-.2 1.007-.299 1.648-.299.457 0 .878.055 1.264.164.386.105.722.26 1.008.466.286.202.507.451.663.747.158.295.238.633.238 1.012v4.872h-2.147v-.998h-.056c-.127.242-.29.447-.49.615a1.952 1.952 0 0 1-.695.378 2.955 2.955 0 0 1-.896.126Zm.705-1.493c.245 0 .466-.05.662-.15.2-.099.358-.236.476-.41.118-.177.178-.383.178-.616v-.681a1.357 1.357 0 0 1-.238.093 5.373 5.373 0 0 1-.635.145 21.53 21.53 0 0 1-.331.051 2.064 2.064 0 0 0-.551.159.87.87 0 0 0-.345.28.686.686 0 0 0-.117.401c0 .237.084.417.252.542.171.124.387.186.649.186Zm4.974 1.372V8.341h2.17v1.315h.08c.148-.435.4-.779.755-1.03.355-.253.778-.379 1.27-.379.497 0 .923.128 1.278.383s.58.597.677 1.026h.074c.134-.426.395-.766.784-1.022.39-.258.848-.387 1.377-.387.678 0 1.229.218 1.652.653.423.433.634 1.027.634 1.783v4.825H89.84v-4.302c0-.358-.091-.63-.275-.817a.95.95 0 0 0-.714-.285c-.314 0-.561.103-.742.308-.177.203-.266.475-.266.817v4.28H85.65v-4.327c0-.332-.09-.595-.27-.788-.181-.193-.419-.29-.715-.29a.965.965 0 0 0-.886.546c-.084.175-.126.38-.126.616v4.242H81.37Z" fill="#4455F0"/></svg>