<svg viewBox="0 0 1600 1416" fill="none" xmlns="http://www.w3.org/2000/svg" xmlns:xlink="http://www.w3.org/1999/xlink"><g clip-path="url(#a)"><path fill="#485AFF" d="M-442 843.558h2474v-843H-442z"/><path d="M2100.96 792.737V258.222L1265.4 792.737h835.56Z" fill="#0F172A" stroke="#fff" stroke-width="26"/></g><path fill="url(#b)" d="M-20.075 843.892h1202.78v571.666H-20.075z"/><path fill="url(#c)" d="M1179.23 843.892h437.273v571.666H1179.23z"/><path d="M1179.23 843.892h434.03v-37.266h-391.39l-42.64 37.266Z" fill="#5B6BFE"/><path fill="url(#d)" d="M322.209 31.294h1230.69v812.598H322.209z"/><defs><pattern id="b" patternContentUnits="objectBoundingBox" width="1" height="1"><use xlink:href="#image0_96_249" transform="matrix(.00083 0 0 .00175 -2.165 -.078)"/></pattern><pattern id="d" patternContentUnits="objectBoundingBox" width="1" height="1"><use xlink:href="#image1_96_249" transform="matrix(.0004 0 0 .0006 0 -.825)"/></pattern><linearGradient id="c" x1="1397.87" y1="843.892" x2="1397.87" y2="1415.56" gradientUnits="userSpaceOnUse"><stop stop-color="#3C4FFF"/><stop offset="1" stop-color="#242F99"/></linearGradient><clipPath id="a"><path fill="#fff" transform="matrix(1 0 0 -1 -442 843.558)" d="M0 0h2474v843H0z"/></clipPath></defs></svg>