<svg viewBox="0 0 48 51" fill="none" xmlns="http://www.w3.org/2000/svg"><path d="M39.972 36.656H7.994C-.193 36.656-2.623 25.5 3.197 25.5H44.77a3.063 3.063 0 0 1 2.479 1.195c2.318 2.949-.88 9.961-7.276 9.961Zm4.797-7.968H3.197c-.08.765.096 1.53.512 2.183a4.83 4.83 0 0 0 4.285 2.598h31.978a4.796 4.796 0 0 0 4.254-2.582 2.995 2.995 0 0 0 .543-2.2Zm-1.87-6.375a1.585 1.585 0 0 1-1.6-1.323A17.682 17.682 0 0 0 29.133 7.14c-.848-.239-1.36-1.115-1.12-1.96s1.12-1.355 1.967-1.116c.032.016.064.016.096.032a20.868 20.868 0 0 1 14.39 16.352c.144.86-.431 1.69-1.31 1.849-.08.016-.16.016-.256.016Z" fill="#000"/><path d="M43.17 28.688H4.796a1.6 1.6 0 0 1-1.599-1.594v-3.188C3.165 14.823 9.081 6.79 17.795 4.113a1.598 1.598 0 0 1 2.015 1.036v.016a1.589 1.589 0 0 1-1.055 1.992 17.539 17.539 0 0 0-12.36 16.75V25.5h36.776c.879 0 1.598.718 1.598 1.594 0 .877-.72 1.594-1.599 1.594Z" fill="#000"/><path d="M27.181 17.532h-6.396a1.583 1.583 0 0 1-1.599-1.244L15.99 1.945A1.612 1.612 0 0 1 17.204.032c.128-.016.255-.032.383-.032H30.38a1.59 1.59 0 0 1 1.63 1.562c0 .128-.015.255-.031.383L28.78 16.288c-.16.75-.832 1.26-1.599 1.244Zm-5.117-3.188h3.838L28.38 3.188h-8.794l2.478 11.156Zm-9.274 4.781c-.495 0-.975-.239-1.278-.637l-4.797-6.375a1.595 1.595 0 0 1 .32-2.231 1.607 1.607 0 0 1 2.238.318l4.797 6.375a1.595 1.595 0 0 1-1.28 2.55Zm22.386 0c-.88 0-1.6-.717-1.6-1.593 0-.351.113-.686.32-.957l4.797-6.375a1.607 1.607 0 0 1 2.239-.318c.703.525.847 1.53.32 2.23l-4.797 6.376a1.6 1.6 0 0 1-1.28.637ZM25.582 51h-3.198c-8.826 0-15.989-7.14-15.989-15.937 0-.877.72-1.594 1.599-1.594a1.6 1.6 0 0 1 1.599 1.594c0 7.044 5.724 12.75 12.791 12.75h3.198c7.068 0 12.792-5.706 12.792-12.75 0-.877.72-1.594 1.599-1.594s1.599.717 1.599 1.594C41.572 43.86 34.408 51 25.582 51Z" fill="#000"/></svg>