<svg width="20" height="20" fill="none" xmlns="http://www.w3.org/2000/svg"><path d="M9.987 2.094c2.59 0 2.896.01 3.92.056a5.4 5.4 0 0 1 1.8.332 3.212 3.212 0 0 1 1.841 1.833c.214.574.327 1.18.334 1.792.047 1.018.057 1.324.057 3.901 0 2.578-.01 2.883-.057 3.9a5.333 5.333 0 0 1-.334 1.794 3.196 3.196 0 0 1-1.84 1.832 5.405 5.405 0 0 1-1.802.332c-1.023.046-1.33.056-3.92.056s-2.896-.01-3.919-.056a5.405 5.405 0 0 1-1.801-.332 3.213 3.213 0 0 1-1.841-1.832 5.332 5.332 0 0 1-.334-1.793c-.046-1.018-.057-1.324-.057-3.9 0-2.578.01-2.884.057-3.902.007-.612.12-1.218.334-1.792a3.195 3.195 0 0 1 1.84-1.833 5.404 5.404 0 0 1 1.802-.332c1.023-.046 1.33-.056 3.92-.056Zm0-1.74c-2.633 0-2.965.012-4 .058a7.151 7.151 0 0 0-2.355.45 4.754 4.754 0 0 0-1.717 1.113 4.727 4.727 0 0 0-1.12 1.71 7.057 7.057 0 0 0-.45 2.344C.297 7.057.286 7.387.286 10.008c0 2.62.011 2.95.058 3.98.016.8.169 1.593.451 2.344a4.726 4.726 0 0 0 1.12 1.71c.484.49 1.07.87 1.717 1.113.754.281 1.55.433 2.356.449 1.034.046 1.364.058 3.998.058 2.635 0 2.965-.011 4-.058a7.153 7.153 0 0 0 2.355-.449 4.967 4.967 0 0 0 2.836-2.824c.282-.75.435-1.543.45-2.344.047-1.03.058-1.36.058-3.98s-.011-2.95-.058-3.98a7.056 7.056 0 0 0-.451-2.344 4.726 4.726 0 0 0-1.12-1.71A4.753 4.753 0 0 0 16.34.86a7.152 7.152 0 0 0-2.355-.449C12.95.366 12.619.354 9.987.354Z" fill="#485AFF"/><path d="M10.219 5.21a5 5 0 0 0-2.768.835A4.962 4.962 0 0 0 5.617 8.27a4.935 4.935 0 0 0 1.08 5.402 5.004 5.004 0 0 0 5.428 1.075 4.976 4.976 0 0 0 2.235-1.826 4.94 4.94 0 0 0-.62-6.26 4.993 4.993 0 0 0-3.52-1.451Zm0 8.175c-.64 0-1.265-.189-1.797-.543a3.221 3.221 0 0 1-1.19-1.444 3.203 3.203 0 0 1 .7-3.506 3.238 3.238 0 0 1 3.524-.698 3.23 3.23 0 0 1 1.451 1.185 3.207 3.207 0 0 1-.402 4.063 3.241 3.241 0 0 1-2.286.943Zm5.519-7.359c.643 0 1.164-.519 1.164-1.159s-.521-1.158-1.164-1.158c-.643 0-1.164.519-1.164 1.158 0 .64.521 1.159 1.164 1.159Z" fill="#485AFF"/></svg>