<svg viewBox="0 0 320 37" fill="none" xmlns="http://www.w3.org/2000/svg" xmlns:xlink="http://www.w3.org/1999/xlink"><g filter="url(#a)" clip-rule="evenodd"><path d="m-199.866 23.256 10.141-2.166c10.141-2.165 30.987-6.496 51.269-9.744 20.282-3.249 41.128-5.414 61.41-6.497 20.846-1.082 41.128-1.082 61.41 0 20.845 1.083 41.128 3.248 61.41 5.955 20.845 2.707 41.128 5.955 61.41 9.203 20.845 3.248 41.127 6.497 61.973 3.79 20.282-2.707 40.564-11.369 61.41-15.7 20.282-4.33 40.564-4.33 61.41-2.165 20.282 2.165 40.564 6.496 61.41 8.662 20.282 2.165 41.127 2.165 61.41 1.624 20.282-.541 41.127-1.624 51.268-2.166l10.141-.54V33h-676.072v-9.744Z"/><path fill-rule="evenodd" d="m-199.866 23.256 10.141-2.166c10.141-2.165 30.987-6.496 51.269-9.744 20.282-3.249 41.128-5.414 61.41-6.497 20.846-1.082 41.128-1.082 61.41 0 20.845 1.083 41.128 3.248 61.41 5.955 20.845 2.707 41.128 5.955 61.41 9.203 20.845 3.248 41.127 6.497 61.973 3.79 20.282-2.707 40.564-11.369 61.41-15.7 20.282-4.33 40.564-4.33 61.41-2.165 20.282 2.165 40.564 6.496 61.41 8.662 20.282 2.165 41.127 2.165 61.41 1.624 20.282-.541 41.127-1.624 51.268-2.166l10.141-.54V33h-676.072v-9.744Z" fill="url(#b)"/><path d="m-199.866 23.256 10.141-2.166c10.141-2.165 30.987-6.496 51.269-9.744 20.282-3.249 41.128-5.414 61.41-6.497 20.846-1.082 41.128-1.082 61.41 0 20.845 1.083 41.128 3.248 61.41 5.955 20.845 2.707 41.128 5.955 61.41 9.203 20.845 3.248 41.127 6.497 61.973 3.79 20.282-2.707 40.564-11.369 61.41-15.7 20.282-4.33 40.564-4.33 61.41-2.165 20.282 2.165 40.564 6.496 61.41 8.662 20.282 2.165 41.127 2.165 61.41 1.624 20.282-.541 41.127-1.624 51.268-2.166l10.141-.54V33h-676.072v-9.744Z" stroke="#000"/></g><defs><pattern id="b" patternContentUnits="objectBoundingBox" width="1" height="1"><use xlink:href="#image0_356_1115" transform="matrix(.00049 0 0 .0114 0 -5.66)"/></pattern><filter id="a" x="-203.053" y=".85" width="682.447" height="35.337" filterUnits="userSpaceOnUse" color-interpolation-filters="sRGB"><feFlood flood-opacity="0" result="BackgroundImageFix"/><feBlend in="SourceGraphic" in2="BackgroundImageFix" result="shape"/><feGaussianBlur stdDeviation="1.594" result="effect1_foregroundBlur_356_1115"/></filter></defs></svg>