<svg viewBox="0 0 320 28" fill="none" xmlns="http://www.w3.org/2000/svg" xmlns:xlink="http://www.w3.org/1999/xlink"><g filter="url(#a)" clip-rule="evenodd" shape-rendering="crispEdges"><path d="m-29.884 16.485 8.246-1.853c8.247-1.853 25.197-5.56 41.69-8.34C36.544 3.512 53.495 1.66 69.987.732c16.95-.926 33.443-.926 49.936 0 16.95.927 33.443 2.78 49.935 5.097 16.951 2.317 33.443 5.096 49.936 7.877 16.95 2.78 33.443 5.56 50.394 3.243 16.492-2.317 32.985-9.73 49.935-13.437 16.493-3.706 32.985-3.706 49.936-1.853 16.492 1.853 32.985 5.56 49.935 7.413 16.493 1.854 33.443 1.854 49.936 1.39 16.492-.463 33.443-1.39 41.689-1.853l8.246-.463v16.68H-29.884v-8.34Z"/><path fill-rule="evenodd" d="m-29.884 16.485 8.246-1.853c8.247-1.853 25.197-5.56 41.69-8.34C36.544 3.512 53.495 1.66 69.987.732c16.95-.926 33.443-.926 49.936 0 16.95.927 33.443 2.78 49.935 5.097 16.951 2.317 33.443 5.096 49.936 7.877 16.95 2.78 33.443 5.56 50.394 3.243 16.492-2.317 32.985-9.73 49.935-13.437 16.493-3.706 32.985-3.706 49.936-1.853 16.492 1.853 32.985 5.56 49.935 7.413 16.493 1.854 33.443 1.854 49.936 1.39 16.492-.463 33.443-1.39 41.689-1.853l8.246-.463v16.68H-29.884v-8.34Z" fill="url(#b)"/><path d="m-29.884 16.485 8.246-1.853c8.247-1.853 25.197-5.56 41.69-8.34C36.544 3.512 53.495 1.66 69.987.732c16.95-.926 33.443-.926 49.936 0 16.95.927 33.443 2.78 49.935 5.097 16.951 2.317 33.443 5.096 49.936 7.877 16.95 2.78 33.443 5.56 50.394 3.243 16.492-2.317 32.985-9.73 49.935-13.437 16.493-3.706 32.985-3.706 49.936-1.853 16.492 1.853 32.985 5.56 49.935 7.413 16.493 1.854 33.443 1.854 49.936 1.39 16.492-.463 33.443-1.39 41.689-1.853l8.246-.463v16.68H-29.884v-8.34Z" stroke="#000"/></g><defs><pattern id="b" patternContentUnits="objectBoundingBox" width="1" height="1"><use xlink:href="#image0_356_1116" transform="matrix(.00049 0 0 .01084 0 -5.353)"/></pattern><filter id="a" x="-31.246" y=".037" width="552.473" height="27.511" filterUnits="userSpaceOnUse" color-interpolation-filters="sRGB"><feFlood flood-opacity="0" result="BackgroundImageFix"/><feColorMatrix in="SourceAlpha" values="0 0 0 0 0 0 0 0 0 0 0 0 0 0 0 0 0 0 127 0" result="hardAlpha"/><feOffset dy="1.362"/><feGaussianBlur stdDeviation=".681"/><feComposite in2="hardAlpha" operator="out"/><feColorMatrix values="0 0 0 0 0 0 0 0 0 0 0 0 0 0 0 0 0 0 0.25 0"/><feBlend in2="BackgroundImageFix" result="effect1_dropShadow_356_1116"/><feBlend in="SourceGraphic" in2="effect1_dropShadow_356_1116" result="shape"/></filter></defs></svg>