<svg viewBox="0 0 52 52" fill="none" xmlns="http://www.w3.org/2000/svg"><path d="M23.5 19.143h19.114c1.054 0 1.581 0 1.892.34.308.34.267.878.187 1.95l-1.32 17.488c-.28 3.723-.42 5.584-1.621 6.715-1.199 1.132-3.03 1.132-6.694 1.132h-9.571c-3.661 0-5.493 0-6.694-1.132-1.78-1.683-1.494-5.094-1.668-7.368" stroke="#000" stroke-width="1.5" stroke-linecap="round" stroke-linejoin="round"/><path d="M23.5 18.952v11.59c0 3.642 0 5.461-1.245 6.596-1.245 1.13-3.247 1.13-7.255 1.13s-6.01 0-7.255-1.13C6.5 36.005 6.5 34.184 6.5 30.542v-1.934c0-5.461 0-8.194 1.868-9.892 1.866-1.698 4.873-1.698 10.882-1.698h2.125c1 0 1.502 0 1.815.283.31.283.31.742.31 1.651Z" stroke="#000" stroke-width="1.5" stroke-linecap="round" stroke-linejoin="round"/><path d="M40.5 19.143c0-8.215-4.781-14.875-10.678-14.875-5.38 0-9.832 5.542-10.572 12.75M6.5 29.768h17m0-2.125h19.125" stroke="#000" stroke-width="1.5" stroke-linecap="round" stroke-linejoin="round"/></svg>