<svg viewBox="0 0 50 50" fill="none" xmlns="http://www.w3.org/2000/svg"><g clip-path="url(#a)" fill="#010101"><path d="M37.377 19.757a9.853 9.853 0 0 0 9.565-2.543 9.833 9.833 0 0 0 2.364-10.171.98.98 0 0 0-.715-.646.965.965 0 0 0-.924.268l-4.569 4.57-3.685-.527-.526-3.685 4.569-4.57a.996.996 0 0 0 .268-.923 1 1 0 0 0-.646-.715 9.834 9.834 0 0 0-10.171 2.364c-2.583 2.582-3.427 6.258-2.543 9.566l-6.765 6.764-4.708-4.698 1.41-1.41a.99.99 0 0 0 0-1.402L10.34 2.027a5.971 5.971 0 0 0-8.434 0 5.971 5.971 0 0 0 0 8.433l9.954 9.953a.99.99 0 0 0 1.4 0l1.41-1.41 4.699 4.708-6.764 6.764c-3.308-.884-6.983-.04-9.566 2.543A9.834 9.834 0 0 0 .674 43.19c.228.685 1.132.894 1.639.387l4.569-4.57 3.685.527.527 3.685-4.57 4.57c-.516.516-.298 1.41.388 1.639a9.964 9.964 0 0 0 3.208.526 9.831 9.831 0 0 0 6.963-2.9c2.583-2.583 3.427-6.258 2.543-9.566l17.75-17.73ZM34.297 4.57a7.844 7.844 0 0 1 5.563-2.315c.298 0 .606.02.914.05L37.128 5.95a.994.994 0 0 0-.278.845l.706 4.916a.99.99 0 0 0 .844.845l4.917.705c.308.05.626-.06.844-.278l3.645-3.646a7.81 7.81 0 0 1-2.264 6.477c-3.09 3.089-8.116 3.08-11.215-.02-3.109-3.1-3.119-8.135-.03-11.224ZM12.564 18.297 3.316 9.05a3.98 3.98 0 0 1 0-5.622 3.955 3.955 0 0 1 2.811-1.162c1.023 0 2.036.387 2.811 1.162l9.248 9.248-5.622 5.622Zm3.516-.705 1.4-1.4 4.709 4.698-1.4 1.4-4.709-4.698Zm15.05-2.832a9.972 9.972 0 0 0 4.221 4.222l-16.48 16.48a9.972 9.972 0 0 0-4.221-4.222l16.479-16.48ZM15.703 45.653a7.873 7.873 0 0 1-6.477 2.265l3.646-3.646a.985.985 0 0 0 .278-.844l-.705-4.917a.99.99 0 0 0-.845-.844l-4.917-.706a.994.994 0 0 0-.844.279l-3.645 3.645a7.81 7.81 0 0 1 2.264-6.476c3.09-3.09 8.116-3.08 11.215.02 3.099 3.099 3.109 8.135.03 11.224Z"/><path d="M19.19 31.915c.257 0 .506-.099.704-.288l11.622-11.621a.99.99 0 1 0-1.4-1.401L18.494 30.227a.99.99 0 0 0 .695 1.688Zm28.456 8.939a.999.999 0 0 0-.596-.556l-3.993-1.331-10.33-10.32a.99.99 0 1 0-1.4 1.4l10.498 10.49c.11.108.239.188.388.238l3.784 1.261 1.67 3.884-1.858 1.858-3.884-1.67-1.262-3.784a.976.976 0 0 0-.238-.387l-10.5-10.49a.99.99 0 1 0-1.4 1.401l10.32 10.33 1.332 3.994a.97.97 0 0 0 .556.596l4.917 2.105a.99.99 0 0 0 1.092-.208l2.812-2.811a.994.994 0 0 0 .208-1.093l-2.116-4.907ZM6.127 7.232a.993.993 0 1 0 0-1.987.993.993 0 0 0 0 1.987Z"/></g><defs><clipPath id="a"><path fill="#fff" transform="translate(.157 .268)" d="M0 0h49.685v49.685H0z"/></clipPath></defs></svg>