<svg viewBox="0 0 52 52" fill="none" xmlns="http://www.w3.org/2000/svg"><g clip-path="url(#a)" fill="#000"><path d="M26 25.768c0 7.045-5.712 12.75-12.75 12.75S.5 32.813.5 25.768c0-7.038 5.712-12.75 12.75-12.75S26 18.724 26 25.768Zm3.188 25.5a6.375 6.375 0 1 0 0-12.75 6.375 6.375 0 0 0 0 12.75ZM51.5 42.77a4.255 4.255 0 0 0-4.252 4.253h-2.123a4.255 4.255 0 0 0-4.252-4.252v-2.123a4.251 4.251 0 0 0 4.252-4.252h2.123a4.255 4.255 0 0 0 4.252 4.252v2.123Zm-36.127 4.246a2.123 2.123 0 1 0 0-4.245 2.123 2.123 0 0 0 0 4.245ZM2.623 13.018a2.123 2.123 0 1 0 0-4.245 2.123 2.123 0 0 0 0 4.245Zm11.692-4.252a3.188 3.188 0 1 0 0-6.375 3.188 3.188 0 0 0 0 6.375ZM8.998 48.08a3.185 3.185 0 0 1-3.188 3.188 3.189 3.189 0 1 1 3.188-3.188Z"/><path d="M34.498.268C27.766.268 21.965 4.19 19.21 9.87c6.438 2.423 11.035 8.626 11.035 15.9a16.88 16.88 0 0 1-1.715 7.4 16.86 16.86 0 0 0 5.967 1.097c9.39 0 17.002-7.611 17.002-16.995S43.888.268 34.498.268Zm8.504 17.003c0-4.699-3.8-8.498-8.498-8.498V4.52c7.045 0 12.75 5.705 12.75 12.75h-4.252Z"/></g><defs><clipPath id="a"><path fill="#fff" transform="translate(.5 .268)" d="M0 0h51v51H0z"/></clipPath></defs></svg>