<svg xmlns="http://www.w3.org/2000/svg" viewBox="0 0 18 21" fill="none"><path d="M9.47.442h3.302c.392 2.97 2.063 4.712 5.226 5.036v3.165c-1.898.1-3.505-.572-5.135-1.615 0 .942.007 1.784-.001 2.627-.018 1.811.075 3.631-.088 5.43-.278 3.049-3.251 5.43-6.486 5.356-3.227-.075-6.03-2.596-6.27-5.643-.248-3.173 1.995-6.068 5.13-6.618 2.266-.398 2.266-.398 2.266 1.783v1.44c-1.321-.271-2.415-.018-3.257.918a2.875 2.875 0 0 0-.229 3.535 3.024 3.024 0 0 0 3.266 1.217c1.37-.365 2.252-1.38 2.26-2.75.026-4.298.015-8.597.018-12.895C9.47 1.125 9.47.82 9.47.442Z" fill="#fff"/></svg>