<svg width="19" height="20" fill="none" xmlns="http://www.w3.org/2000/svg"><path d="M9.958.008h3.302c.391 2.97 2.062 4.712 5.225 5.035V8.21c-1.898.099-3.505-.573-5.134-1.616 0 .942.006 1.785-.002 2.628-.017 1.81.075 3.631-.088 5.43-.278 3.048-3.25 5.43-6.486 5.355-3.227-.074-6.03-2.596-6.269-5.643C.257 11.19 2.5 8.296 5.634 7.745c2.267-.398 2.267-.398 2.267 1.783v1.441c-1.32-.272-2.415-.018-3.257.918a2.875 2.875 0 0 0-.229 3.535 3.024 3.024 0 0 0 3.266 1.217c1.37-.365 2.253-1.38 2.26-2.75.026-4.298.015-8.597.018-12.895L9.958.008Z" fill="#4455F0"/></svg>