<svg viewBox="0 0 52 52" fill="none" xmlns="http://www.w3.org/2000/svg"><g fill="#010101"><path d="M38.712 20.15a10.11 10.11 0 0 0 9.819-2.61 10.094 10.094 0 0 0 2.427-10.441 1.006 1.006 0 0 0-.735-.663.99.99 0 0 0-.948.275l-4.69 4.69-3.783-.54-.54-3.782 4.69-4.69c.245-.245.357-.612.275-.949a1.026 1.026 0 0 0-.662-.734 10.094 10.094 0 0 0-10.441 2.427c-2.65 2.65-3.518 6.423-2.61 9.818l-6.944 6.944-4.832-4.823 1.447-1.448a1.015 1.015 0 0 0 0-1.437L10.96 1.95a6.13 6.13 0 0 0-8.656 0 6.13 6.13 0 0 0 0 8.656L12.52 20.823c.397.397 1.05.397 1.438 0l1.447-1.448 4.823 4.833-6.943 6.943c-3.396-.907-7.168-.04-9.82 2.61a10.094 10.094 0 0 0-2.426 10.44c.235.704 1.163.919 1.683.398l4.69-4.69 3.782.54.54 3.784-4.69 4.69c-.53.53-.305 1.447.398 1.682 1.081.367 2.192.54 3.294.54 2.64 0 5.21-1.04 7.147-2.977 2.65-2.65 3.517-6.423 2.61-9.819l18.22-18.2Zm-3.16-15.59a8.052 8.052 0 0 1 5.71-2.375c.305 0 .621.02.937.05l-3.742 3.742a1.02 1.02 0 0 0-.285.867l.724 5.047c.06.449.418.806.866.867l5.047.724a1.01 1.01 0 0 0 .867-.286l3.742-3.742a8.017 8.017 0 0 1-2.325 6.648c-3.17 3.17-8.33 3.16-11.511-.02-3.191-3.182-3.202-8.35-.03-11.522Zm-22.31 14.09L3.75 9.16a4.086 4.086 0 0 1 0-5.771 4.06 4.06 0 0 1 2.886-1.193c1.05 0 2.09.397 2.885 1.193l9.493 9.492-5.771 5.77Zm3.61-.723 1.438-1.438 4.833 4.823-1.438 1.438-4.833-4.823ZM32.3 15.021a10.241 10.241 0 0 0 4.333 4.333L19.717 36.27a10.237 10.237 0 0 0-4.333-4.334l16.915-16.915Zm-15.834 31.71a8.082 8.082 0 0 1-6.648 2.324l3.742-3.742a1.01 1.01 0 0 0 .285-.866L13.12 39.4a1.016 1.016 0 0 0-.866-.867l-5.047-.724a1.02 1.02 0 0 0-.867.285l-3.742 3.742a8.017 8.017 0 0 1 2.325-6.647c3.17-3.171 8.33-3.161 11.511.02 3.181 3.181 3.191 8.35.03 11.521Z"/><path d="M20.043 32.63c.265 0 .52-.102.724-.296l11.93-11.93a1.016 1.016 0 1 0-1.438-1.437l-11.93 11.93a1.015 1.015 0 0 0 .714 1.733Zm29.212 9.156a1.025 1.025 0 0 0-.612-.571l-4.099-1.367-10.603-10.593a1.015 1.015 0 1 0-1.438 1.437L43.28 41.46c.112.112.245.194.398.245L47.562 43l1.713 3.986-1.907 1.907-3.986-1.713-1.295-3.884a1.004 1.004 0 0 0-.245-.398L31.065 32.13a1.015 1.015 0 1 0-1.437 1.438L40.22 44.17l1.366 4.1a.996.996 0 0 0 .571.61l5.047 2.163c.388.163.826.081 1.122-.215l2.885-2.885a1.02 1.02 0 0 0 .214-1.122l-2.171-5.036ZM6.636 7.293a1.02 1.02 0 1 0 0-2.04 1.02 1.02 0 0 0 0 2.04Z"/></g></svg>