<svg xmlns="http://www.w3.org/2000/svg" xmlns:xlink="http://www.w3.org/1999/xlink" viewBox="0 0 1600 221" fill="none"><g filter="url(#a)"><path d="m294.27 175.478 20.212 1.513c361.641 27.092 590.919 45.055 924.588 24.101 79.06-4.965 163.97-12.114 257.89-21.843l-602.81-10.186-599.88 6.415Z" fill="#D9D9D9"/><path d="m294.27 175.478 20.212 1.513c361.641 27.092 590.919 45.055 924.588 24.101 79.06-4.965 163.97-12.114 257.89-21.843l-602.81-10.186-599.88 6.415Z" fill="url(#b)"/><path d="m314.482 176.991-20.212-1.513-1325.31 13.697c377.226 7.546 1170.412 16.125 1325.31-9.926 5.376-.904 12.139-1.653 20.212-2.258Z" fill="#D9D9D9"/><path d="m314.482 176.991-20.212-1.513-1325.31 13.697c377.226 7.546 1170.412 16.125 1325.31-9.926 5.376-.904 12.139-1.653 20.212-2.258Z" fill="url(#c)"/><path d="M1981.14 123.532c289.04-26.259 505.86-20.259 657.92-2.257 21.34-10.197 37.96-21.479 49.3-33.941 128.67-141.477-310.4-61.422-707.22 36.198Z" fill="#D9D9D9"/><path d="M1981.14 123.532c289.04-26.259 505.86-20.259 657.92-2.257 21.34-10.197 37.96-21.479 49.3-33.941 128.67-141.477-310.4-61.422-707.22 36.198Z" fill="url(#d)"/><path fill-rule="evenodd" clip-rule="evenodd" d="M2639.06 121.275c135.47 16.037 219.54 41.6 257.47 62.362l-521.41-1.635c114.66-13.628 206.42-33.238 263.94-60.727Zm-657.92 2.257c-65.71 5.971-135.16 13.609-208.44 23.153-100.61 13.106-191.77 23.866-275.74 32.564l265.28.832c68.57-18.54 142.96-37.866 218.9-56.549Z" fill="#D9D9D9"/><path fill-rule="evenodd" clip-rule="evenodd" d="M2639.06 121.275c135.47 16.037 219.54 41.6 257.47 62.362l-521.41-1.635c114.66-13.628 206.42-33.238 263.94-60.727Zm-657.92 2.257c-65.71 5.971-135.16 13.609-208.44 23.153-100.61 13.106-191.77 23.866-275.74 32.564l265.28.832c68.57-18.54 142.96-37.866 218.9-56.549Z" fill="url(#e)"/><path d="M1762.24 180.081c-36.84 9.961-72 19.695-104.82 28.98 268.05 1.847 525.17-4.175 717.7-27.059l-612.88-1.921Z" fill="#D9D9D9"/><path d="M1762.24 180.081c-36.84 9.961-72 19.695-104.82 28.98 268.05 1.847 525.17-4.175 717.7-27.059l-612.88-1.921Z" fill="url(#f)"/><path d="M1239.07 201.092c137.41 3.936 279.35 7.011 418.35 7.969a9386.437 9386.437 0 0 1 104.82-28.98l-265.28-.832c-93.92 9.729-178.83 16.878-257.89 21.843Z" fill="#D9D9D9"/><path d="M1239.07 201.092c137.41 3.936 279.35 7.011 418.35 7.969a9386.437 9386.437 0 0 1 104.82-28.98l-265.28-.832c-93.92 9.729-178.83 16.878-257.89 21.843Z" fill="url(#g)"/><path d="M-120.477 146.685c-692.985-42.881-772.401 16.797-910.563 42.49l1325.31-13.697c-120.632-9.022-256.07-18.974-414.747-28.793Z" fill="#D9D9D9"/><path d="M-120.477 146.685c-692.985-42.881-772.401 16.797-910.563 42.49l1325.31-13.697c-120.632-9.022-256.07-18.974-414.747-28.793Z" fill="url(#h)"/></g><defs><pattern id="b" patternContentUnits="objectBoundingBox" width="1" height="1"><use xlink:href="#image0_6_62" transform="matrix(.00049 0 0 .00962 0 -4.697)"/></pattern><pattern id="c" patternContentUnits="objectBoundingBox" width="1" height="1"><use xlink:href="#image0_6_62" transform="matrix(.00049 0 0 .00962 0 -4.697)"/></pattern><pattern id="d" patternContentUnits="objectBoundingBox" width="1" height="1"><use xlink:href="#image0_6_62" transform="matrix(.00049 0 0 .00962 0 -4.697)"/></pattern><pattern id="e" patternContentUnits="objectBoundingBox" width="1" height="1"><use xlink:href="#image0_6_62" transform="matrix(.00049 0 0 .00962 0 -4.697)"/></pattern><pattern id="f" patternContentUnits="objectBoundingBox" width="1" height="1"><use xlink:href="#image0_6_62" transform="matrix(.00049 0 0 .00962 0 -4.697)"/></pattern><pattern id="g" patternContentUnits="objectBoundingBox" width="1" height="1"><use xlink:href="#image0_6_62" transform="matrix(.00049 0 0 .00962 0 -4.697)"/></pattern><pattern id="h" patternContentUnits="objectBoundingBox" width="1" height="1"><use xlink:href="#image0_6_62" transform="matrix(.00049 0 0 .00962 0 -4.697)"/></pattern><filter id="a" x="-1040.94" y=".891" width="3947.37" height="219.258" filterUnits="userSpaceOnUse" color-interpolation-filters="sRGB"><feFlood flood-opacity="0" result="BackgroundImageFix"/><feBlend in="SourceGraphic" in2="BackgroundImageFix" result="shape"/><feGaussianBlur stdDeviation="4.95" result="effect1_foregroundBlur_6_62"/></filter></defs></svg>