<svg xmlns="http://www.w3.org/2000/svg" viewBox="0 0 1600 128" fill="#F5F9FF"><path d="M1600 52.138s-41.2 22.892-79.01 24.489c-38.38 1.597-71.11 0-117.96-7.986-63.77-10.647-186.8-53.77-252.27-30.345-65.47 23.424-68.29 24.49-101.59 39.396-37.25 17.036-112.874 51.107-206.56 49.51-99.894-1.597-281.058-88.374-355.555-84.115-7.902.533-37.249 4.26-59.26 10.648-21.446 6.388-53.051 20.23-95.943 25.021-18.06 2.13-46.843 5.856-80.141 4.792-8.466-.533-35.556-2.13-67.725-8.518-32.169-6.389-62.081-16.504-89.171-19.698C36.685 49.476 0 57.994 0 57.994V.497h1600v51.64Zm-128.11 8.518c-3.95-5.324-11.29-2.13-24.27-2.13s-34.43-6.388-32.73-5.856c1.69.532 17.49 7.986 33.86 10.115 16.93 2.662 26.52 3.194 23.14-2.13Zm-103.85-14.374s-13.54-1.065-31.6-4.792c-18.06-4.259-58.13-14.906-85.22-18.633-46.28-5.856-89.17 0-85.22.532 4.51.533 54.18-3.194 99.33 5.857 18.62 3.726 52.48 11.712 69.98 14.374 18.62 3.194 32.73 2.662 32.73 2.662Zm-322.82-.533c9.59-3.727-75.061 25.022-104.409 32.475-11.852 3.194-34.991 8.518-56.437 10.647-22.011 2.13-50.229 2.13-49.665 2.662 0 1.065 32.734 4.26 63.21 0 30.476-4.259 29.347-5.856 42.892-8.518 21.446-4.259 94.819-33.54 104.409-37.266Zm78.45-8.518c1.13 0-4.52-2.13-27.09 5.856-22.58 7.986-37.81 18.633-38.94 19.698-1.13.533 19.75-9.583 37.25-15.971 16.93-6.389 28.21-9.583 28.78-9.583Zm473.51-4.791c-.57.532-10.72 5.856-27.09 13.31-16.37 7.452-38.94 14.906-37.81 14.373 1.12 0 19.75-3.194 41.76-13.31 22.01-10.114 23.7-14.906 23.14-14.373ZM176.649 62.253c.564-1.065-10.723-1.065-25.397-6.389-14.674-5.323-30.476-8.518-44.021-10.647-22.575-4.26-66.032.532-63.774 1.065 1.693.532 46.279-1.598 70.547 3.726 12.416 2.662 13.544 2.662 32.169 8.518 18.624 5.856 29.912 5.324 30.476 3.727Zm235.344-12.777c2.257-.533 19.753-8.518 47.407-13.842 27.655-5.856 50.23-2.662 50.23-4.259 0-1.597-5.644-4.791-34.992-1.597-29.347 3.194-64.903 20.23-62.645 19.698Zm-7.901-13.31c1.128.533 19.188-6.92 32.169-9.05 12.981-1.597 10.723-2.662 10.723-3.194 0-.533-6.208-1.065-15.238 1.064-9.594 2.662-28.783 10.648-27.654 11.18Zm124.162-12.244c.564 1.064 19.753 4.259 31.605 9.582 11.852 5.324 10.159 3.195 10.723 2.662.564-.532-4.515-4.259-13.545-6.92-9.03-3.195-29.347-6.389-28.783-5.324ZM369.101 59.59c-.565 1.597 1.693 2.662 10.723-1.065 9.03-3.727 14.673-6.92 12.416-6.388-2.258.532-5.08 2.13-14.11 4.259-9.594 2.13-8.465 1.597-9.029 3.194Zm-174.392 6.92c-1.129 0 11.852 4.26 18.624 4.792 6.773.532 11.288.532 11.288-1.065s-.565-2.662-9.03-2.13c-9.03.533-19.753-1.596-20.882-1.596Zm664.268 46.317c-.564.533-13.545-1.597-42.328-1.597-28.219 0-76.755-12.777-97.072-18.633-20.318-5.856 56.437 20.763 93.121 21.827 36.685 1.065 46.843-2.129 46.279-1.597Z"/></svg>