<svg xmlns="http://www.w3.org/2000/svg" xmlns:xlink="http://www.w3.org/1999/xlink" viewBox="0 0 1600 316" fill="none"><g filter="url(#a)" clip-rule="evenodd"><path d="m-886.3 204.085 50.589-21.176c50.589-21.175 154.578-63.527 255.756-95.29 101.178-31.764 205.166-52.94 306.344-63.528 103.989-10.587 205.167-10.587 306.345 0C136.722 34.68 237.9 55.855 339.078 82.326c103.988 26.469 205.167 58.233 306.344 89.997 103.989 31.763 205.167 63.527 309.155 37.057C1055.76 182.91 1156.93 98.208 1260.92 55.856c101.18-42.351 202.36-42.351 306.35-21.176 101.17 21.176 202.35 63.528 306.34 84.703 101.18 21.176 205.17 21.176 306.35 15.882 101.17-5.294 205.16-15.882 255.75-21.176l50.59-5.294v190.582H-886.3v-95.291Z"/><path fill-rule="evenodd" d="m-886.3 204.085 50.589-21.176c50.589-21.175 154.578-63.527 255.756-95.29 101.178-31.764 205.166-52.94 306.344-63.528 103.989-10.587 205.167-10.587 306.345 0C136.722 34.68 237.9 55.855 339.078 82.326c103.988 26.469 205.167 58.233 306.344 89.997 103.989 31.763 205.167 63.527 309.155 37.057C1055.76 182.91 1156.93 98.208 1260.92 55.856c101.18-42.351 202.36-42.351 306.35-21.176 101.17 21.176 202.35 63.528 306.34 84.703 101.18 21.176 205.17 21.176 306.35 15.882 101.17-5.294 205.16-15.882 255.75-21.176l50.59-5.294v190.582H-886.3v-95.291Z" fill="url(#b)"/><path d="m-886.3 204.085 50.589-21.176c50.589-21.175 154.578-63.527 255.756-95.29 101.178-31.764 205.166-52.94 306.344-63.528 103.989-10.587 205.167-10.587 306.345 0C136.722 34.68 237.9 55.855 339.078 82.326c103.988 26.469 205.167 58.233 306.344 89.997 103.989 31.763 205.167 63.527 309.155 37.057C1055.76 182.91 1156.93 98.208 1260.92 55.856c101.18-42.351 202.36-42.351 306.35-21.176 101.17 21.176 202.35 63.528 306.34 84.703 101.18 21.176 205.17 21.176 306.35 15.882 101.17-5.294 205.16-15.882 255.75-21.176l50.59-5.294v190.582H-886.3v-95.291Z" stroke="#000"/></g><defs><pattern id="b" patternContentUnits="objectBoundingBox" width="1" height="1"><use xlink:href="#image0_3_15" transform="matrix(.00049 0 0 .00582 0 -2.643)"/></pattern><filter id="a" x="-902.2" y=".251" width="3404.4" height="315.025" filterUnits="userSpaceOnUse" color-interpolation-filters="sRGB"><feFlood flood-opacity="0" result="BackgroundImageFix"/><feBlend in="SourceGraphic" in2="BackgroundImageFix" result="shape"/><feGaussianBlur stdDeviation="7.95" result="effect1_foregroundBlur_3_15"/></filter></defs></svg>