<svg xmlns="http://www.w3.org/2000/svg" xmlns:xlink="http://www.w3.org/1999/xlink" viewBox="0 0 1600 235" fill="none"><g filter="url(#a)" clip-rule="evenodd" shape-rendering="crispEdges"><path d="m-7.537 150.507 24.226-16.859c24.226-16.86 74.024-50.58 122.476-75.87C187.618 32.49 237.416 15.63 285.868 7.2c49.798-8.43 98.25-8.43 146.703 0 49.798 8.43 98.25 25.29 146.702 46.364 49.798 21.074 98.251 46.364 146.703 71.654 49.798 25.289 98.25 50.579 148.048 29.504 48.453-21.074 96.905-88.513 146.706-122.233 48.45-33.72 96.9-33.72 146.7-16.86 48.45 16.86 96.9 50.58 146.7 67.44 48.45 16.86 98.25 16.86 146.7 12.644 48.46-4.215 98.26-12.645 122.48-16.86l24.23-4.215v151.738H-7.537v-75.869Z"/><path fill-rule="evenodd" d="m-7.537 150.507 24.226-16.859c24.226-16.86 74.024-50.58 122.476-75.87C187.618 32.49 237.416 15.63 285.868 7.2c49.798-8.43 98.25-8.43 146.703 0 49.798 8.43 98.25 25.29 146.702 46.364 49.798 21.074 98.251 46.364 146.703 71.654 49.798 25.289 98.25 50.579 148.048 29.504 48.453-21.074 96.905-88.513 146.706-122.233 48.45-33.72 96.9-33.72 146.7-16.86 48.45 16.86 96.9 50.58 146.7 67.44 48.45 16.86 98.25 16.86 146.7 12.644 48.46-4.215 98.26-12.645 122.48-16.86l24.23-4.215v151.738H-7.537v-75.869Z" fill="url(#b)"/><path d="m-7.537 150.507 24.226-16.859c24.226-16.86 74.024-50.58 122.476-75.87C187.618 32.49 237.416 15.63 285.868 7.2c49.798-8.43 98.25-8.43 146.703 0 49.798 8.43 98.25 25.29 146.702 46.364 49.798 21.074 98.251 46.364 146.703 71.654 49.798 25.289 98.25 50.579 148.048 29.504 48.453-21.074 96.905-88.513 146.706-122.233 48.45-33.72 96.9-33.72 146.7-16.86 48.45 16.86 96.9 50.58 146.7 67.44 48.45 16.86 98.25 16.86 146.7 12.644 48.46-4.215 98.26-12.645 122.48-16.86l24.23-4.215v151.738H-7.537v-75.869Z" stroke="#000"/></g><defs><pattern id="b" patternContentUnits="objectBoundingBox" width="1" height="1"><use xlink:href="#image0_2_48" transform="matrix(.00049 0 0 .0035 0 -1.39)"/></pattern><filter id="a" x="-11.537" y=".877" width="1623.07" height="233.499" filterUnits="userSpaceOnUse" color-interpolation-filters="sRGB"><feFlood flood-opacity="0" result="BackgroundImageFix"/><feColorMatrix in="SourceAlpha" values="0 0 0 0 0 0 0 0 0 0 0 0 0 0 0 0 0 0 127 0" result="hardAlpha"/><feOffset dy="4"/><feGaussianBlur stdDeviation="2"/><feComposite in2="hardAlpha" operator="out"/><feColorMatrix values="0 0 0 0 0 0 0 0 0 0 0 0 0 0 0 0 0 0 0.25 0"/><feBlend in2="BackgroundImageFix" result="effect1_dropShadow_2_48"/><feBlend in="SourceGraphic" in2="effect1_dropShadow_2_48" result="shape"/></filter></defs></svg>