<svg xmlns="http://www.w3.org/2000/svg" xmlns:xlink="http://www.w3.org/1999/xlink" viewBox="0 0 1600 1000" fill="none"><path transform="matrix(-1 0 0 1 556.271 .446)" fill="url(#a)" d="M0 0h580.23v867.108H0z"/><path d="M2123.7 433.007c-521.17 64.48-638.38 447.985-804.73 599.663l1864.33-21.199c-68.34-228.062-375.94-663.048-1059.6-578.464ZM820.741 894.874c-543.938-485.921-1077.874-97.152-1276.85 157.978l1461.809-16.621c-53.281-31.926-114.182-78.13-184.959-141.357ZM1005.7 1036.23c146.4 87.721 235.24 67.585 313.27-3.56l-313.27 3.56Z" fill="#485AFF"/><defs><pattern id="a" patternContentUnits="objectBoundingBox" width="1" height="1"><use xlink:href="#image0_375_1356" transform="matrix(.00103 0 0 .00069 -.001 0)"/></pattern></defs></svg>