<svg viewBox="0 0 1600 1101" fill="none" xmlns="http://www.w3.org/2000/svg" xmlns:xlink="http://www.w3.org/1999/xlink"><path transform="matrix(-1 0 0 1 556.271 .446)" fill="url(#a)" d="M0 0h580.23v867.108H0z"/><path d="M2123.7 476.741c-521.17 70.992-638.38 493.231-804.73 660.229l1864.33-23.34c-68.34-251.097-375.94-730.016-1059.6-636.889ZM820.741 985.256C276.803 450.257-257.133 878.292-456.109 1159.19l1461.809-18.3c-53.281-35.15-114.182-86.02-184.959-155.634ZM1005.7 1140.89c146.4 96.58 235.24 74.41 313.27-3.92l-313.27 3.92Z" fill="#485AFF"/><defs><pattern id="a" patternContentUnits="objectBoundingBox" width="1" height="1"><use xlink:href="#image0_375_1356" transform="matrix(.00103 0 0 .00069 -.001 0)"/></pattern></defs></svg>