<svg xmlns="http://www.w3.org/2000/svg" xmlns:xlink="http://www.w3.org/1999/xlink" viewBox="0 0 1600 800" fill="none"><path transform="matrix(-1 0 0 1 556.271 .446)" fill="url(#a)" d="M0 0h580.23v867.108H0z"/><path d="M2123.7 346.406c-521.17 51.583-638.38 358.387-804.73 479.73l1864.33-16.959c-68.34-182.45-375.94-530.438-1059.6-462.771ZM820.741 715.899C276.803 327.162-257.133 638.178-456.109 842.282L1005.7 828.985c-53.281-25.54-114.182-62.504-184.959-113.086ZM1005.7 828.985c146.4 70.176 235.24 54.067 313.27-2.849l-313.27 2.849Z" fill="#485AFF"/><defs><pattern id="a" patternContentUnits="objectBoundingBox" width="1" height="1"><use xlink:href="#image0_375_1356" transform="matrix(.00103 0 0 .00069 -.001 0)"/></pattern></defs></svg>