<svg xmlns="http://www.w3.org/2000/svg" xmlns:xlink="http://www.w3.org/1999/xlink" viewBox="0 0 3000 1101" fill="none"><path transform="matrix(-1 0 0 1 556.271 .446)" fill="url(#a)" d="M0 0h580.23v867.108H0z"/><path d="M3981.937 476.741c-977.193 70.992-1196.962 493.231-1508.868 660.229l3495.619-23.34C5840.55 862.533 5263.8 383.614 3981.938 476.741ZM1538.89 985.256C519.005 450.257-482.125 878.292-855.205 1159.19l2740.892-18.3c-99.902-35.15-214.092-86.02-346.799-155.634Zm346.798 155.634c274.5 96.58 441.075 74.41 587.38-3.92l-587.38 3.92Z" fill="#485AFF"/><defs><pattern id="a" patternContentUnits="objectBoundingBox" width="1" height="1"><use xlink:href="#image0_375_1356" transform="matrix(.00103 0 0 .00069 -.001 0)"/></pattern></defs></svg>