<svg viewBox="0 0 1180 314" fill="none" xmlns="http://www.w3.org/2000/svg"><path d="M477.961 265.916V264.14L481.321 263.708C482.089 263.612 482.569 263.388 482.761 263.036C482.953 262.684 483.049 262.172 483.049 261.5V257.948H468.793L468.313 255.02L483.337 231.98L490.201 231.02L491.065 231.644V253.964H495.721V257.948H491.065V261.74C491.065 262.348 491.177 262.828 491.401 263.18C491.625 263.5 492.073 263.692 492.745 263.756L495.001 264.044V265.916H477.961ZM471.769 253.964H483.049V236.732H482.953L471.769 253.964ZM511.868 266.54C508.892 266.54 506.412 265.788 504.428 264.284C502.476 262.78 501.004 260.716 500.012 258.092C499.052 255.468 498.572 252.476 498.572 249.116C498.572 245.692 498.972 242.812 499.772 240.476C500.572 238.14 501.612 236.268 502.892 234.86C504.204 233.452 505.66 232.428 507.26 231.788C508.86 231.148 510.476 230.828 512.108 230.828C514.54 230.828 516.732 231.452 518.684 232.7C520.636 233.916 522.188 235.788 523.34 238.316C524.492 240.844 525.068 244.076 525.068 248.012C525.068 252.076 524.492 255.484 523.34 258.236C522.188 260.988 520.62 263.068 518.636 264.476C516.652 265.852 514.396 266.54 511.868 266.54ZM512.156 264.188C512.988 264.188 513.708 263.948 514.316 263.468C514.924 262.956 515.42 262.124 515.804 260.972C516.22 259.788 516.524 258.204 516.716 256.22C516.908 254.204 517.004 251.692 517.004 248.684C517.004 245.676 516.892 243.164 516.668 241.148C516.444 239.132 516.108 237.548 515.66 236.396C515.212 235.212 514.668 234.38 514.028 233.9C513.388 233.42 512.636 233.18 511.772 233.18C511.004 233.18 510.3 233.404 509.66 233.852C509.02 234.268 508.476 235.02 508.028 236.108C507.612 237.196 507.276 238.732 507.02 240.716C506.796 242.668 506.684 245.196 506.684 248.3C506.684 251.148 506.796 253.596 507.02 255.644C507.276 257.66 507.628 259.292 508.076 260.54C508.556 261.788 509.132 262.716 509.804 263.324C510.476 263.9 511.26 264.188 512.156 264.188ZM537.164 265.916V264.14L540.524 263.708C541.292 263.612 541.772 263.388 541.964 263.036C542.156 262.684 542.252 262.172 542.252 261.5V257.948H527.996L527.516 255.02L542.54 231.98L549.404 231.02L550.268 231.644V253.964H554.924V257.948H550.268V261.74C550.268 262.348 550.38 262.828 550.604 263.18C550.828 263.5 551.276 263.692 551.948 263.756L554.204 264.044V265.916H537.164ZM530.972 253.964H542.252V236.732H542.156L530.972 253.964ZM568.288 265.916V264.044L570.448 263.804C571.056 263.74 571.456 263.548 571.648 263.228C571.84 262.876 571.936 262.22 571.936 261.26V235.82C571.936 234.988 571.824 234.428 571.6 234.14C571.408 233.82 570.976 233.628 570.304 233.564L568.288 233.372V231.5H592.48L593.968 240.236L591.664 240.668C591.184 239.228 590.704 238.06 590.224 237.164C589.744 236.268 589.216 235.564 588.64 235.052C588.064 234.54 587.392 234.188 586.624 233.996C585.856 233.804 584.912 233.708 583.792 233.708H579.952V247.244H583.168C584 247.244 584.64 247.148 585.088 246.956C585.536 246.732 585.888 246.332 586.144 245.756C586.4 245.148 586.672 244.268 586.96 243.116L588.784 242.924V253.676L586.96 253.916C586.736 252.732 586.48 251.836 586.192 251.228C585.936 250.588 585.568 250.156 585.088 249.932C584.64 249.676 584 249.548 583.168 249.548H579.952V263.66H584.896C585.984 263.66 586.896 263.564 587.632 263.372C588.4 263.148 589.056 262.764 589.6 262.22C590.144 261.676 590.64 260.94 591.088 260.012C591.536 259.052 591.984 257.836 592.432 256.364H594.784L593.776 265.916H568.288ZM598.23 265.916V264.092L600.15 263.804C600.63 263.74 600.95 263.564 601.11 263.276C601.27 262.956 601.35 262.38 601.35 261.548V246.428C601.35 245.404 601.254 244.684 601.062 244.268C600.87 243.852 600.422 243.612 599.718 243.548L597.798 243.308L597.99 241.388L607.782 240.86L608.262 241.196L608.502 245.996H608.598C609.302 244.236 610.31 242.892 611.622 241.964C612.934 241.004 614.374 240.524 615.942 240.524C617.67 240.524 619.03 241.004 620.022 241.964C621.014 242.924 621.51 244.188 621.51 245.756C621.51 246.652 621.366 247.452 621.078 248.156C620.79 248.828 620.342 249.356 619.734 249.74C619.158 250.124 618.39 250.316 617.43 250.316C616.246 250.316 615.366 250.06 614.79 249.548C614.214 249.036 613.926 248.412 613.926 247.676C613.926 247.324 613.974 246.988 614.07 246.668C614.198 246.316 614.39 245.9 614.646 245.42C614.902 244.94 615.254 244.348 615.702 243.644C614.966 243.388 614.198 243.372 613.398 243.596C612.63 243.788 611.894 244.188 611.19 244.796C610.518 245.404 609.974 246.188 609.558 247.148C609.142 248.076 608.934 249.148 608.934 250.364V261.596C608.934 262.364 609.014 262.908 609.174 263.228C609.334 263.516 609.702 263.692 610.278 263.756L613.542 264.092V265.916H598.23ZM623.824 265.916V264.092L625.744 263.804C626.224 263.74 626.544 263.564 626.704 263.276C626.864 262.956 626.944 262.38 626.944 261.548V246.428C626.944 245.404 626.848 244.684 626.656 244.268C626.464 243.852 626.016 243.612 625.312 243.548L623.392 243.308L623.584 241.388L633.376 240.86L633.856 241.196L634.096 245.996H634.192C634.896 244.236 635.904 242.892 637.216 241.964C638.528 241.004 639.968 240.524 641.536 240.524C643.264 240.524 644.624 241.004 645.616 241.964C646.608 242.924 647.104 244.188 647.104 245.756C647.104 246.652 646.96 247.452 646.672 248.156C646.384 248.828 645.936 249.356 645.328 249.74C644.752 250.124 643.984 250.316 643.024 250.316C641.84 250.316 640.96 250.06 640.384 249.548C639.808 249.036 639.52 248.412 639.52 247.676C639.52 247.324 639.568 246.988 639.664 246.668C639.792 246.316 639.984 245.9 640.24 245.42C640.496 244.94 640.848 244.348 641.296 243.644C640.56 243.388 639.792 243.372 638.992 243.596C638.224 243.788 637.488 244.188 636.784 244.796C636.112 245.404 635.568 246.188 635.152 247.148C634.736 248.076 634.528 249.148 634.528 250.364V261.596C634.528 262.364 634.608 262.908 634.768 263.228C634.928 263.516 635.296 263.692 635.872 263.756L639.136 264.092V265.916H623.824ZM661.719 266.588C659.063 266.588 656.775 266.108 654.855 265.148C652.935 264.156 651.447 262.732 650.391 260.876C649.335 258.988 648.807 256.716 648.807 254.06C648.807 251.116 649.367 248.636 650.487 246.62C651.639 244.604 653.239 243.084 655.287 242.06C657.367 241.036 659.799 240.524 662.583 240.524C665.111 240.524 667.319 240.988 669.207 241.916C671.127 242.844 672.615 244.236 673.671 246.092C674.727 247.916 675.255 250.204 675.255 252.956C675.255 255.804 674.711 258.252 673.623 260.3C672.535 262.316 670.967 263.868 668.919 264.956C666.903 266.044 664.503 266.588 661.719 266.588ZM662.439 264.236C663.559 264.236 664.455 263.9 665.127 263.228C665.831 262.556 666.343 261.468 666.663 259.964C666.983 258.46 667.143 256.46 667.143 253.964C667.143 251.884 667.015 250.124 666.759 248.684C666.535 247.244 666.183 246.108 665.703 245.276C665.255 244.412 664.695 243.788 664.023 243.404C663.383 243.02 662.647 242.828 661.815 242.828C660.759 242.828 659.863 243.148 659.127 243.788C658.391 244.396 657.831 245.404 657.447 246.812C657.063 248.22 656.871 250.14 656.871 252.572C656.871 255.388 657.095 257.66 657.543 259.388C657.991 261.084 658.615 262.316 659.415 263.084C660.247 263.852 661.255 264.236 662.439 264.236ZM678.527 265.916V264.092L680.447 263.804C680.927 263.74 681.247 263.564 681.407 263.276C681.567 262.956 681.647 262.38 681.647 261.548V246.428C681.647 245.404 681.551 244.684 681.359 244.268C681.167 243.852 680.719 243.612 680.015 243.548L678.095 243.308L678.287 241.388L688.079 240.86L688.559 241.196L688.799 245.996H688.895C689.599 244.236 690.607 242.892 691.919 241.964C693.231 241.004 694.671 240.524 696.239 240.524C697.967 240.524 699.327 241.004 700.319 241.964C701.311 242.924 701.807 244.188 701.807 245.756C701.807 246.652 701.663 247.452 701.375 248.156C701.087 248.828 700.639 249.356 700.031 249.74C699.455 250.124 698.687 250.316 697.727 250.316C696.543 250.316 695.663 250.06 695.087 249.548C694.511 249.036 694.223 248.412 694.223 247.676C694.223 247.324 694.271 246.988 694.367 246.668C694.495 246.316 694.687 245.9 694.943 245.42C695.199 244.94 695.551 244.348 695.999 243.644C695.263 243.388 694.495 243.372 693.695 243.596C692.927 243.788 692.191 244.188 691.487 244.796C690.815 245.404 690.271 246.188 689.855 247.148C689.439 248.076 689.231 249.148 689.231 250.364V261.596C689.231 262.364 689.311 262.908 689.471 263.228C689.631 263.516 689.999 263.692 690.575 263.756L693.839 264.092V265.916H678.527Z" fill="#1B2D59"/><path d="M487.006 120.586C484.611 114.439 485.178 107.052 488.256 100.645C492.196 92.4442 500.182 87.2878 508.628 83.9131C517.073 80.5503 517.274 80.4323 526.073 77.4588L544.64 128.492C535.982 131.878 535.758 131.925 527.123 134.769C518.489 137.613 509.052 138.793 500.772 135.052C494.308 132.126 489.117 126.828 487.006 120.586Z" fill="white"/><path d="M545.489 64.7752L532.62 69.4596C525.224 72.1499 524.256 88.1855 530.473 105.271C536.689 122.357 547.73 134.015 555.126 131.325L567.995 126.64L545.489 64.787V64.7752Z" fill="white"/><path d="M567.992 126.623C575.393 123.929 576.355 107.899 570.141 90.8201C563.927 73.7411 552.889 62.0803 545.488 64.775C538.087 67.4697 537.125 83.4994 543.339 100.578C549.553 117.657 560.59 129.318 567.992 126.623Z" fill="white"/><path d="M485.826 121.036C489.836 131.797 500.394 138.44 511.718 138.676C523.183 138.912 534.578 133.803 545.088 129.697C546.609 129.107 545.736 126.723 544.203 127.325C535.628 130.676 526.604 134.57 517.438 135.797C505.277 137.437 492.691 132.198 488.209 120.151C487.642 118.629 485.26 119.502 485.838 121.036H485.826Z" fill="#3E57DA"/><path d="M488.197 120.163C483.891 107.986 490.226 95.8793 500.641 89.3305C508.45 84.4219 517.816 81.6136 526.509 78.6756C528.055 78.1564 527.182 75.7729 525.625 76.2921C515.221 79.8083 503.59 83.124 495.027 90.2509C486.05 97.72 481.862 109.815 485.814 121.036C486.357 122.57 488.739 121.697 488.185 120.151L488.197 120.163Z" fill="#3E57DA"/><path d="M0.219804 79.5018V76.7879C13.9382 71.4545 53.7606 57.3187 68.0334 53.0708C91.8136 46.0029 116.195 40.7403 140.601 38.2506C171.317 35.112 207.624 40.1976 225.848 68.3512C234.931 82.3691 234.235 98.8884 238.6 114.452C243.223 130.912 255.81 143.16 271.168 150.028C288.696 157.874 308.631 158.983 327.575 158.464C345.351 157.98 363.021 155.526 380.396 151.786C416.29 144.069 450.757 130.959 484.859 117.555C484.989 117.508 485.118 117.449 485.26 117.402C485.543 117.284 485.814 117.284 486.05 117.355C486.864 117.591 487.23 118.771 486.628 119.431C486.628 119.443 486.616 119.455 486.605 119.455C486.487 119.585 486.333 119.691 486.145 119.762C486.109 119.762 486.086 119.785 486.05 119.797C485.861 119.868 485.685 119.939 485.496 120.021C448.245 134.653 410.499 148.895 371.03 156.222C353.325 159.514 335.324 161.343 317.301 161.025C300.032 160.718 282.149 158.629 266.579 150.617C253.615 143.951 242.469 133.201 237.479 119.29C231.793 103.419 233.504 85.5903 224.445 70.8409C204.935 39.112 163.602 37.2949 130.692 42.0265C109.719 45.0472 88.9118 49.7198 68.4934 55.7139C54.1027 59.9382 14.127 74.074 0.208008 79.49L0.219804 79.5018Z" fill="#3E57DA"/><path d="M696.085 42.6979C696.156 42.3203 696.392 41.9663 696.852 41.7775C696.887 41.7657 696.923 41.7539 696.958 41.7303C734.162 27.1225 771.825 12.8687 811.223 5.4586C828.669 2.16653 846.41 0.29041 864.186 0.491001C881.549 0.679794 899.467 2.60312 915.261 10.3436C928.072 16.6209 939.336 26.9101 944.762 40.3026C951.05 55.8308 949.139 73.6126 957.278 88.5272C975.066 121.094 1016.52 124.28 1049.18 119.949C1069.29 117.294 1089.27 113.035 1108.89 107.513C1124.19 103.206 1165.04 89.1172 1179.79 83.4181V86.1319C1161.9 93.0111 1117.83 107.855 1099.24 112.598C1079.35 117.672 1058.96 121.991 1038.48 123.678C1008.16 126.18 972.459 119.631 955.827 91.0877C947.57 76.9401 948.608 60.3618 943.795 45.1286C938.723 29.0812 925.594 17.3643 910.39 10.9218C892.755 3.45268 872.82 2.52052 853.924 3.14589C836.147 3.73587 818.477 6.28457 801.126 10.0958C765.703 17.8717 731.673 30.8394 697.984 44.0666C697.913 44.102 697.819 44.1256 697.748 44.161C697.324 44.3262 696.946 44.2672 696.663 44.0666C696.498 43.9604 696.356 43.807 696.262 43.6301C696.109 43.3469 696.038 43.0165 696.097 42.6979H696.085Z" fill="#3E57DA"/><path d="M576.984 30.0728L568.385 2.72149C567.901 1.16395 565.518 2.04892 566.014 3.60645L574.613 30.9578C575.096 32.5153 577.479 31.6303 576.984 30.0728Z" fill="#3E57DA"/><path d="M595.42 32.3738C598.027 25.1997 600.634 18.0374 603.253 10.8633C603.807 9.34112 601.519 8.24377 600.964 9.7777C598.357 16.9518 595.75 24.1141 593.132 31.2882C592.577 32.8104 594.866 33.9077 595.42 32.3738Z" fill="#3E57DA"/><path d="M566.863 40.2093C560.21 37.106 553.569 34.0028 546.916 30.8995C545.442 30.2151 544.345 32.5042 545.831 33.1886C552.484 36.2919 559.125 39.3952 565.777 42.4984C567.252 43.1828 568.349 40.8937 566.863 40.2093Z" fill="#3E57DA"/><path d="M606.508 135.277C609.87 144.505 613.22 153.744 616.582 162.971C617.136 164.505 619.519 163.632 618.953 162.086C615.591 152.859 612.241 143.62 608.879 134.392C608.325 132.858 605.942 133.732 606.508 135.277Z" fill="#3E57DA"/><path d="M620.45 127.443C626.501 130.263 632.564 133.094 638.616 135.915C640.09 136.599 641.187 134.31 639.701 133.625C633.649 130.805 627.586 127.973 621.535 125.153C620.061 124.469 618.964 126.758 620.45 127.443Z" fill="#3E57DA"/><path d="M591.008 136.918C588.401 142.499 585.806 148.08 583.199 153.661C582.515 155.136 584.804 156.233 585.488 154.747C588.095 149.165 590.69 143.584 593.297 138.003C593.981 136.528 591.692 135.431 591.008 136.918Z" fill="#3E57DA"/><path d="M594.972 71.6196C605.647 67.7376 600.079 69.8497 610.766 65.9677C612.299 65.4131 611.427 63.0296 609.881 63.596C599.206 67.478 604.774 65.3659 594.087 69.2479C592.553 69.8025 593.426 72.186 594.972 71.6196Z" fill="#3E57DA"/><path d="M602.863 94.3923C613.987 90.2861 607.747 92.587 618.87 88.4808C620.403 87.9144 619.53 85.5309 617.985 86.1091C606.862 90.2153 613.102 87.9144 601.978 92.0206C600.445 92.587 601.318 94.9705 602.863 94.3923Z" fill="#3E57DA"/><path d="M568.95 91.2764C571.545 98.6393 573.491 106.628 572.878 114.498C572.548 118.769 571.274 125.353 566.001 125.755C561.082 126.132 556.399 120.763 553.745 117.365C549.723 112.209 546.751 106.274 544.521 100.15C542.068 93.4121 540.393 86.1908 540.499 78.9813C540.558 74.4267 541.466 66.108 547.47 65.6714C552.07 65.341 556.376 69.9783 559.018 73.1641C563.43 78.5093 566.532 84.8102 568.95 91.2764C569.516 92.7985 571.899 91.9254 571.321 90.3914C567.747 80.8692 561.625 67.6301 551.245 63.8071C542.115 60.456 538.376 70.344 538.022 77.6597C537.361 91.2174 542.516 105.896 550.266 116.917C554.052 122.309 562.486 131.914 569.988 127.029C574.034 124.398 575.131 118.781 575.402 114.333C575.921 106.179 573.999 98.0257 571.309 90.3796C570.767 88.8457 568.384 89.7189 568.938 91.2646L568.95 91.2764Z" fill="#3E57DA"/><path d="M653.314 60.6579C647.097 43.5722 636.057 31.9143 628.661 34.6046L615.792 39.289C608.396 41.9793 607.428 58.0148 613.645 75.1005C619.861 92.1863 630.902 103.844 638.298 101.154L651.167 96.4695C658.563 93.7792 659.53 77.7436 653.314 60.6579Z" fill="white"/><path d="M696.911 44.7873L696.852 44.6221C694.74 38.3801 689.609 33.2473 683.145 30.321C674.864 26.5688 665.428 27.7487 656.793 30.6042C648.159 33.4479 640.905 36.1618 632.258 39.5365C626.172 41.7548 625.381 54.9348 630.501 68.9763C635.608 83.0177 644.679 92.6107 650.766 90.3924C659.565 87.4189 666.867 84.823 675.313 81.4602C683.758 78.0973 691.744 72.9291 695.684 64.7285C698.751 58.3331 699.329 50.9348 696.934 44.7873H696.911Z" fill="white"/><path d="M545.052 63.5959C540.7 65.177 536.052 66.4632 531.853 68.4219C524.823 71.7021 524.728 81.9087 525.306 88.4457C526.297 99.7496 530.414 111.195 536.724 120.611C540.204 125.803 546.031 133.166 553.062 132.965C555.468 132.894 557.874 131.679 560.104 130.865C562.887 129.85 565.659 128.835 568.443 127.832C569.977 127.278 569.104 124.894 567.558 125.449L559.974 128.21C557.862 128.977 555.432 130.287 553.144 130.44C548.709 130.723 544.545 126.428 541.962 123.372C537.998 118.7 535.026 113.213 532.714 107.561C530.119 101.189 528.279 94.4162 527.771 87.5371C527.418 82.7347 527.241 74.9824 531.487 71.5724C533.327 70.0974 536.17 69.531 538.34 68.7405C540.865 67.8201 543.401 66.8997 545.925 65.9794C547.459 65.4248 546.586 63.0413 545.04 63.6077L545.052 63.5959Z" fill="#3E57DA"/><path d="M655.449 88.1373C654.777 90.9456 653.562 94.0253 650.684 95.1816C649.174 95.7834 650.047 98.1669 651.568 97.5651C655.331 96.0548 657.053 92.3261 657.95 88.5857C658.327 86.9927 655.838 86.568 655.449 88.1491V88.1373Z" fill="#3E57DA"/><path d="M629.062 35.7002C631.999 34.7681 634.866 36.302 637.189 38.0129C638.499 38.9687 640.15 37.0454 638.829 36.0778C635.715 33.7887 632.07 32.0896 628.189 33.3285C626.632 33.8241 627.517 36.1958 629.074 35.712L629.062 35.7002Z" fill="#3E57DA"/><path d="M628.177 33.3286C623.825 34.9098 619.177 36.1959 614.978 38.1546C607.948 41.4349 607.853 51.6415 608.431 58.1784C609.422 69.4824 613.539 80.9279 619.849 90.3439C623.329 95.5357 629.156 102.899 636.187 102.698C638.593 102.627 640.999 101.412 643.229 100.598C646.012 99.583 648.784 98.5682 651.568 97.5652C653.102 97.0107 652.229 94.6272 650.683 95.1817C648.159 96.1021 645.623 97.0225 643.099 97.9428C640.987 98.7098 638.557 100.02 636.269 100.173C631.834 100.456 627.67 96.1611 625.087 93.105C621.123 88.4324 618.151 82.9456 615.839 77.2937C613.244 70.9219 611.404 64.149 610.897 57.2699C610.543 52.4675 610.366 44.7152 614.612 41.3051C616.452 39.8302 619.295 39.2638 621.465 38.4732C623.99 37.5529 626.526 36.6325 629.05 35.7121C630.584 35.1576 629.711 32.7741 628.165 33.3286H628.177Z" fill="#3E57DA"/><path d="M698.067 44.2549C694.056 33.4937 683.499 26.8506 672.175 26.6146C665.369 26.473 658.964 28.3963 652.594 30.5674C645.588 32.9509 638.675 35.5704 631.775 38.2607C630.253 38.8507 631.126 41.2342 632.66 40.6442C643.453 36.4436 654.906 31.063 666.454 29.5055C678.616 27.8653 691.202 33.1043 695.684 45.1516C696.25 46.6738 698.633 45.8006 698.055 44.2667L698.067 44.2549Z" fill="#3E57DA"/><path d="M695.684 45.128C699.99 57.3051 693.655 69.4115 683.24 75.9602C673.39 82.1549 661.229 85.388 650.283 89.0931C648.737 89.6122 649.61 91.9958 651.167 91.4648C658.422 89.0105 665.641 86.4736 672.777 83.6889C678.498 81.4588 684.113 78.9809 688.866 75.028C697.843 67.5589 702.03 55.4644 698.079 44.2431C697.536 42.7091 695.154 43.5823 695.708 45.128H695.684Z" fill="#3E57DA"/><path d="M650.283 89.0931C646.732 90.1432 643.288 87.0871 641.047 84.7036C637.248 80.6682 634.512 75.5944 632.447 70.497C630.242 65.0456 628.708 59.2403 628.413 53.3641C628.213 49.3287 628.26 42.5911 632.672 40.6324C634.158 39.9716 633.285 37.5881 631.787 38.2489C627.623 40.1014 626.302 44.6915 625.936 48.9157C625.287 56.5146 627.246 64.3849 630.065 71.382C633.002 78.6387 640.87 94.509 651.155 91.4766C652.724 91.0164 651.84 88.6329 650.271 89.1049L650.283 89.0931Z" fill="#3E57DA"/><path d="M554.796 84.8818C554.442 83.9142 553.463 83.1827 552.212 83.631C550.974 84.0794 550.702 85.2712 551.056 86.2387C551.41 87.2063 552.389 87.9379 553.64 87.4895C554.878 87.0411 555.149 85.8494 554.796 84.8818Z" fill="#3E57DA"/><path d="M562.687 107.655C562.333 106.688 561.354 105.956 560.104 106.404C558.865 106.853 558.594 108.045 558.948 109.012C559.302 109.98 560.281 110.711 561.531 110.263C562.77 109.815 563.041 108.623 562.687 107.655Z" fill="#3E57DA"/><path d="M498.618 307.112C498.142 307.112 497.675 307.028 497.218 306.86C496.77 306.692 496.397 306.463 496.098 306.174L495.874 307H495.272L494.992 303.976L495.776 303.906C495.916 304.288 496.079 304.629 496.266 304.928C496.453 305.217 496.663 305.46 496.896 305.656C497.139 305.842 497.4 305.987 497.68 306.09C497.96 306.183 498.259 306.23 498.576 306.23C498.977 306.23 499.313 306.169 499.584 306.048C499.855 305.917 500.06 305.73 500.2 305.488C500.34 305.245 500.41 304.956 500.41 304.62C500.41 304.265 500.34 303.966 500.2 303.724C500.06 303.472 499.827 303.248 499.5 303.052C499.183 302.856 498.753 302.674 498.212 302.506C497.68 302.338 497.232 302.16 496.868 301.974C496.504 301.787 496.21 301.582 495.986 301.358C495.762 301.134 495.599 300.877 495.496 300.588C495.393 300.298 495.342 299.972 495.342 299.608C495.342 299.281 495.389 298.982 495.482 298.712C495.575 298.432 495.706 298.184 495.874 297.97C496.051 297.746 496.261 297.554 496.504 297.396C496.756 297.237 497.036 297.116 497.344 297.032C497.652 296.948 497.983 296.906 498.338 296.906C498.721 296.906 499.094 296.971 499.458 297.102C499.831 297.232 500.149 297.41 500.41 297.634L500.592 296.906H501.236L501.544 299.748L500.788 299.86C500.648 299.356 500.461 298.945 500.228 298.628C500.004 298.301 499.738 298.058 499.43 297.9C499.131 297.741 498.781 297.662 498.38 297.662C497.876 297.662 497.465 297.806 497.148 298.096C496.84 298.376 496.686 298.749 496.686 299.216C496.686 299.524 496.756 299.79 496.896 300.014C497.036 300.238 497.265 300.443 497.582 300.63C497.899 300.807 498.329 300.989 498.87 301.176C499.402 301.353 499.855 301.544 500.228 301.75C500.601 301.946 500.9 302.16 501.124 302.394C501.348 302.618 501.511 302.87 501.614 303.15C501.717 303.43 501.768 303.752 501.768 304.116C501.768 304.554 501.689 304.956 501.53 305.32C501.381 305.684 501.166 306.001 500.886 306.272C500.606 306.542 500.27 306.752 499.878 306.902C499.495 307.042 499.075 307.112 498.618 307.112ZM506.621 307.112C505.931 307.112 505.329 306.967 504.815 306.678C504.302 306.379 503.905 305.964 503.625 305.432C503.355 304.89 503.219 304.256 503.219 303.528C503.219 302.725 503.364 302.034 503.653 301.456C503.943 300.868 504.358 300.415 504.899 300.098C505.441 299.78 506.08 299.622 506.817 299.622C507.499 299.622 508.087 299.766 508.581 300.056C509.076 300.345 509.459 300.756 509.729 301.288C510 301.82 510.135 302.45 510.135 303.178C510.135 303.971 509.991 304.666 509.701 305.264C509.412 305.852 509.006 306.309 508.483 306.636C507.961 306.953 507.34 307.112 506.621 307.112ZM506.817 306.258C507.228 306.258 507.573 306.155 507.853 305.95C508.133 305.735 508.343 305.422 508.483 305.012C508.633 304.601 508.707 304.102 508.707 303.514C508.707 303.028 508.656 302.599 508.553 302.226C508.46 301.843 508.32 301.521 508.133 301.26C507.956 300.989 507.737 300.784 507.475 300.644C507.214 300.504 506.92 300.434 506.593 300.434C506.173 300.434 505.819 300.536 505.529 300.742C505.24 300.947 505.016 301.246 504.857 301.638C504.708 302.03 504.633 302.52 504.633 303.108C504.633 303.77 504.722 304.335 504.899 304.802C505.077 305.268 505.329 305.628 505.655 305.88C505.982 306.132 506.369 306.258 506.817 306.258ZM511.412 306.916V306.258L512.084 306.132C512.233 306.104 512.331 306.048 512.378 305.964C512.424 305.87 512.448 305.702 512.448 305.46V301.512C512.448 301.185 512.42 300.966 512.364 300.854C512.308 300.742 512.177 300.672 511.972 300.644L511.286 300.546L511.37 299.874L513.274 299.72L513.442 299.818L513.596 301.078H513.638C513.908 300.602 514.221 300.242 514.576 300C514.93 299.748 515.313 299.622 515.724 299.622C516.162 299.622 516.512 299.743 516.774 299.986C517.035 300.228 517.166 300.55 517.166 300.952C517.166 301.194 517.128 301.4 517.054 301.568C516.988 301.726 516.886 301.848 516.746 301.932C516.606 302.016 516.433 302.058 516.228 302.058C515.966 302.058 515.761 302.006 515.612 301.904C515.472 301.792 515.402 301.638 515.402 301.442C515.402 301.367 515.411 301.292 515.43 301.218C515.448 301.143 515.476 301.059 515.514 300.966C515.56 300.863 515.612 300.751 515.668 300.63C515.462 300.527 515.248 300.513 515.024 300.588C514.8 300.653 514.59 300.788 514.394 300.994C514.207 301.19 514.053 301.432 513.932 301.722C513.81 302.002 513.75 302.3 513.75 302.618V305.488C513.75 305.712 513.768 305.866 513.806 305.95C513.852 306.024 513.95 306.071 514.1 306.09L515.304 306.272V306.916H511.412ZM518.029 306.916V306.258L518.701 306.132C518.85 306.104 518.948 306.048 518.995 305.964C519.041 305.87 519.065 305.702 519.065 305.46V301.512C519.065 301.185 519.037 300.966 518.981 300.854C518.925 300.742 518.794 300.672 518.589 300.644L517.903 300.546L517.987 299.874L519.891 299.72L520.059 299.818L520.213 301.078H520.255C520.525 300.602 520.838 300.242 521.193 300C521.547 299.748 521.93 299.622 522.341 299.622C522.779 299.622 523.129 299.743 523.391 299.986C523.652 300.228 523.783 300.55 523.783 300.952C523.783 301.194 523.745 301.4 523.671 301.568C523.605 301.726 523.503 301.848 523.363 301.932C523.223 302.016 523.05 302.058 522.845 302.058C522.583 302.058 522.378 302.006 522.229 301.904C522.089 301.792 522.019 301.638 522.019 301.442C522.019 301.367 522.028 301.292 522.047 301.218C522.065 301.143 522.093 301.059 522.131 300.966C522.177 300.863 522.229 300.751 522.285 300.63C522.079 300.527 521.865 300.513 521.641 300.588C521.417 300.653 521.207 300.788 521.011 300.994C520.824 301.19 520.67 301.432 520.549 301.722C520.427 302.002 520.367 302.3 520.367 302.618V305.488C520.367 305.712 520.385 305.866 520.423 305.95C520.469 306.024 520.567 306.071 520.717 306.09L521.921 306.272V306.916H518.029ZM525.458 310.136C525.019 310.136 524.669 310.033 524.408 309.828C524.147 309.632 524.016 309.361 524.016 309.016C524.016 308.745 524.1 308.521 524.268 308.344C524.445 308.166 524.665 308.078 524.926 308.078C525.141 308.078 525.313 308.124 525.444 308.218C525.575 308.311 525.649 308.437 525.668 308.596C525.677 308.652 525.677 308.745 525.668 308.876C525.659 309.006 525.635 309.179 525.598 309.394C525.794 309.403 525.971 309.361 526.13 309.268C526.289 309.174 526.443 308.997 526.592 308.736C526.751 308.484 526.933 308.115 527.138 307.63L527.488 306.832L525.164 301.316C525.052 301.036 524.959 300.858 524.884 300.784C524.819 300.7 524.711 300.639 524.562 300.602L524.072 300.49L524.198 299.818H527.53V300.448L526.858 300.546C526.69 300.564 526.578 300.62 526.522 300.714C526.466 300.807 526.489 300.984 526.592 301.246L528.16 305.194H528.23L529.798 301.344C529.891 301.129 529.91 300.961 529.854 300.84C529.807 300.718 529.681 300.634 529.476 300.588L528.86 300.448L529 299.818H531.898V300.462L531.38 300.574C531.231 300.611 531.114 300.672 531.03 300.756C530.955 300.84 530.853 301.031 530.722 301.33L528.034 307.686C527.838 308.152 527.642 308.54 527.446 308.848C527.259 309.165 527.063 309.417 526.858 309.604C526.662 309.79 526.447 309.926 526.214 310.01C525.99 310.094 525.738 310.136 525.458 310.136ZM532.281 309.268L531.889 308.764C532.169 308.54 532.393 308.325 532.561 308.12C532.738 307.924 532.869 307.723 532.953 307.518C533.037 307.322 533.088 307.121 533.107 306.916H532.771C532.556 306.916 532.384 306.888 532.253 306.832C532.132 306.766 532.038 306.678 531.973 306.566C531.917 306.444 531.889 306.304 531.889 306.146C531.889 305.847 531.982 305.6 532.169 305.404C532.356 305.208 532.603 305.11 532.911 305.11C533.322 305.11 533.62 305.25 533.807 305.53C534.003 305.8 534.101 306.118 534.101 306.482C534.101 306.752 534.036 307.06 533.905 307.406C533.774 307.751 533.574 308.087 533.303 308.414C533.032 308.74 532.692 309.025 532.281 309.268ZM541.539 307.112C541.129 307.112 540.783 307.037 540.503 306.888C540.233 306.738 540.027 306.51 539.887 306.202C539.757 305.894 539.691 305.502 539.691 305.026V300.686H538.585V299.972C538.912 299.944 539.183 299.846 539.397 299.678C539.612 299.5 539.78 299.234 539.901 298.88C540.023 298.516 540.102 298.049 540.139 297.48L540.811 297.396L540.993 297.48V299.818H543.163V300.686H540.993V304.928C540.993 305.32 541.073 305.614 541.231 305.81C541.399 305.996 541.651 306.09 541.987 306.09C542.23 306.09 542.459 306.052 542.673 305.978C542.888 305.903 543.107 305.791 543.331 305.642L543.639 306.132C543.341 306.449 543.009 306.692 542.645 306.86C542.291 307.028 541.922 307.112 541.539 307.112ZM544.484 306.916V306.272L545.128 306.146C545.287 306.118 545.389 306.057 545.436 305.964C545.492 305.87 545.52 305.707 545.52 305.474V297.886C545.52 297.559 545.483 297.349 545.408 297.256C545.343 297.153 545.179 297.083 544.918 297.046L544.302 296.948L544.386 296.262L546.668 296.192L546.822 296.346V300.798V300.924C547.037 300.532 547.359 300.219 547.788 299.986C548.217 299.743 548.675 299.622 549.16 299.622C549.655 299.622 550.07 299.715 550.406 299.902C550.742 300.079 550.999 300.345 551.176 300.7C551.353 301.054 551.442 301.493 551.442 302.016V305.586C551.442 305.791 551.465 305.931 551.512 306.006C551.559 306.071 551.68 306.122 551.876 306.16L552.534 306.272V306.916H549.104V306.286L549.72 306.174C549.897 306.136 550.009 306.08 550.056 306.006C550.112 305.931 550.14 305.791 550.14 305.586V302.408C550.14 301.969 550.093 301.619 550 301.358C549.916 301.096 549.771 300.91 549.566 300.798C549.361 300.676 549.085 300.616 548.74 300.616C548.357 300.616 548.021 300.695 547.732 300.854C547.443 301.012 547.219 301.241 547.06 301.54C546.901 301.829 546.822 302.17 546.822 302.562V305.53C546.822 305.735 546.845 305.88 546.892 305.964C546.939 306.048 547.032 306.104 547.172 306.132L547.914 306.286V306.916H544.484ZM553.53 306.916V306.244L554.328 306.118C554.514 306.09 554.631 306.029 554.678 305.936C554.734 305.842 554.762 305.665 554.762 305.404V301.554C554.762 301.218 554.729 300.994 554.664 300.882C554.608 300.77 554.472 300.7 554.258 300.672L553.586 300.574L553.684 299.888L555.896 299.776L556.064 299.846V305.46C556.064 305.637 556.087 305.782 556.134 305.894C556.18 306.006 556.306 306.08 556.512 306.118L557.296 306.258V306.916H553.53ZM555.21 298.236C554.939 298.236 554.715 298.152 554.538 297.984C554.36 297.806 554.272 297.582 554.272 297.312C554.272 297.041 554.36 296.817 554.538 296.64C554.715 296.462 554.939 296.374 555.21 296.374C555.49 296.374 555.718 296.462 555.896 296.64C556.073 296.808 556.162 297.027 556.162 297.298C556.162 297.568 556.073 297.792 555.896 297.97C555.718 298.147 555.49 298.236 555.21 298.236ZM558.542 307.112L558.318 304.704L559.088 304.648C559.219 305.012 559.377 305.315 559.564 305.558C559.751 305.8 559.97 305.982 560.222 306.104C560.474 306.225 560.749 306.286 561.048 306.286C561.468 306.286 561.795 306.183 562.028 305.978C562.261 305.763 562.378 305.469 562.378 305.096C562.378 304.89 562.327 304.718 562.224 304.578C562.131 304.438 561.963 304.312 561.72 304.2C561.477 304.078 561.151 303.962 560.74 303.85C560.329 303.738 559.979 303.616 559.69 303.486C559.401 303.346 559.167 303.192 558.99 303.024C558.813 302.856 558.682 302.669 558.598 302.464C558.523 302.249 558.486 302.002 558.486 301.722C558.486 301.292 558.584 300.924 558.78 300.616C558.976 300.298 559.256 300.056 559.62 299.888C559.984 299.71 560.409 299.622 560.894 299.622C561.183 299.622 561.468 299.668 561.748 299.762C562.037 299.846 562.266 299.958 562.434 300.098L562.546 299.622H563.148L563.33 301.904L562.546 301.834C562.453 301.386 562.257 301.031 561.958 300.77C561.659 300.499 561.314 300.364 560.922 300.364C560.521 300.364 560.208 300.452 559.984 300.63C559.76 300.807 559.648 301.059 559.648 301.386C559.648 301.591 559.695 301.764 559.788 301.904C559.891 302.044 560.059 302.17 560.292 302.282C560.535 302.394 560.861 302.51 561.272 302.632C561.683 302.753 562.033 302.884 562.322 303.024C562.611 303.154 562.845 303.304 563.022 303.472C563.199 303.64 563.33 303.831 563.414 304.046C563.498 304.26 563.54 304.508 563.54 304.788C563.54 305.245 563.433 305.651 563.218 306.006C563.003 306.351 562.709 306.622 562.336 306.818C561.963 307.014 561.524 307.112 561.02 307.112C560.656 307.112 560.32 307.07 560.012 306.986C559.713 306.902 559.466 306.785 559.27 306.636L559.116 307.112H558.542ZM567.241 309.94V309.282L567.913 309.17C568.053 309.151 568.155 309.09 568.221 308.988C568.286 308.894 568.319 308.736 568.319 308.512V301.526C568.319 301.171 568.286 300.938 568.221 300.826C568.155 300.714 568.015 300.644 567.801 300.616L567.157 300.532L567.269 299.86L569.201 299.72L569.383 299.804L569.467 301.064H569.509C569.733 300.728 569.971 300.457 570.223 300.252C570.475 300.037 570.75 299.878 571.049 299.776C571.357 299.673 571.688 299.622 572.043 299.622C572.612 299.622 573.097 299.762 573.499 300.042C573.9 300.322 574.208 300.723 574.423 301.246C574.647 301.768 574.759 302.394 574.759 303.122C574.759 303.962 574.628 304.68 574.367 305.278C574.115 305.875 573.741 306.332 573.247 306.65C572.761 306.958 572.173 307.112 571.483 307.112C571.137 307.112 570.792 307.07 570.447 306.986C570.111 306.902 569.835 306.79 569.621 306.65V308.47C569.621 308.694 569.653 308.857 569.719 308.96C569.784 309.062 569.901 309.128 570.069 309.156L570.923 309.296V309.94H567.241ZM571.385 306.202C571.795 306.202 572.145 306.09 572.435 305.866C572.733 305.632 572.957 305.301 573.107 304.872C573.265 304.442 573.345 303.924 573.345 303.318C573.345 302.711 573.279 302.207 573.149 301.806C573.018 301.404 572.822 301.106 572.561 300.91C572.309 300.704 571.987 300.602 571.595 300.602C571.184 300.602 570.829 300.686 570.531 300.854C570.241 301.022 570.017 301.26 569.859 301.568C569.7 301.866 569.621 302.23 569.621 302.66V305.6C569.807 305.777 570.064 305.922 570.391 306.034C570.727 306.146 571.058 306.202 571.385 306.202ZM578.093 307.112C577.505 307.112 577.029 306.939 576.665 306.594C576.311 306.248 576.133 305.791 576.133 305.222C576.133 304.708 576.259 304.293 576.511 303.976C576.773 303.658 577.197 303.42 577.785 303.262C578.373 303.094 579.162 302.986 580.151 302.94V301.974C580.151 301.591 580.095 301.278 579.983 301.036C579.881 300.793 579.717 300.616 579.493 300.504C579.279 300.382 578.994 300.322 578.639 300.322C578.387 300.322 578.135 300.364 577.883 300.448C577.641 300.522 577.459 300.62 577.337 300.742C577.431 300.882 577.505 301.003 577.561 301.106C577.617 301.208 577.655 301.297 577.673 301.372C577.701 301.437 577.715 301.493 577.715 301.54C577.715 301.717 577.641 301.866 577.491 301.988C577.351 302.109 577.174 302.17 576.959 302.17C576.707 302.17 576.511 302.109 576.371 301.988C576.231 301.857 576.161 301.675 576.161 301.442C576.161 301.115 576.283 300.816 576.525 300.546C576.777 300.266 577.104 300.042 577.505 299.874C577.916 299.706 578.359 299.622 578.835 299.622C579.423 299.622 579.909 299.715 580.291 299.902C580.683 300.079 580.973 300.354 581.159 300.728C581.355 301.101 581.453 301.572 581.453 302.142V305.53C581.453 305.735 581.505 305.889 581.607 305.992C581.719 306.094 581.878 306.146 582.083 306.146C582.186 306.146 582.289 306.136 582.391 306.118C582.494 306.099 582.611 306.071 582.741 306.034L582.881 306.552C582.713 306.71 582.508 306.841 582.265 306.944C582.023 307.056 581.799 307.112 581.593 307.112C581.192 307.112 580.879 307.009 580.655 306.804C580.441 306.589 580.31 306.276 580.263 305.866C580.086 306.146 579.89 306.379 579.675 306.566C579.461 306.743 579.223 306.878 578.961 306.972C578.7 307.065 578.411 307.112 578.093 307.112ZM578.625 306.16C578.915 306.16 579.171 306.094 579.395 305.964C579.629 305.833 579.811 305.656 579.941 305.432C580.081 305.208 580.151 304.956 580.151 304.676V303.654C579.554 303.654 579.055 303.705 578.653 303.808C578.261 303.91 577.967 304.069 577.771 304.284C577.585 304.489 577.491 304.75 577.491 305.068C577.491 305.404 577.594 305.67 577.799 305.866C578.005 306.062 578.28 306.16 578.625 306.16ZM586.508 310.136C585.976 310.136 585.509 310.098 585.108 310.024C584.707 309.949 584.371 309.837 584.1 309.688C583.839 309.548 583.638 309.37 583.498 309.156C583.367 308.941 583.302 308.689 583.302 308.4C583.302 308.166 583.344 307.952 583.428 307.756C583.521 307.569 583.661 307.396 583.848 307.238C584.044 307.079 584.291 306.934 584.59 306.804V306.748C584.347 306.673 584.147 306.533 583.988 306.328C583.839 306.122 583.764 305.903 583.764 305.67C583.764 305.418 583.825 305.184 583.946 304.97C584.077 304.746 584.319 304.447 584.674 304.074V304.032C584.329 303.854 584.067 303.607 583.89 303.29C583.722 302.963 583.638 302.571 583.638 302.114C583.638 301.61 583.755 301.171 583.988 300.798C584.231 300.424 584.571 300.135 585.01 299.93C585.449 299.724 585.957 299.622 586.536 299.622C586.76 299.622 586.979 299.64 587.194 299.678C587.409 299.715 587.614 299.766 587.81 299.832C588.015 299.897 588.197 299.981 588.356 300.084C588.505 299.664 588.706 299.342 588.958 299.118C589.21 298.884 589.495 298.768 589.812 298.768C589.999 298.768 590.162 298.8 590.302 298.866C590.442 298.931 590.549 299.02 590.624 299.132C590.708 299.234 590.75 299.36 590.75 299.51C590.75 299.715 590.671 299.897 590.512 300.056C590.353 300.214 590.167 300.294 589.952 300.294C589.831 300.294 589.723 300.261 589.63 300.196C589.537 300.13 589.457 300.037 589.392 299.916L589.252 299.608C589.168 299.738 589.093 299.874 589.028 300.014C588.972 300.144 588.911 300.303 588.846 300.49C589.023 300.695 589.154 300.933 589.238 301.204C589.331 301.465 589.378 301.745 589.378 302.044C589.378 302.538 589.261 302.968 589.028 303.332C588.795 303.696 588.468 303.98 588.048 304.186C587.628 304.382 587.129 304.48 586.55 304.48C586.345 304.48 586.13 304.466 585.906 304.438C585.682 304.41 585.514 304.377 585.402 304.34C585.234 304.526 585.117 304.68 585.052 304.802C584.987 304.923 584.954 305.049 584.954 305.18C584.954 305.31 584.987 305.422 585.052 305.516C585.117 305.6 585.22 305.66 585.36 305.698C585.509 305.735 585.705 305.754 585.948 305.754H587.74C588.599 305.754 589.224 305.898 589.616 306.188C590.017 306.477 590.218 306.934 590.218 307.56C590.218 307.886 590.162 308.18 590.05 308.442C589.947 308.712 589.793 308.95 589.588 309.156C589.383 309.37 589.131 309.548 588.832 309.688C588.533 309.837 588.188 309.949 587.796 310.024C587.404 310.098 586.975 310.136 586.508 310.136ZM586.62 309.268C587.096 309.268 587.502 309.212 587.838 309.1C588.183 308.988 588.445 308.829 588.622 308.624C588.809 308.428 588.902 308.185 588.902 307.896C588.902 307.606 588.79 307.387 588.566 307.238C588.351 307.098 588.025 307.028 587.586 307.028H585.234C585.019 307.186 584.856 307.359 584.744 307.546C584.641 307.742 584.59 307.956 584.59 308.19C584.59 308.572 584.744 308.848 585.052 309.016C585.369 309.184 585.892 309.268 586.62 309.268ZM586.522 303.752C587.017 303.752 587.395 303.607 587.656 303.318C587.917 303.019 588.048 302.608 588.048 302.086C588.048 301.526 587.908 301.092 587.628 300.784C587.348 300.476 586.951 300.322 586.438 300.322C585.953 300.322 585.584 300.466 585.332 300.756C585.089 301.045 584.968 301.474 584.968 302.044C584.968 302.557 585.108 302.972 585.388 303.29C585.668 303.598 586.046 303.752 586.522 303.752ZM594.475 307.112C593.794 307.112 593.201 306.962 592.697 306.664C592.203 306.365 591.815 305.94 591.535 305.39C591.265 304.839 591.129 304.195 591.129 303.458C591.129 302.683 591.269 302.011 591.549 301.442C591.839 300.863 592.24 300.415 592.753 300.098C593.267 299.78 593.864 299.622 594.545 299.622C595.059 299.622 595.507 299.724 595.889 299.93C596.281 300.135 596.585 300.424 596.799 300.798C597.014 301.171 597.121 301.605 597.121 302.1C597.121 302.296 597.103 302.51 597.065 302.744C597.037 302.968 596.991 303.206 596.925 303.458H592.543C592.562 303.999 592.665 304.47 592.851 304.872C593.038 305.264 593.295 305.562 593.621 305.768C593.957 305.973 594.349 306.076 594.797 306.076C595.152 306.076 595.497 306.001 595.833 305.852C596.169 305.702 596.468 305.497 596.729 305.236L597.219 305.712C596.902 306.15 596.496 306.496 596.001 306.748C595.507 306.99 594.998 307.112 594.475 307.112ZM592.543 302.688H595.763C595.782 302.594 595.791 302.496 595.791 302.394C595.801 302.282 595.805 302.165 595.805 302.044C595.805 301.484 595.684 301.064 595.441 300.784C595.208 300.494 594.858 300.35 594.391 300.35C594.037 300.35 593.729 300.438 593.467 300.616C593.215 300.793 593.01 301.054 592.851 301.4C592.693 301.745 592.59 302.174 592.543 302.688ZM604.062 307.112C603.465 307.112 602.951 306.972 602.522 306.692C602.093 306.412 601.761 306.01 601.528 305.488C601.304 304.956 601.192 304.321 601.192 303.584C601.192 302.772 601.332 302.072 601.612 301.484C601.892 300.886 602.284 300.429 602.788 300.112C603.301 299.785 603.908 299.622 604.608 299.622C604.916 299.622 605.224 299.664 605.532 299.748C605.849 299.832 606.115 299.944 606.33 300.084V297.886C606.33 297.559 606.293 297.349 606.218 297.256C606.153 297.153 605.989 297.083 605.728 297.046L605.112 296.948L605.196 296.262L607.478 296.192L607.632 296.346V305.558C607.632 305.782 607.66 305.936 607.716 306.02C607.781 306.094 607.907 306.15 608.094 306.188L608.78 306.314V306.958L606.624 307.042L606.428 305.936H606.386C606.181 306.197 605.957 306.416 605.714 306.594C605.481 306.762 605.224 306.888 604.944 306.972C604.673 307.065 604.379 307.112 604.062 307.112ZM604.468 306.118C604.841 306.118 605.163 306.029 605.434 305.852C605.714 305.665 605.933 305.413 606.092 305.096C606.251 304.769 606.33 304.396 606.33 303.976V301.12C606.097 300.933 605.826 300.788 605.518 300.686C605.219 300.583 604.907 300.532 604.58 300.532C604.132 300.532 603.759 300.644 603.46 300.868C603.171 301.082 602.951 301.404 602.802 301.834C602.653 302.263 602.578 302.8 602.578 303.444C602.578 304.013 602.648 304.498 602.788 304.9C602.937 305.301 603.152 305.604 603.432 305.81C603.721 306.015 604.067 306.118 604.468 306.118ZM613.029 307.112C612.339 307.112 611.737 306.967 611.223 306.678C610.71 306.379 610.313 305.964 610.033 305.432C609.763 304.89 609.627 304.256 609.627 303.528C609.627 302.725 609.772 302.034 610.061 301.456C610.351 300.868 610.766 300.415 611.307 300.098C611.849 299.78 612.488 299.622 613.225 299.622C613.907 299.622 614.495 299.766 614.989 300.056C615.484 300.345 615.867 300.756 616.137 301.288C616.408 301.82 616.543 302.45 616.543 303.178C616.543 303.971 616.399 304.666 616.109 305.264C615.82 305.852 615.414 306.309 614.891 306.636C614.369 306.953 613.748 307.112 613.029 307.112ZM613.225 306.258C613.636 306.258 613.981 306.155 614.261 305.95C614.541 305.735 614.751 305.422 614.891 305.012C615.041 304.601 615.115 304.102 615.115 303.514C615.115 303.028 615.064 302.599 614.961 302.226C614.868 301.843 614.728 301.521 614.541 301.26C614.364 300.989 614.145 300.784 613.883 300.644C613.622 300.504 613.328 300.434 613.001 300.434C612.581 300.434 612.227 300.536 611.937 300.742C611.648 300.947 611.424 301.246 611.265 301.638C611.116 302.03 611.041 302.52 611.041 303.108C611.041 303.77 611.13 304.335 611.307 304.802C611.485 305.268 611.737 305.628 612.063 305.88C612.39 306.132 612.777 306.258 613.225 306.258ZM621.177 307.112C620.495 307.112 619.903 306.962 619.399 306.664C618.904 306.365 618.517 305.94 618.237 305.39C617.966 304.839 617.831 304.195 617.831 303.458C617.831 302.683 617.971 302.011 618.251 301.442C618.54 300.863 618.941 300.415 619.455 300.098C619.968 299.78 620.565 299.622 621.247 299.622C621.76 299.622 622.208 299.724 622.591 299.93C622.983 300.135 623.286 300.424 623.501 300.798C623.715 301.171 623.823 301.605 623.823 302.1C623.823 302.296 623.804 302.51 623.767 302.744C623.739 302.968 623.692 303.206 623.627 303.458H619.245C619.263 303.999 619.366 304.47 619.553 304.872C619.739 305.264 619.996 305.562 620.323 305.768C620.659 305.973 621.051 306.076 621.499 306.076C621.853 306.076 622.199 306.001 622.535 305.852C622.871 305.702 623.169 305.497 623.431 305.236L623.921 305.712C623.603 306.15 623.197 306.496 622.703 306.748C622.208 306.99 621.699 307.112 621.177 307.112ZM619.245 302.688H622.465C622.483 302.594 622.493 302.496 622.493 302.394C622.502 302.282 622.507 302.165 622.507 302.044C622.507 301.484 622.385 301.064 622.143 300.784C621.909 300.494 621.559 300.35 621.093 300.35C620.738 300.35 620.43 300.438 620.169 300.616C619.917 300.793 619.711 301.054 619.553 301.4C619.394 301.745 619.291 302.174 619.245 302.688ZM625.151 307.112L624.927 304.704L625.697 304.648C625.828 305.012 625.987 305.315 626.173 305.558C626.36 305.8 626.579 305.982 626.831 306.104C627.083 306.225 627.359 306.286 627.657 306.286C628.077 306.286 628.404 306.183 628.637 305.978C628.871 305.763 628.987 305.469 628.987 305.096C628.987 304.89 628.936 304.718 628.833 304.578C628.74 304.438 628.572 304.312 628.329 304.2C628.087 304.078 627.76 303.962 627.349 303.85C626.939 303.738 626.589 303.616 626.299 303.486C626.01 303.346 625.777 303.192 625.599 303.024C625.422 302.856 625.291 302.669 625.207 302.464C625.133 302.249 625.095 302.002 625.095 301.722C625.095 301.292 625.193 300.924 625.389 300.616C625.585 300.298 625.865 300.056 626.229 299.888C626.593 299.71 627.018 299.622 627.503 299.622C627.793 299.622 628.077 299.668 628.357 299.762C628.647 299.846 628.875 299.958 629.043 300.098L629.155 299.622H629.757L629.939 301.904L629.155 301.834C629.062 301.386 628.866 301.031 628.567 300.77C628.269 300.499 627.923 300.364 627.531 300.364C627.13 300.364 626.817 300.452 626.593 300.63C626.369 300.807 626.257 301.059 626.257 301.386C626.257 301.591 626.304 301.764 626.397 301.904C626.5 302.044 626.668 302.17 626.901 302.282C627.144 302.394 627.471 302.51 627.881 302.632C628.292 302.753 628.642 302.884 628.931 303.024C629.221 303.154 629.454 303.304 629.631 303.472C629.809 303.64 629.939 303.831 630.023 304.046C630.107 304.26 630.149 304.508 630.149 304.788C630.149 305.245 630.042 305.651 629.827 306.006C629.613 306.351 629.319 306.622 628.945 306.818C628.572 307.014 628.133 307.112 627.629 307.112C627.265 307.112 626.929 307.07 626.621 306.986C626.323 306.902 626.075 306.785 625.879 306.636L625.725 307.112H625.151ZM631.341 306.916V306.272L632.013 306.146C632.163 306.118 632.261 306.062 632.307 305.978C632.354 305.884 632.377 305.716 632.377 305.474V301.498C632.377 301.162 632.349 300.942 632.293 300.84C632.237 300.728 632.107 300.658 631.901 300.63L631.215 300.532L631.299 299.874L633.259 299.72L633.427 299.818L633.525 301.064H633.567C633.819 300.625 634.165 300.275 634.603 300.014C635.051 299.752 635.523 299.622 636.017 299.622C636.512 299.622 636.927 299.715 637.263 299.902C637.599 300.079 637.856 300.345 638.033 300.7C638.211 301.054 638.299 301.493 638.299 302.016V305.586C638.299 305.791 638.327 305.931 638.383 306.006C638.439 306.08 638.556 306.132 638.733 306.16L639.391 306.272V306.916H635.961V306.286L636.577 306.174C636.755 306.136 636.867 306.08 636.913 306.006C636.969 305.931 636.997 305.791 636.997 305.586V302.408C636.997 301.969 636.951 301.619 636.857 301.358C636.773 301.096 636.629 300.91 636.423 300.798C636.218 300.676 635.943 300.616 635.597 300.616C635.215 300.616 634.879 300.695 634.589 300.854C634.3 301.012 634.076 301.241 633.917 301.54C633.759 301.829 633.679 302.17 633.679 302.562V305.53C633.679 305.735 633.703 305.88 633.749 305.964C633.796 306.048 633.889 306.104 634.029 306.132L634.771 306.286V306.916H631.341ZM640.625 299.23L640.261 297.018C640.252 296.971 640.242 296.924 640.233 296.878C640.233 296.831 640.233 296.789 640.233 296.752C640.233 296.546 640.298 296.364 640.429 296.206C640.56 296.047 640.742 295.968 640.975 295.968C641.106 295.968 641.236 296.014 641.367 296.108C641.498 296.201 641.563 296.327 641.563 296.486C641.563 296.532 641.558 296.588 641.549 296.654C641.549 296.71 641.54 296.775 641.521 296.85L641.101 299.23H640.625ZM645.473 307.112C645.062 307.112 644.717 307.037 644.437 306.888C644.166 306.738 643.961 306.51 643.821 306.202C643.69 305.894 643.625 305.502 643.625 305.026V300.686H642.519V299.972C642.846 299.944 643.116 299.846 643.331 299.678C643.546 299.5 643.714 299.234 643.835 298.88C643.956 298.516 644.036 298.049 644.073 297.48L644.745 297.396L644.927 297.48V299.818H647.097V300.686H644.927V304.928C644.927 305.32 645.006 305.614 645.165 305.81C645.333 305.996 645.585 306.09 645.921 306.09C646.164 306.09 646.392 306.052 646.607 305.978C646.822 305.903 647.041 305.791 647.265 305.642L647.573 306.132C647.274 306.449 646.943 306.692 646.579 306.86C646.224 307.028 645.856 307.112 645.473 307.112ZM654.44 307.112C653.759 307.112 653.166 306.962 652.662 306.664C652.168 306.365 651.78 305.94 651.5 305.39C651.23 304.839 651.094 304.195 651.094 303.458C651.094 302.683 651.234 302.011 651.514 301.442C651.804 300.863 652.205 300.415 652.718 300.098C653.232 299.78 653.829 299.622 654.51 299.622C655.024 299.622 655.472 299.724 655.854 299.93C656.246 300.135 656.55 300.424 656.764 300.798C656.979 301.171 657.086 301.605 657.086 302.1C657.086 302.296 657.068 302.51 657.03 302.744C657.002 302.968 656.956 303.206 656.89 303.458H652.508C652.527 303.999 652.63 304.47 652.816 304.872C653.003 305.264 653.26 305.562 653.586 305.768C653.922 305.973 654.314 306.076 654.762 306.076C655.117 306.076 655.462 306.001 655.798 305.852C656.134 305.702 656.433 305.497 656.694 305.236L657.184 305.712C656.867 306.15 656.461 306.496 655.966 306.748C655.472 306.99 654.963 307.112 654.44 307.112ZM652.508 302.688H655.728C655.747 302.594 655.756 302.496 655.756 302.394C655.766 302.282 655.77 302.165 655.77 302.044C655.77 301.484 655.649 301.064 655.406 300.784C655.173 300.494 654.823 300.35 654.356 300.35C654.002 300.35 653.694 300.438 653.432 300.616C653.18 300.793 652.975 301.054 652.816 301.4C652.658 301.745 652.555 302.174 652.508 302.688ZM657.822 306.916V306.272L658.354 306.16C658.457 306.132 658.546 306.104 658.62 306.076C658.695 306.038 658.779 305.982 658.872 305.908C658.966 305.824 659.082 305.712 659.222 305.572L660.916 303.458L659.152 301.26C658.956 301.017 658.807 300.858 658.704 300.784C658.611 300.7 658.466 300.639 658.27 300.602L657.794 300.49L657.92 299.818H661.294V300.448L660.72 300.546C660.571 300.574 660.478 300.63 660.44 300.714C660.412 300.798 660.478 300.942 660.636 301.148L661.826 302.632L662.918 301.204C663.068 301.008 663.138 300.872 663.128 300.798C663.119 300.714 663.007 300.644 662.792 300.588L662.26 300.448L662.4 299.818H665.27V300.462L664.724 300.574C664.612 300.602 664.514 300.639 664.43 300.686C664.346 300.723 664.258 300.784 664.164 300.868C664.08 300.942 663.978 301.059 663.856 301.218L662.274 303.206L664.094 305.474C664.216 305.623 664.323 305.744 664.416 305.838C664.519 305.931 664.622 306.006 664.724 306.062C664.827 306.108 664.939 306.141 665.06 306.16L665.592 306.244V306.916H661.882V306.272L662.512 306.188C662.699 306.169 662.802 306.108 662.82 306.006C662.839 305.894 662.774 305.749 662.624 305.572L661.392 304.046L660.202 305.586C660.128 305.688 660.072 305.777 660.034 305.852C660.006 305.917 660.011 305.973 660.048 306.02C660.095 306.066 660.184 306.108 660.314 306.146L660.93 306.286V306.916H657.822ZM666.2 306.916V306.244L666.998 306.118C667.184 306.09 667.301 306.029 667.348 305.936C667.404 305.842 667.432 305.665 667.432 305.404V301.554C667.432 301.218 667.399 300.994 667.334 300.882C667.278 300.77 667.142 300.7 666.928 300.672L666.256 300.574L666.354 299.888L668.566 299.776L668.734 299.846V305.46C668.734 305.637 668.757 305.782 668.804 305.894C668.85 306.006 668.976 306.08 669.182 306.118L669.966 306.258V306.916H666.2ZM667.88 298.236C667.609 298.236 667.385 298.152 667.208 297.984C667.03 297.806 666.942 297.582 666.942 297.312C666.942 297.041 667.03 296.817 667.208 296.64C667.385 296.462 667.609 296.374 667.88 296.374C668.16 296.374 668.388 296.462 668.566 296.64C668.743 296.808 668.832 297.027 668.832 297.298C668.832 297.568 668.743 297.792 668.566 297.97C668.388 298.147 668.16 298.236 667.88 298.236ZM671.212 307.112L670.988 304.704L671.758 304.648C671.888 305.012 672.047 305.315 672.234 305.558C672.42 305.8 672.64 305.982 672.892 306.104C673.144 306.225 673.419 306.286 673.718 306.286C674.138 306.286 674.464 306.183 674.698 305.978C674.931 305.763 675.048 305.469 675.048 305.096C675.048 304.89 674.996 304.718 674.894 304.578C674.8 304.438 674.632 304.312 674.39 304.2C674.147 304.078 673.82 303.962 673.41 303.85C672.999 303.738 672.649 303.616 672.36 303.486C672.07 303.346 671.837 303.192 671.66 303.024C671.482 302.856 671.352 302.669 671.268 302.464C671.193 302.249 671.156 302.002 671.156 301.722C671.156 301.292 671.254 300.924 671.45 300.616C671.646 300.298 671.926 300.056 672.29 299.888C672.654 299.71 673.078 299.622 673.564 299.622C673.853 299.622 674.138 299.668 674.418 299.762C674.707 299.846 674.936 299.958 675.104 300.098L675.216 299.622H675.818L676 301.904L675.216 301.834C675.122 301.386 674.926 301.031 674.628 300.77C674.329 300.499 673.984 300.364 673.592 300.364C673.19 300.364 672.878 300.452 672.654 300.63C672.43 300.807 672.318 301.059 672.318 301.386C672.318 301.591 672.364 301.764 672.458 301.904C672.56 302.044 672.728 302.17 672.962 302.282C673.204 302.394 673.531 302.51 673.942 302.632C674.352 302.753 674.702 302.884 674.992 303.024C675.281 303.154 675.514 303.304 675.692 303.472C675.869 303.64 676 303.831 676.084 304.046C676.168 304.26 676.21 304.508 676.21 304.788C676.21 305.245 676.102 305.651 675.888 306.006C675.673 306.351 675.379 306.622 675.006 306.818C674.632 307.014 674.194 307.112 673.69 307.112C673.326 307.112 672.99 307.07 672.682 306.986C672.383 306.902 672.136 306.785 671.94 306.636L671.786 307.112H671.212ZM679.967 307.112C679.556 307.112 679.211 307.037 678.931 306.888C678.66 306.738 678.455 306.51 678.315 306.202C678.184 305.894 678.119 305.502 678.119 305.026V300.686H677.013V299.972C677.34 299.944 677.61 299.846 677.825 299.678C678.04 299.5 678.208 299.234 678.329 298.88C678.45 298.516 678.53 298.049 678.567 297.48L679.239 297.396L679.421 297.48V299.818H681.591V300.686H679.421V304.928C679.421 305.32 679.5 305.614 679.659 305.81C679.827 305.996 680.079 306.09 680.415 306.09C680.658 306.09 680.886 306.052 681.101 305.978C681.316 305.903 681.535 305.791 681.759 305.642L682.067 306.132C681.768 306.449 681.437 306.692 681.073 306.86C680.718 307.028 680.35 307.112 679.967 307.112ZM684.466 307.154C684.158 307.154 683.901 307.056 683.696 306.86C683.5 306.664 683.402 306.412 683.402 306.104C683.402 305.796 683.5 305.544 683.696 305.348C683.901 305.142 684.158 305.04 684.466 305.04C684.783 305.04 685.04 305.138 685.236 305.334C685.441 305.53 685.544 305.782 685.544 306.09C685.544 306.398 685.441 306.654 685.236 306.86C685.04 307.056 684.783 307.154 684.466 307.154Z" fill="#0B0858"/></svg>