<svg width="41" height="45" viewBox="0 0 41 45" fill="none" xmlns="http://www.w3.org/2000/svg">
<g id="Group">
<path id="Vector" d="M18.5 15.875H37.6144C38.6684 15.875 39.1954 15.875 39.5056 16.215C39.8138 16.555 39.7734 17.0926 39.6926 18.1636L38.373 35.6524C38.0925 39.3754 37.9523 41.2369 36.7516 42.3674C35.5531 43.5 33.7214 43.5 30.0579 43.5H20.4869C16.8255 43.5 14.9937 43.5 13.7931 42.3674C12.0124 40.6844 12.2993 37.2738 12.125 35" stroke="black" stroke-width="1.5" stroke-linecap="round" stroke-linejoin="round"/>
<path id="Vector_2" d="M18.5 15.6837V27.2735C18.5 30.9158 18.5 32.7348 17.2547 33.8695C16.0095 35 14.0078 35 10 35C5.99225 35 3.9905 35 2.74525 33.8695C1.5 32.7369 1.5 30.9158 1.5 27.2735V25.3398C1.5 19.8785 1.5 17.1457 3.36787 15.4479C5.23362 13.75 8.2405 13.75 14.25 13.75H16.375C17.3759 13.75 17.8774 13.75 18.1898 14.0326C18.5 14.3153 18.5 14.7742 18.5 15.6837Z" stroke="black" stroke-width="1.5" stroke-linecap="round" stroke-linejoin="round"/>
<path id="Vector_3" d="M35.5 15.875C35.5 7.65975 30.7188 1 24.8219 1C19.4414 1 14.9895 6.542 14.25 13.75M1.5 26.5H18.5M18.5 24.375H37.625" stroke="black" stroke-width="1.5" stroke-linecap="round" stroke-linejoin="round"/>
</g>
</svg>
