<svg viewBox="0 0 51 52" fill="none" xmlns="http://www.w3.org/2000/svg"><g id="Frame" clip-path="url(#clip0_863_7)"><path id="Vector" d="M25.5 25.6587C25.5 32.7031 19.788 38.4087 12.75 38.4087C5.712 38.4087 0 32.7031 0 25.6587C0 18.6207 5.712 12.9087 12.75 12.9087C19.788 12.9087 25.5 18.6143 25.5 25.6587Z" fill="black"/><path id="Vector_2" d="M28.6875 51.1587C32.2083 51.1587 35.0625 48.3045 35.0625 44.7837C35.0625 41.2629 32.2083 38.4087 28.6875 38.4087C25.1667 38.4087 22.3125 41.2629 22.3125 44.7837C22.3125 48.3045 25.1667 51.1587 28.6875 51.1587Z" fill="black"/><path id="Vector_3" d="M50.9999 42.6606C48.6539 42.6606 46.7478 44.5668 46.7478 46.9128H44.6249C44.6249 44.5668 42.7188 42.6606 40.3728 42.6606V40.5378C42.7252 40.5378 44.6249 38.6316 44.6249 36.2856H46.7478C46.7478 38.6316 48.6539 40.5378 50.9999 40.5378V42.6606Z" fill="black"/><path id="Vector_4" d="M14.8729 46.9064C16.0453 46.9064 16.9957 45.956 16.9957 44.7835C16.9957 43.6111 16.0453 42.6606 14.8729 42.6606C13.7004 42.6606 12.75 43.6111 12.75 44.7835C12.75 45.956 13.7004 46.9064 14.8729 46.9064Z" fill="black"/><path id="Vector_5" d="M2.12287 12.9086C3.29531 12.9086 4.24575 11.9581 4.24575 10.7857C4.24575 9.61329 3.29531 8.66284 2.12287 8.66284C0.950443 8.66284 0 9.61329 0 10.7857C0 11.9581 0.950443 12.9086 2.12287 12.9086Z" fill="black"/><path id="Vector_6" d="M13.8147 8.65649C15.5751 8.65649 17.0022 7.2294 17.0022 5.46899C17.0022 3.70859 15.5751 2.28149 13.8147 2.28149C12.0543 2.28149 10.6272 3.70859 10.6272 5.46899C10.6272 7.2294 12.0543 8.65649 13.8147 8.65649Z" fill="black"/><path id="Vector_7" d="M8.4978 47.9712C8.4978 49.7371 7.0698 51.1587 5.3103 51.1587C3.5508 51.1587 2.1228 49.7371 2.1228 47.9712C2.1228 46.2117 3.5508 44.7837 5.3103 44.7837C7.0698 44.7837 8.4978 46.2117 8.4978 47.9712Z" fill="black"/><path id="Vector_8" d="M33.9979 0.158569C27.2659 0.158569 21.4647 4.07919 18.7107 9.75932C25.1494 12.1818 29.7458 18.3847 29.7458 25.6586C29.7458 28.3106 29.1211 30.8159 28.0309 33.0599C29.8924 33.7612 31.8942 34.1564 33.9979 34.1564C43.3883 34.1564 51.0001 26.5447 51.0001 17.1607C51.0001 7.77669 43.3883 0.158569 33.9979 0.158569ZM42.5022 17.1607C42.5022 12.4623 38.7027 8.66282 34.0043 8.66282V4.41069C41.0487 4.41069 46.7543 10.1163 46.7543 17.1607H42.5022Z" fill="black"/></g><defs><clipPath id="clip0_863_7"><rect width="51" height="51" fill="white" transform="translate(0 0.158569)"/></clipPath></defs></svg>