<svg width="8668" height="2331" viewBox="0 0 8668 2331" fill="none" xmlns="http://www.w3.org/2000/svg">
<path fill-rule="evenodd" clip-rule="evenodd" d="M8667.45 1294.89L8429.11 1467.55C8183.55 1640.2 7706.87 1985.5 7222.97 1942.34C6739.06 1899.18 6262.39 1467.55 5778.48 1079.08C5294.58 690.61 4817.9 345.305 4334 388.468C3850.1 431.631 3373.42 863.263 2889.52 1122.24C2405.62 1381.22 1928.94 1467.55 1445.03 1251.73C961.133 1035.92 484.454 517.958 238.892 258.979L0.551826 0V2330.81H238.892C484.454 2330.81 961.133 2330.81 1445.03 2330.81C1928.94 2330.81 2405.62 2330.81 2889.52 2330.81C3373.42 2330.81 3850.1 2330.81 4334 2330.81C4817.9 2330.81 5294.58 2330.81 5778.48 2330.81C6262.39 2330.81 6739.06 2330.81 7222.97 2330.81C7706.87 2330.81 8183.55 2330.81 8429.11 2330.81H8667.45V1294.89Z" fill="#485AFF"/>
</svg>
