<svg viewBox="0 0 19 28" fill="none" xmlns="http://www.w3.org/2000/svg"><g clip-path="url(#clip0_492_1068)"><path d="M9.5539 27.5383C8.88622 26.6037 8.21332 25.6851 7.56482 24.7505C5.73961 22.1209 3.84117 19.5356 2.12579 16.8332C0.436551 14.1715 -0.358384 11.2381 0.35636 8.03808C1.43196 3.22299 6.2068 -0.122688 10.8736 0.648436C16.0528 1.50485 19.6004 5.99478 19.0339 11.1297C18.8874 12.4569 18.4847 13.786 18.0036 15.0368C17.2766 16.9238 11.0531 25.9729 9.5539 27.5383ZM5.22185 10.2164C5.20616 12.7323 7.16735 14.7721 9.60097 14.7703C12.0119 14.7685 13.9714 12.7821 13.9905 10.3159C14.0097 7.79821 12.059 5.76913 9.61317 5.7638C7.2057 5.76024 5.23754 7.75557 5.22185 10.2164Z" fill="#A1A1AA"/></g><defs><clipPath id="clip0_492_1068"><rect width="19" height="27" fill="white" transform="translate(0 0.804916)"/></clipPath></defs></svg>