<svg viewBox="0 0 27 29" fill="none" xmlns="http://www.w3.org/2000/svg"><path d="M19.9683 28.5399C18.0626 28.5326 16.3254 27.9828 14.6908 27.008C11.693 25.2048 9.2228 22.83 6.97988 20.1766C5.4113 18.3148 3.96 16.3725 2.76524 14.2468C1.86367 12.6343 1.10137 10.9704 0.690897 9.15261C0.302417 7.41545 0.346396 5.70761 1.0354 4.05108C2.14953 1.35372 4.40711 0.0270259 7.27307 0.0710046C7.61757 0.0783344 7.98407 0.136973 8.30658 0.268909C8.78302 0.452154 9.08354 0.869952 9.24479 1.33906C9.46469 1.97675 9.65526 2.63643 9.79453 3.30344C10.0951 4.70343 10.3516 6.11075 10.6301 7.51074C10.7034 7.89189 10.6008 8.20707 10.3369 8.4856C9.99976 8.84476 9.56731 9.05 9.12752 9.24057C8.74637 9.40182 8.35789 9.56308 7.98407 9.74633C7.51496 9.98088 7.44899 10.1641 7.52962 10.6772C7.67621 11.6228 8.13799 12.4437 8.56312 13.272C9.94113 15.9693 11.9055 18.1463 14.3903 19.8614C14.7568 20.118 15.1086 20.4038 15.4971 20.6237C16.3547 21.1075 16.7945 20.9756 17.3296 20.14C17.6008 19.7075 17.894 19.2897 18.1945 18.8792C18.3044 18.7326 18.4657 18.6227 18.605 18.5054C18.9202 18.2489 19.2647 18.2049 19.6531 18.3295C21.6175 18.9745 23.5233 19.7588 25.3484 20.7337C26.4845 21.3421 26.6971 21.6939 26.4772 22.9546C26.0447 25.4028 24.7254 27.1912 22.3872 28.1588C21.6175 28.4813 20.7966 28.5326 19.9683 28.5399Z" fill="#A1A1AA"/></svg>