<svg width="48" height="52" viewBox="0 0 48 52" fill="none" xmlns="http://www.w3.org/2000/svg">
<g clip-path="url(#clip0_995_1299)">
<path d="M39.9733 36.9247H7.99459C-0.19195 36.9247 -2.62233 25.7685 3.19779 25.7685H44.7701C45.7454 25.7525 46.6568 26.1988 47.2484 26.9638C49.5669 29.9122 46.369 36.9247 39.9733 36.9247ZM44.7701 28.956H3.19779C3.11784 29.721 3.29373 30.486 3.70945 31.1394C4.54089 32.7332 6.1878 33.7372 7.99459 33.7372H39.9733C41.7641 33.7372 43.411 32.7332 44.2264 31.1554C44.6901 30.5179 44.882 29.7369 44.7701 28.956Z" fill="#38004D"/>
<path d="M42.8994 22.581C42.1159 22.5969 41.4284 22.0391 41.3005 21.2582C40.1652 14.7397 35.4803 9.38471 29.1326 7.40846C28.2851 7.1694 27.7735 6.29284 28.0133 5.44815C28.2532 4.60346 29.1326 4.09346 29.98 4.33253C30.012 4.34846 30.044 4.34846 30.0759 4.3644C37.5749 6.69128 43.1232 13.0025 44.4664 20.7163C44.6103 21.5769 44.0346 22.4057 43.1552 22.565C43.0753 22.581 42.9953 22.581 42.8994 22.581Z" fill="#38004D"/>
<path d="M43.1712 28.956H4.79682C3.9174 28.956 3.19788 28.2388 3.19788 27.3622V24.1747C3.1659 15.0903 9.08196 7.05783 17.7962 4.38033C18.6436 4.10939 19.539 4.57158 19.8108 5.41626V5.4322C20.0666 6.27689 19.6029 7.16939 18.7555 7.42439C11.4004 9.70345 6.39575 16.4928 6.39575 24.1747V25.7685H43.1712C44.0506 25.7685 44.7702 26.4856 44.7702 27.3622C44.7702 28.2388 44.0506 28.956 43.1712 28.956Z" fill="#38004D"/>
<path d="M27.1817 17.7997H20.786C20.0185 17.8156 19.347 17.3056 19.1871 16.5566L15.9892 2.21284C15.7973 1.35221 16.341 0.507523 17.2044 0.300336C17.3323 0.284398 17.4602 0.268461 17.5881 0.268461H30.3796C31.259 0.252523 31.9945 0.937836 32.0105 1.83034C32.0105 1.95784 31.9945 2.08534 31.9785 2.21284L28.7807 16.5566C28.6208 17.3056 27.9492 17.8156 27.1817 17.7997ZM22.0652 14.6122H25.9026L28.3809 3.45596H19.5868L22.0652 14.6122Z" fill="#38004D"/>
<path d="M12.7915 19.3934C12.2958 19.3934 11.8161 19.1544 11.5123 18.7559L6.71554 12.3809C6.18789 11.6797 6.3318 10.6756 7.03533 10.1497C7.73886 9.62375 8.74619 9.76719 9.27383 10.4684L14.0706 16.8434C14.5983 17.5447 14.4544 18.5488 13.7509 19.0747C13.479 19.2819 13.1433 19.3934 12.7915 19.3934Z" fill="#38004D"/>
<path d="M35.1766 19.3934C34.2972 19.3934 33.5776 18.6763 33.5776 17.7997C33.5776 17.4491 33.6896 17.1144 33.8974 16.8434L38.6942 10.4684C39.2219 9.76719 40.2292 9.62375 40.9327 10.1497C41.6363 10.6756 41.7802 11.6797 41.2525 12.3809L36.4557 18.7559C36.1519 19.1544 35.6882 19.3934 35.1766 19.3934Z" fill="#38004D"/>
<path d="M25.583 51.2684H22.3851C13.559 51.2684 6.39575 44.1284 6.39575 35.3309C6.39575 34.4544 7.11527 33.7372 7.99469 33.7372C8.8741 33.7372 9.59362 34.4544 9.59362 35.3309C9.59362 42.3753 15.3178 48.0809 22.3851 48.0809H25.583C32.6502 48.0809 38.3744 42.3753 38.3744 35.3309C38.3744 34.4544 39.094 33.7372 39.9734 33.7372C40.8528 33.7372 41.5723 34.4544 41.5723 35.3309C41.5723 44.1284 34.4091 51.2684 25.583 51.2684Z" fill="#38004D"/>
</g>
<defs>
<clipPath id="clip0_995_1299">
<rect width="48" height="51" fill="white" transform="translate(0 0.268433)"/>
</clipPath>
</defs>
</svg>
