<svg viewBox="0 0 364 155" fill="none" xmlns="http://www.w3.org/2000/svg"><path d="M5.38233 154.783C-2.33627 126.604 -1.23069 99.4281 5.38233 72.3136C10.1527 52.8174 13.6128 33.2598 8.7605 13.2312C7.85966 9.50397 6.75407 5.8382 5.60754 1.63997C7.57302 1.23038 9.06761 0.616006 10.5212 0.636485C25.4057 0.923194 40.3515 0.534089 55.154 1.82428C80.7053 4.03603 100.524 30.5566 96.3472 55.8074C92.8053 77.2491 89.2633 98.6908 85.5985 120.092C81.8928 141.718 66.4555 154.435 43.5045 154.742C30.9336 154.906 18.3832 154.783 5.38233 154.783ZM36.0725 21.3409C39.3688 45.3835 29.9918 66.1699 24.0134 87.6935C22.007 94.9226 20.7786 102.479 20.2258 109.954C18.8541 128.16 19.0998 128.16 37.0962 130.823C50.3018 132.768 57.7542 127.054 60.5591 113.866C62.7907 103.401 66.1075 93.1614 68.6053 82.7375C71.3283 71.433 74.8088 60.149 75.853 48.6806C77.0609 35.4306 68.8714 26.4607 55.8911 24.0851C49.8309 22.9793 43.6887 22.3649 36.0725 21.3409Z" fill="#0F172A"/><path d="M184.671 154.374C155.987 154.374 127.836 154.374 97.9441 154.374C96.5724 141.861 93.7675 129.205 94.136 116.631C94.5865 101.169 96.5315 85.5226 99.8687 70.409C104.864 47.6771 107.956 25.3138 98.9269 1.37368C109.717 1.37368 119.442 1.31224 129.146 1.39416C146.119 1.53751 163.071 1.90614 180.044 1.88566C183.852 1.88566 186.043 2.54099 186.616 6.78018C187.558 13.7431 188.97 20.6241 190.26 27.9966C169.52 30.5975 150.521 23.5731 129.904 22.3853C132.872 42.844 126.444 61.2139 119.708 80.1571C132.75 84.9492 145.3 89.557 158.178 94.3082C156.724 100.862 155.353 107.026 153.694 114.419C140.919 111.183 128.245 107.968 113.668 104.282C113.668 112.207 113.463 118.924 113.873 125.621C113.934 126.727 116.698 128.365 118.356 128.57C137.438 131.007 156.54 133.137 175.622 135.574C177.423 135.799 180.003 137.233 180.535 138.728C182.276 143.581 183.258 148.762 184.671 154.374Z" fill="#0F172A"/><path d="M190.834 1.33279C201.05 1.33279 210.407 1.27135 219.743 1.35327C236.941 1.5171 254.139 1.86525 271.336 1.86525C275.186 1.86525 277.274 2.66393 277.868 6.82121C278.83 13.5998 280.222 20.3375 281.594 27.8943C260.895 30.659 241.69 23.5732 221.073 22.283C224.042 42.7417 217.839 61.1525 210.918 80.1367C223.755 84.8469 236.326 89.4547 249.245 94.1854C247.914 100.862 246.625 107.272 245.171 114.48C232.15 111.183 219.415 107.947 204.572 104.179C204.572 112.002 204.264 118.535 204.817 124.986C204.94 126.358 208.175 128.304 210.161 128.57C229.242 131.048 248.365 133.157 267.446 135.574C269.023 135.779 271.255 137.233 271.725 138.605C273.425 143.54 274.489 148.701 276.004 154.517C260.567 154.517 245.58 154.538 230.573 154.517C218.657 154.497 206.742 154.148 194.847 154.497C190.813 154.619 189.789 153.206 189.011 149.745C183.504 125.109 183.995 100.595 189.687 76.0613C191.919 66.4566 195.051 56.8109 195.379 47.1038C195.809 34.6524 193.884 22.1192 192.82 9.62685C192.615 7.18983 191.694 4.83473 190.834 1.33279Z" fill="#0F172A"/><path d="M281.839 154.804C276.332 133.976 273.937 113.641 277.99 92.9566C280.283 81.263 282.822 69.6308 285.402 57.9986C289.558 39.2192 289.271 20.6651 282.433 2.82773C283.006 2.04952 283.232 1.39419 283.539 1.37371C300.02 -0.326065 316.665 -1.32955 332.614 3.83121C352.044 10.1183 364.615 27.9147 363.98 48.5373C363.653 59.166 362.137 70.1428 358.882 80.2186C351.655 102.664 331.447 113.19 308.332 108.091C304.811 107.313 301.269 106.698 296.724 105.797C296.724 114.378 296.212 122.139 296.867 129.819C297.522 137.519 299.324 145.138 300.737 153.575C294.717 153.944 288.678 154.353 281.839 154.804ZM314.045 22.8359C313.205 33.1369 313.287 43.0488 311.383 52.5921C309.438 62.3402 305.589 71.7197 302.354 81.9183C306.776 83.27 310.789 84.7854 314.946 85.7479C325.326 88.1645 333.29 85.0312 337.651 75.324C340.681 68.5659 342.687 61.0091 343.445 53.6571C345.533 33.096 334.907 22.3034 314.045 22.8359Z" fill="#0F172A"/></svg>