<svg viewBox="0 0 282 199" fill="none" xmlns="http://www.w3.org/2000/svg"><path d="M78.8227 111.96C79.5427 110.04 79.6627 106.8 80.1427 104.52C82.6627 92.4 96.8227 67.68 76.0627 64.2C73.1827 63.72 70.1827 63.36 67.3027 63C68.9827 82.08 60.8227 89.16 59.2627 106.32C59.1427 109.68 59.0227 113.04 59.2627 116.28C66.2227 117.12 75.5827 120.72 78.8227 111.96ZM51.8227 52.92C58.7827 52.44 75.1027 52.08 81.3427 54.24C91.3027 57.72 98.1427 68.04 97.3027 78.72C96.3427 89.88 92.5027 100.32 91.9027 110.88C91.3027 119.4 85.4227 127.08 76.9027 128.64C74.9827 129 73.1827 129.12 71.2627 129.36C64.6627 129 58.4227 128.64 51.8227 129.36C42.7027 91.2 62.0227 81.24 51.8227 52.92ZM100.674 53.28C116.274 52.08 129.234 54.84 143.514 53.28C144.714 57.84 145.434 61.92 145.914 66.6C135.714 67.2 126.114 64.56 115.914 63.24C117.234 75.72 114.474 81.36 110.754 92.64C117.714 94.32 123.234 97.44 130.194 99.24C129.114 102.72 128.394 105.84 128.034 109.44C121.314 108 114.834 105.72 108.114 104.4C107.634 108.48 107.514 112.2 107.874 116.28C119.754 117.72 128.394 120.12 140.874 120C141.474 123.36 142.194 126.24 143.514 129.36C127.794 130.56 114.834 127.8 100.554 129.36C91.4342 91.32 110.634 81.48 100.674 53.28ZM148.12 53.28C163.72 52.08 176.68 54.84 190.96 53.28C192.16 57.84 192.88 61.92 193.36 66.6C183.16 67.2 173.56 64.56 163.36 63.24C164.68 75.72 161.92 81.36 158.2 92.64C165.16 94.32 170.68 97.44 177.64 99.24C176.56 102.72 175.84 105.84 175.48 109.44C168.76 108 162.28 105.72 155.56 104.4C155.08 108.48 154.96 112.2 155.32 116.28C167.2 117.72 175.84 120.12 188.32 120C188.92 123.36 189.64 126.24 190.96 129.36C175.24 130.56 162.28 127.8 148 129.36C138.88 91.32 158.08 81.48 148.12 53.28ZM221.125 93.24C225.565 89.52 227.965 76.56 225.805 71.4C222.805 64.56 217.285 64.08 210.925 63.36C212.365 76.2 209.605 81.48 205.645 93.24C211.045 94.8 215.845 97.8 221.125 93.24ZM196.165 86.64C199.285 73.56 200.365 65.76 195.565 52.92C203.485 52.44 216.205 51.72 223.285 55.32C233.125 60.12 237.685 69.84 236.485 80.52C235.285 92.04 232.405 102.6 219.685 106.08C212.845 108 209.245 106.2 203.125 104.88C202.165 113.52 202.885 120.84 205.405 129.12C202.045 129 198.925 129.12 195.565 129.36C191.365 112.92 192.325 102.72 196.165 86.64Z" fill="#47E8EF"/><path d="M15.8977 148.909V178H9.7471V148.909H15.8977ZM22.8955 165.386V178H16.8444V156.182H22.6114V160.031H22.8671C23.3501 158.762 24.1597 157.759 25.2961 157.02C26.4325 156.272 27.8103 155.898 29.4296 155.898C30.9448 155.898 32.2658 156.229 33.3927 156.892C34.5196 157.555 35.3955 158.502 36.0205 159.733C36.6455 160.955 36.958 162.413 36.958 164.108V178H30.9069V165.188C30.9164 163.852 30.5755 162.811 29.8842 162.062C29.1929 161.305 28.2412 160.926 27.0291 160.926C26.2147 160.926 25.495 161.101 24.87 161.452C24.2544 161.802 23.7715 162.313 23.4211 162.986C23.0802 163.649 22.905 164.449 22.8955 165.386ZM49.3323 156.182V160.727H36.1931V156.182H49.3323ZM39.1761 150.955H45.2272V171.295C45.2272 171.854 45.3124 172.29 45.4829 172.602C45.6533 172.905 45.8901 173.118 46.1931 173.241C46.5056 173.365 46.8655 173.426 47.2727 173.426C47.5568 173.426 47.8408 173.402 48.1249 173.355C48.409 173.298 48.6268 173.256 48.7783 173.227L49.7301 177.73C49.427 177.825 49.0009 177.934 48.4516 178.057C47.9024 178.189 47.2348 178.27 46.4488 178.298C44.9905 178.355 43.7121 178.161 42.6136 177.716C41.5246 177.271 40.677 176.58 40.071 175.642C39.4649 174.705 39.1666 173.521 39.1761 172.091V150.955ZM58.8977 178.426C56.6912 178.426 54.7831 177.957 53.1732 177.02C51.5729 176.073 50.3371 174.757 49.4658 173.071C48.5946 171.376 48.159 169.411 48.159 167.176C48.159 164.922 48.5946 162.953 49.4658 161.267C50.3371 159.572 51.5729 158.256 53.1732 157.318C54.7831 156.371 56.6912 155.898 58.8977 155.898C61.1041 155.898 63.0075 156.371 64.6079 157.318C66.2177 158.256 67.4583 159.572 68.3295 161.267C69.2007 162.953 69.6363 164.922 69.6363 167.176C69.6363 169.411 69.2007 171.376 68.3295 173.071C67.4583 174.757 66.2177 176.073 64.6079 177.02C63.0075 177.957 61.1041 178.426 58.8977 178.426ZM58.9261 173.739C59.9299 173.739 60.7679 173.455 61.4403 172.886C62.1126 172.309 62.6193 171.523 62.9602 170.528C63.3105 169.534 63.4857 168.402 63.4857 167.134C63.4857 165.865 63.3105 164.733 62.9602 163.739C62.6193 162.744 62.1126 161.958 61.4403 161.381C60.7679 160.803 59.9299 160.514 58.9261 160.514C57.9128 160.514 57.0605 160.803 56.3693 161.381C55.6874 161.958 55.1713 162.744 54.821 163.739C54.4801 164.733 54.3096 165.865 54.3096 167.134C54.3096 168.402 54.4801 169.534 54.821 170.528C55.1713 171.523 55.6874 172.309 56.3693 172.886C57.0605 173.455 57.9128 173.739 58.9261 173.739ZM84.6867 178.426C82.4803 178.426 80.5721 177.957 78.9623 177.02C77.3619 176.073 76.1261 174.757 75.2549 173.071C74.3837 171.376 73.9481 169.411 73.9481 167.176C73.9481 164.922 74.3837 162.953 75.2549 161.267C76.1261 159.572 77.3619 158.256 78.9623 157.318C80.5721 156.371 82.4803 155.898 84.6867 155.898C86.8932 155.898 88.7966 156.371 90.397 157.318C92.0068 158.256 93.2473 159.572 94.1185 161.267C94.9898 162.953 95.4254 164.922 95.4254 167.176C95.4254 169.411 94.9898 171.376 94.1185 173.071C93.2473 174.757 92.0068 176.073 90.397 177.02C88.7966 177.957 86.8932 178.426 84.6867 178.426ZM84.7151 173.739C85.7189 173.739 86.557 173.455 87.2293 172.886C87.9017 172.309 88.4083 171.523 88.7492 170.528C89.0996 169.534 89.2748 168.402 89.2748 167.134C89.2748 165.865 89.0996 164.733 88.7492 163.739C88.4083 162.744 87.9017 161.958 87.2293 161.381C86.557 160.803 85.7189 160.514 84.7151 160.514C83.7019 160.514 82.8496 160.803 82.1583 161.381C81.4765 161.958 80.9604 162.744 80.61 163.739C80.2691 164.733 80.0987 165.865 80.0987 167.134C80.0987 168.402 80.2691 169.534 80.61 170.528C80.9604 171.523 81.4765 172.309 82.1583 172.886C82.8496 173.455 83.7019 173.739 84.7151 173.739ZM109.352 168.71V156.182H115.403V178H109.593V174.037H109.366C108.873 175.315 108.054 176.343 106.908 177.119C105.772 177.896 104.385 178.284 102.746 178.284C101.288 178.284 100.005 177.953 98.897 177.29C97.789 176.627 96.9225 175.685 96.2975 174.463C95.682 173.241 95.3695 171.778 95.36 170.074V156.182H101.411V168.994C101.421 170.282 101.766 171.3 102.448 172.048C103.13 172.796 104.044 173.17 105.19 173.17C105.919 173.17 106.601 173.005 107.235 172.673C107.869 172.332 108.381 171.83 108.769 171.168C109.167 170.505 109.361 169.686 109.352 168.71ZM116.243 178V156.182H122.109V159.989H122.337C122.734 158.634 123.402 157.612 124.339 156.92C125.277 156.22 126.356 155.869 127.578 155.869C127.881 155.869 128.208 155.888 128.558 155.926C128.909 155.964 129.216 156.016 129.481 156.082V161.452C129.197 161.366 128.804 161.291 128.302 161.224C127.801 161.158 127.341 161.125 126.925 161.125C126.035 161.125 125.239 161.319 124.538 161.707C123.847 162.086 123.298 162.616 122.891 163.298C122.493 163.98 122.294 164.766 122.294 165.656V178H116.243ZM149.763 157.276C149.649 156.13 149.161 155.24 148.3 154.605C147.438 153.971 146.268 153.653 144.791 153.653C143.787 153.653 142.94 153.795 142.249 154.08C141.557 154.354 141.027 154.738 140.658 155.23C140.298 155.723 140.118 156.281 140.118 156.906C140.099 157.427 140.208 157.882 140.445 158.27C140.691 158.658 141.027 158.994 141.453 159.278C141.879 159.553 142.372 159.795 142.93 160.003C143.489 160.202 144.086 160.372 144.72 160.514L147.334 161.139C148.603 161.423 149.767 161.802 150.828 162.276C151.889 162.749 152.807 163.331 153.584 164.023C154.36 164.714 154.962 165.528 155.388 166.466C155.823 167.403 156.046 168.478 156.055 169.69C156.046 171.471 155.591 173.014 154.692 174.321C153.802 175.618 152.514 176.627 150.828 177.347C149.152 178.057 147.13 178.412 144.763 178.412C142.414 178.412 140.369 178.052 138.626 177.332C136.893 176.613 135.539 175.547 134.564 174.136C133.598 172.716 133.091 170.959 133.044 168.866H138.996C139.062 169.842 139.341 170.656 139.834 171.31C140.336 171.954 141.003 172.441 141.837 172.773C142.679 173.095 143.631 173.256 144.692 173.256C145.733 173.256 146.638 173.104 147.405 172.801C148.181 172.498 148.783 172.077 149.209 171.537C149.635 170.997 149.848 170.377 149.848 169.676C149.848 169.023 149.654 168.473 149.266 168.028C148.887 167.583 148.328 167.205 147.589 166.892C146.86 166.58 145.965 166.295 144.905 166.04L141.737 165.244C139.285 164.648 137.348 163.715 135.927 162.446C134.507 161.177 133.802 159.468 133.811 157.318C133.802 155.557 134.27 154.018 135.217 152.702C136.174 151.385 137.485 150.358 139.152 149.619C140.819 148.881 142.713 148.511 144.834 148.511C146.993 148.511 148.877 148.881 150.487 149.619C152.106 150.358 153.366 151.385 154.266 152.702C155.165 154.018 155.629 155.543 155.658 157.276H149.763ZM166.022 178.426C163.778 178.426 161.846 177.972 160.227 177.062C158.617 176.144 157.376 174.847 156.505 173.17C155.634 171.485 155.198 169.491 155.198 167.19C155.198 164.946 155.634 162.976 156.505 161.281C157.376 159.586 158.602 158.265 160.184 157.318C161.775 156.371 163.64 155.898 165.78 155.898C167.22 155.898 168.56 156.13 169.8 156.594C171.05 157.048 172.139 157.735 173.067 158.653C174.005 159.572 174.734 160.727 175.255 162.119C175.776 163.502 176.036 165.121 176.036 166.977V168.639H157.613V164.889H170.34C170.34 164.018 170.151 163.246 169.772 162.574C169.393 161.902 168.868 161.376 168.195 160.997C167.532 160.609 166.761 160.415 165.88 160.415C164.961 160.415 164.147 160.628 163.437 161.054C162.736 161.471 162.187 162.034 161.789 162.744C161.391 163.445 161.188 164.226 161.178 165.088V168.653C161.178 169.733 161.377 170.666 161.775 171.452C162.182 172.238 162.755 172.844 163.494 173.27C164.232 173.696 165.108 173.909 166.121 173.909C166.794 173.909 167.409 173.814 167.968 173.625C168.527 173.436 169.005 173.152 169.403 172.773C169.8 172.394 170.103 171.93 170.312 171.381L175.908 171.75C175.624 173.095 175.042 174.269 174.161 175.273C173.29 176.267 172.163 177.044 170.78 177.602C169.407 178.152 167.821 178.426 166.022 178.426ZM175.985 178V156.182H181.852V159.989H182.079C182.477 158.634 183.144 157.612 184.082 156.92C185.019 156.22 186.099 155.869 187.32 155.869C187.623 155.869 187.95 155.888 188.3 155.926C188.651 155.964 188.959 156.016 189.224 156.082V161.452C188.94 161.366 188.547 161.291 188.045 161.224C187.543 161.158 187.084 161.125 186.667 161.125C185.777 161.125 184.981 161.319 184.28 161.707C183.589 162.086 183.04 162.616 182.633 163.298C182.235 163.98 182.036 164.766 182.036 165.656V178H175.985ZM209.357 156.182L201.729 178H194.911L187.283 156.182H193.675L198.207 171.793H198.434L202.951 156.182H209.357ZM208.454 178V156.182H214.505V178H208.454ZM211.494 153.369C210.594 153.369 209.822 153.071 209.178 152.474C208.544 151.868 208.227 151.144 208.227 150.301C208.227 149.468 208.544 148.753 209.178 148.156C209.822 147.55 210.594 147.247 211.494 147.247C212.393 147.247 213.16 147.55 213.795 148.156C214.439 148.753 214.761 149.468 214.761 150.301C214.761 151.144 214.439 151.868 213.795 152.474C213.16 153.071 212.393 153.369 211.494 153.369ZM225.21 178.426C222.975 178.426 221.053 177.953 219.443 177.006C217.843 176.049 216.612 174.723 215.75 173.028C214.898 171.333 214.472 169.383 214.472 167.176C214.472 164.941 214.902 162.981 215.764 161.295C216.635 159.6 217.871 158.279 219.472 157.332C221.072 156.376 222.975 155.898 225.182 155.898C227.085 155.898 228.752 156.243 230.182 156.935C231.612 157.626 232.743 158.597 233.577 159.847C234.41 161.097 234.869 162.564 234.954 164.25H229.244C229.083 163.161 228.657 162.285 227.966 161.622C227.284 160.95 226.389 160.614 225.281 160.614C224.344 160.614 223.525 160.869 222.824 161.381C222.133 161.883 221.593 162.616 221.204 163.582C220.816 164.548 220.622 165.718 220.622 167.091C220.622 168.483 220.811 169.667 221.19 170.642C221.579 171.617 222.123 172.361 222.824 172.872C223.525 173.384 224.344 173.639 225.281 173.639C225.972 173.639 226.593 173.497 227.142 173.213C227.701 172.929 228.16 172.517 228.52 171.977C228.889 171.428 229.131 170.77 229.244 170.003H234.954C234.86 171.67 234.405 173.137 233.591 174.406C232.786 175.666 231.673 176.651 230.253 177.361C228.832 178.071 227.151 178.426 225.21 178.426ZM244.772 178.426C242.528 178.426 240.596 177.972 238.977 177.062C237.367 176.144 236.126 174.847 235.255 173.17C234.384 171.485 233.948 169.491 233.948 167.19C233.948 164.946 234.384 162.976 235.255 161.281C236.126 159.586 237.352 158.265 238.934 157.318C240.525 156.371 242.39 155.898 244.53 155.898C245.97 155.898 247.31 156.13 248.55 156.594C249.8 157.048 250.889 157.735 251.817 158.653C252.755 159.572 253.484 160.727 254.005 162.119C254.526 163.502 254.786 165.121 254.786 166.977V168.639H236.363V164.889H249.09C249.09 164.018 248.901 163.246 248.522 162.574C248.143 161.902 247.618 161.376 246.945 160.997C246.282 160.609 245.511 160.415 244.63 160.415C243.711 160.415 242.897 160.628 242.187 161.054C241.486 161.471 240.937 162.034 240.539 162.744C240.141 163.445 239.938 164.226 239.928 165.088V168.653C239.928 169.733 240.127 170.666 240.525 171.452C240.932 172.238 241.505 172.844 242.244 173.27C242.982 173.696 243.858 173.909 244.871 173.909C245.544 173.909 246.159 173.814 246.718 173.625C247.277 173.436 247.755 173.152 248.153 172.773C248.55 172.394 248.853 171.93 249.062 171.381L254.658 171.75C254.374 173.095 253.792 174.269 252.911 175.273C252.04 176.267 250.913 177.044 249.53 177.602C248.157 178.152 246.571 178.426 244.772 178.426ZM272.888 162.403L267.349 162.744C267.254 162.271 267.05 161.845 266.738 161.466C266.425 161.078 266.013 160.77 265.502 160.543C265 160.306 264.399 160.188 263.698 160.188C262.761 160.188 261.97 160.386 261.326 160.784C260.682 161.172 260.36 161.693 260.36 162.347C260.36 162.867 260.568 163.308 260.985 163.668C261.402 164.027 262.117 164.316 263.13 164.534L267.079 165.33C269.2 165.765 270.781 166.466 271.823 167.432C272.865 168.398 273.386 169.667 273.386 171.239C273.386 172.669 272.964 173.923 272.121 175.003C271.288 176.082 270.142 176.925 268.684 177.531C267.235 178.128 265.564 178.426 263.67 178.426C260.781 178.426 258.48 177.825 256.766 176.622C255.062 175.41 254.063 173.762 253.769 171.679L259.721 171.366C259.901 172.247 260.336 172.92 261.028 173.384C261.719 173.838 262.604 174.065 263.684 174.065C264.744 174.065 265.597 173.862 266.241 173.455C266.894 173.038 267.226 172.503 267.235 171.849C267.226 171.3 266.994 170.85 266.539 170.5C266.084 170.14 265.384 169.866 264.437 169.676L260.658 168.923C258.528 168.497 256.941 167.759 255.9 166.707C254.868 165.656 254.352 164.316 254.352 162.688C254.352 161.286 254.73 160.079 255.488 159.065C256.255 158.052 257.33 157.271 258.712 156.722C260.104 156.172 261.733 155.898 263.599 155.898C266.354 155.898 268.523 156.48 270.104 157.645C271.695 158.81 272.623 160.396 272.888 162.403Z" fill="#47E8EF"/></svg>