<svg width="52" height="52" viewBox="0 0 52 52" fill="none" xmlns="http://www.w3.org/2000/svg">
<path d="M7.64008 34.9484C5.95708 34.9484 4.58008 36.3254 4.58008 38.0084C4.58008 39.6914 5.95708 41.0684 7.64008 41.0684C9.32308 41.0684 10.7001 39.6914 10.7001 38.0084C10.7001 36.3254 9.32308 34.9484 7.64008 34.9484ZM7.64008 39.0284C7.07908 39.0284 6.62008 38.5694 6.62008 38.0084C6.62008 37.4474 7.07908 36.9884 7.64008 36.9884C8.20108 36.9884 8.66008 37.4474 8.66008 38.0084C8.66008 38.5694 8.20108 39.0284 7.64008 39.0284Z" fill="#010101"/>
<path d="M51.4998 24.7484C51.4998 20.1482 48.9396 16.1294 45.1554 14.0384C43.9212 6.15383 37.1076 0.268433 29.0598 0.268433C20.0634 0.268433 12.7398 7.59203 12.7398 16.5884C12.7398 19.373 13.4436 22.0046 14.6778 24.2996L2.93758 33.602C1.49938 34.7546 0.61198 36.4682 0.50998 38.3042C0.40798 40.1402 1.09138 41.9456 2.39698 43.2512C3.62098 44.465 5.27338 45.1484 6.97678 45.1484C7.09918 45.1484 7.22158 45.1484 7.34398 45.1382C9.17998 45.0362 10.8936 44.1488 12.0462 42.7004L21.3486 30.9602C23.6436 32.2046 26.2752 32.9084 29.0598 32.9084C29.4372 32.9084 29.784 32.8982 30.1206 32.8676C30.3756 33.1532 30.6408 33.4286 30.9162 33.6938C32.2014 34.8974 32.9766 36.509 33.1092 38.2022C31.9362 38.6306 31.0998 39.7526 31.0998 41.0684C31.0998 42.3944 31.9566 43.5164 33.1398 43.9448V45.1484C33.1398 48.5246 35.8836 51.2684 39.2598 51.2684C42.636 51.2684 45.3798 48.5246 45.3798 45.1484V43.9448C46.563 43.5266 47.4198 42.4046 47.4198 41.0684C47.4198 39.7526 46.5732 38.6306 45.4104 38.2022C45.543 36.509 46.3182 34.8872 47.5932 33.6938C50.0718 31.3988 51.4998 28.1348 51.4998 24.7484ZM10.455 41.4356C9.66958 42.425 8.49658 43.0268 7.23178 43.0982C5.96698 43.1594 4.73278 42.7004 3.84538 41.8028C2.95798 40.9052 2.47858 39.671 2.54998 38.4164C2.62138 37.1516 3.23338 35.9786 4.21258 35.1932L15.7794 26.0336C16.8402 27.5126 18.1356 28.808 19.6146 29.8688L10.455 41.4356ZM14.7798 16.5884C14.7798 8.71403 21.1854 2.30843 29.0598 2.30843C35.6592 2.30843 41.2998 6.82703 42.8808 13.0592C42.1566 12.8348 41.4018 12.6818 40.6266 12.59C38.9334 7.70423 34.2822 4.34843 29.0598 4.34843C22.3074 4.34843 16.8198 9.83603 16.8198 16.5884C16.8198 22.8716 21.5526 28.0736 27.7032 28.7468C27.9582 29.471 28.2744 30.185 28.6518 30.848C20.9712 30.6338 14.7798 24.3302 14.7798 16.5884ZM27.183 26.615C22.4196 25.7276 18.8598 21.566 18.8598 16.5884C18.8598 10.9682 23.4396 6.38843 29.0598 6.38843C33.1602 6.38843 36.8322 8.86703 38.4234 12.5492C32.0586 12.998 27.0198 18.2918 27.0198 24.7484C27.0198 25.3808 27.081 25.9928 27.183 26.615ZM43.3398 45.1484C43.3398 47.4026 41.514 49.2284 39.2598 49.2284C37.0056 49.2284 35.1798 47.4026 35.1798 45.1484V44.1284H43.3398V45.1484ZM44.3598 42.0884H34.1598C33.5988 42.0884 33.1398 41.6294 33.1398 41.0684C33.1398 40.5074 33.5988 40.0484 34.1598 40.0484H44.3598C44.9208 40.0484 45.3798 40.5074 45.3798 41.0684C45.3798 41.6294 44.9208 42.0884 44.3598 42.0884ZM36.1998 26.7884H35.1798C34.6188 26.7884 34.1598 26.3294 34.1598 25.7684C34.1598 25.2074 34.6188 24.7484 35.1798 24.7484C35.7408 24.7484 36.1998 25.2074 36.1998 25.7684V26.7884ZM38.2398 28.8284H40.2798V38.0084H38.2398V28.8284ZM43.3704 38.0084H42.3198V28.8284H43.3398C45.0228 28.8284 46.3998 27.4514 46.3998 25.7684C46.3998 24.0854 45.0228 22.7084 43.3398 22.7084C41.6568 22.7084 40.2798 24.0854 40.2798 25.7684V26.7884H38.2398V25.7684C38.2398 24.0854 36.8628 22.7084 35.1798 22.7084C33.4968 22.7084 32.1198 24.0854 32.1198 25.7684C32.1198 27.4514 33.4968 28.8284 35.1798 28.8284H36.1998V38.0084H35.1492C34.9656 35.8256 33.9558 33.7448 32.3136 32.2046C30.243 30.287 29.0598 27.5738 29.0598 24.7484C29.0598 19.1384 33.6396 14.5586 39.2598 14.5484C44.8902 14.5586 49.4598 19.1384 49.4598 24.7484C49.4598 27.5738 48.2766 30.287 46.206 32.2046C44.5536 33.7448 43.5438 35.8256 43.3704 38.0084ZM42.3198 26.7884V25.7684C42.3198 25.2074 42.7788 24.7484 43.3398 24.7484C43.9008 24.7484 44.3598 25.2074 44.3598 25.7684C44.3598 26.3294 43.9008 26.7884 43.3398 26.7884H42.3198Z" fill="#010101"/>
</svg>
