<svg width="52" height="52" viewBox="0 0 52 52" fill="none" xmlns="http://www.w3.org/2000/svg">
<g id="Group">
<path id="Vector" d="M7.64008 34.7327C5.95708 34.7327 4.58008 36.1097 4.58008 37.7927C4.58008 39.4757 5.95708 40.8527 7.64008 40.8527C9.32308 40.8527 10.7001 39.4757 10.7001 37.7927C10.7001 36.1097 9.32308 34.7327 7.64008 34.7327ZM7.64008 38.8127C7.07908 38.8127 6.62008 38.3537 6.62008 37.7927C6.62008 37.2317 7.07908 36.7727 7.64008 36.7727C8.20108 36.7727 8.66008 37.2317 8.66008 37.7927C8.66008 38.3537 8.20108 38.8127 7.64008 38.8127Z" fill="#010101"/>
<path id="Vector_2" d="M51.4998 24.5327C51.4998 19.9325 48.9396 15.9137 45.1554 13.8227C43.9212 5.93813 37.1076 0.0527344 29.0598 0.0527344C20.0634 0.0527344 12.7398 7.37633 12.7398 16.3727C12.7398 19.1573 13.4436 21.7889 14.6778 24.0839L2.93758 33.3863C1.49938 34.5389 0.61198 36.2525 0.50998 38.0885C0.40798 39.9245 1.09138 41.7299 2.39698 43.0355C3.62098 44.2493 5.27338 44.9327 6.97678 44.9327C7.09918 44.9327 7.22158 44.9327 7.34398 44.9225C9.17998 44.8205 10.8936 43.9331 12.0462 42.4847L21.3486 30.7445C23.6436 31.9889 26.2752 32.6927 29.0598 32.6927C29.4372 32.6927 29.784 32.6825 30.1206 32.6519C30.3756 32.9375 30.6408 33.2129 30.9162 33.4781C32.2014 34.6817 32.9766 36.2933 33.1092 37.9865C31.9362 38.4149 31.0998 39.5369 31.0998 40.8527C31.0998 42.1787 31.9566 43.3007 33.1398 43.7291V44.9327C33.1398 48.3089 35.8836 51.0527 39.2598 51.0527C42.636 51.0527 45.3798 48.3089 45.3798 44.9327V43.7291C46.563 43.3109 47.4198 42.1889 47.4198 40.8527C47.4198 39.5369 46.5732 38.4149 45.4104 37.9865C45.543 36.2933 46.3182 34.6715 47.5932 33.4781C50.0718 31.1831 51.4998 27.9191 51.4998 24.5327ZM10.455 41.2199C9.66958 42.2093 8.49658 42.8111 7.23178 42.8825C5.96698 42.9437 4.73278 42.4847 3.84538 41.5871C2.95798 40.6895 2.47858 39.4553 2.54998 38.2007C2.62138 36.9359 3.23338 35.7629 4.21258 34.9775L15.7794 25.8179C16.8402 27.2969 18.1356 28.5923 19.6146 29.6531L10.455 41.2199ZM14.7798 16.3727C14.7798 8.49833 21.1854 2.09273 29.0598 2.09273C35.6592 2.09273 41.2998 6.61133 42.8808 12.8435C42.1566 12.6191 41.4018 12.4661 40.6266 12.3743C38.9334 7.48853 34.2822 4.13273 29.0598 4.13273C22.3074 4.13273 16.8198 9.62033 16.8198 16.3727C16.8198 22.6559 21.5526 27.8579 27.7032 28.5311C27.9582 29.2553 28.2744 29.9693 28.6518 30.6323C20.9712 30.4181 14.7798 24.1145 14.7798 16.3727ZM27.183 26.3993C22.4196 25.5119 18.8598 21.3503 18.8598 16.3727C18.8598 10.7525 23.4396 6.17273 29.0598 6.17273C33.1602 6.17273 36.8322 8.65133 38.4234 12.3335C32.0586 12.7823 27.0198 18.0761 27.0198 24.5327C27.0198 25.1651 27.081 25.7771 27.183 26.3993ZM43.3398 44.9327C43.3398 47.1869 41.514 49.0127 39.2598 49.0127C37.0056 49.0127 35.1798 47.1869 35.1798 44.9327V43.9127H43.3398V44.9327ZM44.3598 41.8727H34.1598C33.5988 41.8727 33.1398 41.4137 33.1398 40.8527C33.1398 40.2917 33.5988 39.8327 34.1598 39.8327H44.3598C44.9208 39.8327 45.3798 40.2917 45.3798 40.8527C45.3798 41.4137 44.9208 41.8727 44.3598 41.8727ZM36.1998 26.5727H35.1798C34.6188 26.5727 34.1598 26.1137 34.1598 25.5527C34.1598 24.9917 34.6188 24.5327 35.1798 24.5327C35.7408 24.5327 36.1998 24.9917 36.1998 25.5527V26.5727ZM38.2398 28.6127H40.2798V37.7927H38.2398V28.6127ZM43.3704 37.7927H42.3198V28.6127H43.3398C45.0228 28.6127 46.3998 27.2357 46.3998 25.5527C46.3998 23.8697 45.0228 22.4927 43.3398 22.4927C41.6568 22.4927 40.2798 23.8697 40.2798 25.5527V26.5727H38.2398V25.5527C38.2398 23.8697 36.8628 22.4927 35.1798 22.4927C33.4968 22.4927 32.1198 23.8697 32.1198 25.5527C32.1198 27.2357 33.4968 28.6127 35.1798 28.6127H36.1998V37.7927H35.1492C34.9656 35.6099 33.9558 33.5291 32.3136 31.9889C30.243 30.0713 29.0598 27.3581 29.0598 24.5327C29.0598 18.9227 33.6396 14.3429 39.2598 14.3327C44.8902 14.3429 49.4598 18.9227 49.4598 24.5327C49.4598 27.3581 48.2766 30.0713 46.206 31.9889C44.5536 33.5291 43.5438 35.6099 43.3704 37.7927ZM42.3198 26.5727V25.5527C42.3198 24.9917 42.7788 24.5327 43.3398 24.5327C43.9008 24.5327 44.3598 24.9917 44.3598 25.5527C44.3598 26.1137 43.9008 26.5727 43.3398 26.5727H42.3198Z" fill="#010101"/>
</g>
</svg>
