<svg viewBox="0 0 48 51" fill="none" xmlns="http://www.w3.org/2000/svg"><path d="M39.9725 36.6564H7.99386C-0.192683 36.6564 -2.62306 25.5002 3.19706 25.5002H44.7693C45.7447 25.4842 46.6561 25.9305 47.2477 26.6955C49.5661 29.6439 46.3683 36.6564 39.9725 36.6564ZM44.7693 28.6877H3.19706C3.11711 29.4527 3.29299 30.2177 3.70872 30.8711C4.54016 32.4649 6.18706 33.4689 7.99386 33.4689H39.9725C41.7633 33.4689 43.4102 32.4649 44.2257 30.887C44.6894 30.2495 44.8813 29.4686 44.7693 28.6877Z" fill="black"/><path d="M42.8987 22.3128C42.1152 22.3288 41.4276 21.771 41.2997 20.99C40.1645 14.4716 35.4796 9.11659 29.1318 7.14034C28.2844 6.90127 27.7727 6.02471 28.0126 5.18002C28.2524 4.33534 29.1318 3.82534 29.9793 4.0644C30.0113 4.08034 30.0432 4.08034 30.0752 4.09627C37.5742 6.42315 43.1225 12.7344 44.4656 20.4481C44.6095 21.3088 44.0339 22.1375 43.1545 22.2969C43.0745 22.3128 42.9946 22.3128 42.8987 22.3128Z" fill="black"/><path d="M43.1705 28.6878H4.79608C3.91667 28.6878 3.19715 27.9706 3.19715 27.094V23.9065C3.16517 14.8221 9.08123 6.78964 17.7954 4.11214C18.6429 3.8412 19.5383 4.30339 19.8101 5.14808V5.16401C20.0659 6.0087 19.6022 6.9012 18.7548 7.1562C11.3997 9.43526 6.39502 16.2246 6.39502 23.9065V25.5003H43.1705C44.0499 25.5003 44.7694 26.2175 44.7694 27.094C44.7694 27.9706 44.0499 28.6878 43.1705 28.6878Z" fill="black"/><path d="M27.181 17.5315H20.7853C20.0178 17.5475 19.3462 17.0375 19.1863 16.2884L15.9885 1.94465C15.7966 1.08402 16.3402 0.239335 17.2037 0.0321474C17.3316 0.0162099 17.4595 0.000272391 17.5874 0.000272391H30.3789C31.2583 -0.0156651 31.9938 0.669647 32.0098 1.56215C32.0098 1.68965 31.9938 1.81715 31.9778 1.94465L28.7799 16.2884C28.62 17.0375 27.9485 17.5475 27.181 17.5315ZM22.0644 14.344H25.9019L28.3802 3.18777H19.5861L22.0644 14.344Z" fill="black"/><path d="M12.7908 19.1253C12.2951 19.1253 11.8154 18.8862 11.5116 18.4878L6.71481 12.1128C6.18716 11.4115 6.33106 10.4074 7.03459 9.8815C7.73813 9.35556 8.74545 9.499 9.2731 10.2003L14.0699 16.5753C14.5976 17.2765 14.4536 18.2806 13.7501 18.8065C13.4783 19.0137 13.1425 19.1253 12.7908 19.1253Z" fill="black"/><path d="M35.1758 19.1253C34.2964 19.1253 33.5769 18.4081 33.5769 17.5315C33.5769 17.1809 33.6888 16.8462 33.8967 16.5753L38.6935 10.2003C39.2211 9.499 40.2285 9.35556 40.932 9.8815C41.6355 10.4074 41.7794 11.4115 41.2518 12.1128L36.455 18.4878C36.1512 18.8862 35.6875 19.1253 35.1758 19.1253Z" fill="black"/><path d="M25.5822 51.0002H22.3844C13.5582 51.0002 6.39502 43.8602 6.39502 35.0627C6.39502 34.1862 7.11454 33.469 7.99395 33.469C8.87337 33.469 9.59289 34.1862 9.59289 35.0627C9.59289 42.1071 15.3171 47.8127 22.3844 47.8127H25.5822C32.6495 47.8127 38.3737 42.1071 38.3737 35.0627C38.3737 34.1862 39.0932 33.469 39.9726 33.469C40.852 33.469 41.5716 34.1862 41.5716 35.0627C41.5716 43.8602 34.4083 51.0002 25.5822 51.0002Z" fill="black"/></svg>