<svg width="20" height="20" viewBox="0 0 20 20" fill="none" xmlns="http://www.w3.org/2000/svg">
<path d="M9.98657 2.0939C12.5763 2.0939 12.883 2.10355 13.9061 2.14998C14.5212 2.15747 15.1305 2.26988 15.7074 2.48232C16.1258 2.6429 16.5058 2.8889 16.8228 3.20447C17.1399 3.52003 17.3871 3.89819 17.5485 4.31458C17.7619 4.88876 17.8749 5.49512 17.8824 6.1073C17.9286 7.12548 17.9387 7.4307 17.9387 10.0081C17.9387 12.5855 17.929 12.8907 17.8824 13.9089C17.8749 14.5211 17.7619 15.1274 17.5485 15.7016C17.3871 16.118 17.1399 16.4961 16.8228 16.8117C16.5058 17.1273 16.1258 17.3733 15.7074 17.5339C15.1305 17.7463 14.5212 17.8587 13.9061 17.8662C12.8835 17.9122 12.5768 17.9223 9.98657 17.9223C7.39635 17.9223 7.08966 17.9126 6.06706 17.8662C5.45195 17.8587 4.84268 17.7463 4.26574 17.5339C3.84735 17.3733 3.46738 17.1273 3.1503 16.8117C2.83321 16.4961 2.58604 16.118 2.42469 15.7016C2.21122 15.1274 2.09827 14.5211 2.09075 13.9089C2.04456 12.8907 2.0344 12.5855 2.0344 10.0081C2.0344 7.4307 2.0441 7.12548 2.09075 6.1073C2.09827 5.49512 2.21122 4.88876 2.42469 4.31458C2.58604 3.89819 2.83321 3.52003 3.1503 3.20447C3.46738 2.8889 3.84735 2.6429 4.26574 2.48232C4.84268 2.26988 5.45195 2.15747 6.06706 2.14998C7.09013 2.10401 7.39681 2.0939 9.98657 2.0939ZM9.98657 0.354492C7.35386 0.354492 7.02223 0.365524 5.98762 0.412411C5.18259 0.428347 4.3861 0.580045 3.63204 0.861052C2.98517 1.10361 2.39928 1.48371 1.91523 1.97484C1.4213 2.45675 1.03905 3.04018 0.795176 3.68436C0.512821 4.43482 0.360395 5.22751 0.344382 6.0287C0.298195 7.05745 0.287109 7.38749 0.287109 10.0076C0.287109 12.6278 0.298194 12.9578 0.345306 13.9875C0.361318 14.7887 0.513744 15.5813 0.7961 16.3318C1.0397 16.9759 1.42163 17.5593 1.91523 18.0413C2.39955 18.5326 2.98577 18.9127 3.63296 19.1551C4.38702 19.4361 5.18351 19.5878 5.98854 19.6038C7.02315 19.6497 7.3534 19.6617 9.98749 19.6617C12.6216 19.6617 12.9518 19.6506 13.9864 19.6038C14.7915 19.5878 15.588 19.4361 16.342 19.1551C16.9861 18.9066 17.5711 18.5271 18.0594 18.0408C18.5477 17.5545 18.9287 16.9721 19.178 16.3309C19.4603 15.5804 19.6127 14.7877 19.6288 13.9866C19.6749 12.9578 19.686 12.6278 19.686 10.0076C19.686 7.38749 19.6749 7.05745 19.6278 6.02778C19.6118 5.22659 19.4594 4.43391 19.177 3.68344C18.9334 3.03934 18.5515 2.45592 18.0579 1.97392C17.5736 1.48268 16.9874 1.10257 16.3402 0.860133C15.5861 0.579125 14.7896 0.427428 13.9846 0.411492C12.9509 0.365524 12.6193 0.354492 9.98657 0.354492Z" fill="#485AFF"/>
<path d="M10.2187 5.20996C9.23357 5.20996 8.27056 5.50069 7.45146 6.04539C6.63235 6.59008 5.99394 7.36428 5.61694 8.27007C5.23995 9.17586 5.14131 10.1726 5.3335 11.1342C5.52569 12.0957 6.00008 12.979 6.69667 13.6723C7.39326 14.3656 8.28077 14.8377 9.24697 15.0289C10.2132 15.2202 11.2147 15.122 12.1248 14.7469C13.0349 14.3717 13.8129 13.7363 14.3602 12.9211C14.9075 12.1059 15.1996 11.1475 15.1996 10.1671C15.1996 8.85237 14.6748 7.59151 13.7407 6.66187C12.8066 5.73223 11.5397 5.20996 10.2187 5.20996ZM10.2187 13.3848C9.57924 13.3848 8.95414 13.1961 8.42245 12.8425C7.89077 12.4889 7.47636 11.9864 7.23165 11.3984C6.98694 10.8105 6.92292 10.1635 7.04767 9.53933C7.17242 8.91516 7.48035 8.34182 7.93251 7.89181C8.38468 7.44181 8.96077 7.13535 9.58794 7.01119C10.2151 6.88704 10.8652 6.95076 11.456 7.1943C12.0468 7.43784 12.5517 7.85026 12.907 8.37941C13.2622 8.90856 13.4519 9.53067 13.4519 10.1671C13.4519 11.0205 13.1112 11.8389 12.5049 12.4423C11.8985 13.0458 11.0762 13.3848 10.2187 13.3848Z" fill="#485AFF"/>
<path d="M15.7382 6.02574C16.381 6.02574 16.9021 5.50711 16.9021 4.86736C16.9021 4.22761 16.381 3.70898 15.7382 3.70898C15.0953 3.70898 14.5742 4.22761 14.5742 4.86736C14.5742 5.50711 15.0953 6.02574 15.7382 6.02574Z" fill="#485AFF"/>
</svg>
