<svg viewBox="0 0 52 52" fill="none" xmlns="http://www.w3.org/2000/svg"><path d="M23.5 19.1434H42.6144C43.6684 19.1434 44.1954 19.1434 44.5056 19.4834C44.8138 19.8234 44.7734 20.3611 44.6926 21.4321L43.373 38.9208C43.0925 42.6438 42.9523 44.5053 41.7516 45.6358C40.5531 46.7684 38.7214 46.7684 35.0579 46.7684H25.4869C21.8255 46.7684 19.9937 46.7684 18.7931 45.6358C17.0124 43.9528 17.2993 40.5422 17.125 38.2684" stroke="black" stroke-width="1.5" stroke-linecap="round" stroke-linejoin="round"/><path d="M23.5 18.9522V30.5419C23.5 34.1842 23.5 36.0032 22.2547 37.1379C21.0095 38.2684 19.0078 38.2684 15 38.2684C10.9922 38.2684 8.9905 38.2684 7.74525 37.1379C6.5 36.0053 6.5 34.1842 6.5 30.5419V28.6082C6.5 23.1469 6.5 20.4142 8.36787 18.7163C10.2336 17.0184 13.2405 17.0184 19.25 17.0184H21.375C22.3759 17.0184 22.8774 17.0184 23.1898 17.3011C23.5 17.5837 23.5 18.0427 23.5 18.9522Z" stroke="black" stroke-width="1.5" stroke-linecap="round" stroke-linejoin="round"/><path d="M40.5 19.1434C40.5 10.9282 35.7188 4.26843 29.8219 4.26843C24.4414 4.26843 19.9895 9.81043 19.25 17.0184M6.5 29.7684H23.5M23.5 27.6434H42.625" stroke="black" stroke-width="1.5" stroke-linecap="round" stroke-linejoin="round"/></svg>