<svg viewBox="0 0 50 50" fill="none" xmlns="http://www.w3.org/2000/svg"><g clip-path="url(#clip0_995_1273)"><path d="M37.3767 19.7573C38.2211 19.9857 39.0852 20.1049 39.9494 20.1049C42.4824 20.1049 45.0153 19.1414 46.9423 17.2144C49.6144 14.5424 50.5282 10.6387 49.3064 7.04286C49.1972 6.71507 48.929 6.47667 48.5912 6.39721C48.2535 6.31774 47.9059 6.41708 47.6675 6.6654L43.0982 11.2346L39.413 10.7082L38.8866 7.023L43.4558 2.45375C43.6942 2.21536 43.8035 1.85777 43.724 1.52997C43.6445 1.19225 43.3962 0.924051 43.0784 0.814787C39.4826 -0.406989 35.5788 0.506859 32.9068 3.17887C30.3242 5.76149 29.4799 9.43675 30.3639 12.7445L23.5995 19.5089L18.8912 14.8106L20.3017 13.4001C20.6891 13.0127 20.6891 12.3869 20.3017 11.9995L10.3387 2.02663C8.01438 -0.297725 4.22986 -0.297725 1.9055 2.02663C-0.41885 4.35098 -0.41885 8.13551 1.9055 10.4599L11.8585 20.4129C12.2459 20.8003 12.8816 20.8003 13.2591 20.4129L14.6696 19.0024L19.368 23.7107L12.6035 30.4751C9.29576 29.5911 5.6205 30.4354 3.03788 33.018C0.365868 35.69 -0.54798 39.5937 0.673795 43.1895C0.902258 43.8749 1.80617 44.0835 2.31276 43.5769L6.88201 39.0077L10.5672 39.5341L11.0937 43.2193L6.52441 47.7886C6.00789 48.3051 6.22642 49.1991 6.91181 49.4276C7.96472 49.7851 9.04743 49.954 10.1202 49.954C12.6929 49.954 15.196 48.9408 17.0833 47.0535C19.666 44.4709 20.5103 40.7957 19.6262 37.4879L37.3767 19.7573ZM34.2975 4.56951C35.8073 3.05968 37.8039 2.25509 39.86 2.25509C40.158 2.25509 40.4659 2.27496 40.7739 2.30476L37.1284 5.95022C36.9099 6.17868 36.8006 6.48661 36.8503 6.79453L37.5555 11.7114C37.6151 12.1485 37.9628 12.4962 38.3998 12.5558L43.3168 13.261C43.6247 13.3107 43.9425 13.2014 44.1611 12.9829L47.8065 9.33742C48.0847 11.7114 47.2801 14.0855 45.5418 15.8138C42.4526 18.903 37.4264 18.8931 34.3273 15.794C31.2182 12.6948 31.2083 7.65872 34.2975 4.56951ZM12.5638 18.2971L3.31601 9.04936C1.76644 7.49979 1.76644 4.97677 3.31601 3.4272C4.09079 2.65242 5.10397 2.26502 6.12709 2.26502C7.1502 2.26502 8.16338 2.65242 8.93816 3.4272L18.1859 12.675L12.5638 18.2971ZM16.0801 17.5919L17.4807 16.1913L22.189 20.8897L20.7884 22.2902L16.0801 17.5919ZM31.1288 14.7609C31.5857 15.635 32.1817 16.4595 32.9168 17.1945C33.6518 17.9296 34.4763 18.5256 35.3504 18.9825L18.8713 35.4616C18.4144 34.5874 17.8184 33.763 17.0833 33.0279C16.3483 32.2929 15.5238 31.6969 14.6497 31.24L31.1288 14.7609ZM15.7026 45.653C13.9743 47.3813 11.6002 48.1859 9.22623 47.9177L12.8717 44.2723C13.0902 44.0537 13.1995 43.7359 13.1498 43.4279L12.4446 38.511C12.385 38.074 12.0373 37.7263 11.6002 37.6667L6.68334 36.9615C6.37542 36.9118 6.06749 37.0211 5.83903 37.2396L2.19357 40.8851C1.91544 38.511 2.72002 36.137 4.45832 34.4086C7.54753 31.3194 12.5737 31.3294 15.6728 34.4285C18.772 37.5277 18.7819 42.5638 15.7026 45.653Z" fill="#010101"/><path d="M19.1891 31.9154C19.4474 31.9154 19.6957 31.8161 19.8944 31.6273L31.5161 20.0056C31.9035 19.6182 31.9035 18.9924 31.5161 18.605C31.1287 18.2176 30.503 18.2176 30.1156 18.605L18.4938 30.2268C18.1064 30.6142 18.1064 31.2399 18.4938 31.6273C18.6825 31.8161 18.9309 31.9154 19.1891 31.9154Z" fill="#010101"/><path d="M47.6463 40.8541C47.5371 40.5958 47.3185 40.3872 47.0503 40.2978L43.0572 38.9668L32.7268 28.6463C32.3394 28.2589 31.7136 28.2589 31.3262 28.6463C30.9388 29.0336 30.9388 29.6594 31.3262 30.0468L41.8255 40.5362C41.9348 40.6455 42.0639 40.7249 42.2129 40.7746L45.9974 42.0361L47.6662 45.92L45.8087 47.7775L41.9248 46.1087L40.6633 42.3242C40.6137 42.1752 40.5342 42.0461 40.4249 41.9368L29.9256 31.4474C29.5382 31.06 28.9124 31.06 28.525 31.4474C28.1376 31.8348 28.1376 32.4606 28.525 32.848L38.8456 43.1784L40.1766 47.1716C40.266 47.4398 40.4647 47.6583 40.7329 47.7675L45.6498 49.8734C46.0272 50.0323 46.4544 49.9528 46.7424 49.6648L49.5535 46.8537C49.8416 46.5656 49.921 46.1286 49.7621 45.761L47.6463 40.8541Z" fill="#010101"/><path d="M6.12698 7.23156C6.67557 7.23156 7.12029 6.78684 7.12029 6.23825C7.12029 5.68966 6.67557 5.24493 6.12698 5.24493C5.57839 5.24493 5.13367 5.68966 5.13367 6.23825C5.13367 6.78684 5.57839 7.23156 6.12698 7.23156Z" fill="#010101"/></g><defs><clipPath id="clip0_995_1273"><rect width="49.6855" height="49.6855" fill="white" transform="translate(0.157227 0.268433)"/></clipPath></defs></svg>