<svg width="52" height="52" viewBox="0 0 52 52" fill="none" xmlns="http://www.w3.org/2000/svg">
<g clip-path="url(#clip0_995_1252)">
<path d="M26 25.7684C26 32.8128 20.288 38.5184 13.25 38.5184C6.212 38.5184 0.5 32.8128 0.5 25.7684C0.5 18.7304 6.212 13.0184 13.25 13.0184C20.288 13.0184 26 18.7241 26 25.7684Z" fill="black"/>
<path d="M29.1875 51.2684C32.7083 51.2684 35.5625 48.4142 35.5625 44.8934C35.5625 41.3726 32.7083 38.5184 29.1875 38.5184C25.6667 38.5184 22.8125 41.3726 22.8125 44.8934C22.8125 48.4142 25.6667 51.2684 29.1875 51.2684Z" fill="black"/>
<path d="M51.5 42.7706C49.154 42.7706 47.2479 44.6767 47.2479 47.0227H45.125C45.125 44.6767 43.2189 42.7706 40.8729 42.7706V40.6477C43.2253 40.6477 45.125 38.7416 45.125 36.3956H47.2479C47.2479 38.7416 49.154 40.6477 51.5 40.6477V42.7706Z" fill="black"/>
<path d="M15.3729 47.0163C16.5453 47.0163 17.4957 46.0659 17.4957 44.8934C17.4957 43.721 16.5453 42.7706 15.3729 42.7706C14.2004 42.7706 13.25 43.721 13.25 44.8934C13.25 46.0659 14.2004 47.0163 15.3729 47.0163Z" fill="black"/>
<path d="M2.62287 13.0185C3.79531 13.0185 4.74575 12.068 4.74575 10.8956C4.74575 9.72315 3.79531 8.77271 2.62287 8.77271C1.45044 8.77271 0.5 9.72315 0.5 10.8956C0.5 12.068 1.45044 13.0185 2.62287 13.0185Z" fill="black"/>
<path d="M14.3146 8.7663C16.075 8.7663 17.5021 7.3392 17.5021 5.5788C17.5021 3.81839 16.075 2.3913 14.3146 2.3913C12.5542 2.3913 11.1271 3.81839 11.1271 5.5788C11.1271 7.3392 12.5542 8.7663 14.3146 8.7663Z" fill="black"/>
<path d="M8.99792 48.0809C8.99792 49.8468 7.56992 51.2684 5.81042 51.2684C4.05092 51.2684 2.62292 49.8468 2.62292 48.0809C2.62292 46.3214 4.05092 44.8934 5.81042 44.8934C7.56992 44.8934 8.99792 46.3214 8.99792 48.0809Z" fill="black"/>
<path d="M34.4978 0.268433C27.7658 0.268433 21.9646 4.18906 19.2106 9.86918C25.6493 12.2917 30.2457 18.4946 30.2457 25.7684C30.2457 28.4204 29.6209 30.9258 28.5308 33.1698C30.3923 33.8711 32.3941 34.2663 34.4978 34.2663C43.8882 34.2663 51.4999 26.6546 51.4999 17.2706C51.4999 7.88656 43.8882 0.268433 34.4978 0.268433ZM43.0021 17.2706C43.0021 12.5722 39.2026 8.77268 34.5042 8.77268V4.52056C41.5486 4.52056 47.2542 10.2262 47.2542 17.2706H43.0021Z" fill="black"/>
</g>
<defs>
<clipPath id="clip0_995_1252">
<rect width="51" height="51" fill="white" transform="translate(0.5 0.268433)"/>
</clipPath>
</defs>
</svg>
