<svg viewBox="0 0 19 20" fill="none" xmlns="http://www.w3.org/2000/svg"><path d="M9.95752 0.00805664C11.1365 0.00805664 12.1702 0.00805664 13.2597 0.00805664C13.6511 2.97733 15.3222 4.72003 18.4854 5.04339C18.4854 6.08341 18.4854 7.12654 18.4854 8.20854C16.5875 8.30803 14.9803 7.63645 13.3508 6.59332C13.3508 7.5354 13.3572 8.37799 13.3492 9.22058C13.3316 11.0317 13.4243 12.8521 13.2613 14.6508C12.9833 17.6993 10.0102 20.081 6.77513 20.0063C3.548 19.9317 0.745839 17.4102 0.506202 14.3632C0.256978 11.1902 2.49999 8.2956 5.63445 7.74527C7.90143 7.34729 7.90143 7.34729 7.90143 9.52839C7.90143 9.98855 7.90143 10.4487 7.90143 10.9695C6.58022 10.6974 5.48588 10.9508 4.64395 11.8867C3.75409 12.877 3.6806 14.3336 4.41549 15.4219C5.12642 16.4728 6.45082 16.9671 7.68096 16.6391C9.05169 16.2738 9.93356 15.2586 9.94154 13.889C9.9671 9.59057 9.95592 5.29212 9.95912 0.993669C9.95752 0.690523 9.95752 0.385823 9.95752 0.00805664Z" fill="#4455F0"/></svg>