<svg xmlns="http://www.w3.org/2000/svg" width="18" height="21" viewBox="0 0 18 21" fill="none">
  <path d="M9.47021 0.442383C10.6492 0.442383 11.6829 0.442383 12.7724 0.442383C13.1638 3.41166 14.8349 5.15436 17.9981 5.47771C17.9981 6.51774 17.9981 7.56087 17.9981 8.64287C16.1002 8.74236 14.493 8.07077 12.8635 7.02764C12.8635 7.96973 12.8699 8.81231 12.8619 9.65491C12.8443 11.466 12.937 13.2864 12.774 15.0851C12.496 18.1337 9.52293 20.5153 6.28782 20.4407C3.0607 20.3661 0.258535 17.8445 0.0188968 14.7975C-0.230327 11.6246 2.01268 8.72992 5.14715 8.1796C7.41412 7.78162 7.41412 7.78162 7.41412 9.96272C7.41412 10.4229 7.41412 10.883 7.41412 11.4038C6.09292 11.1318 4.99857 11.3852 4.15664 12.321C3.26679 13.3113 3.1933 14.768 3.92819 15.8562C4.63911 16.9071 5.96351 17.4014 7.19366 17.0734C8.56438 16.7081 9.44625 15.6929 9.45424 14.3234C9.4798 10.0249 9.46862 5.72645 9.47181 1.428C9.47021 1.12485 9.47021 0.820149 9.47021 0.442383Z" fill="white"/>
</svg>