<svg width="52" height="52" viewBox="0 0 52 52" fill="none" xmlns="http://www.w3.org/2000/svg">
<g id="Group">
<path id="Vector" d="M38.7122 20.1497C39.5788 20.3842 40.4659 20.5066 41.3529 20.5066C43.9529 20.5066 46.5528 19.5176 48.5308 17.5396C51.2736 14.7969 52.2116 10.7899 50.9575 7.09894C50.8453 6.76247 50.57 6.51777 50.2234 6.4362C49.8767 6.35464 49.5199 6.4566 49.2752 6.71149L44.585 11.4016L40.8023 10.8612L40.262 7.07855L44.9521 2.38842C45.1968 2.14372 45.3089 1.77667 45.2274 1.4402C45.1458 1.09354 44.8909 0.818251 44.5646 0.706096C40.8737 -0.548003 36.8667 0.390022 34.124 3.13272C31.4731 5.78366 30.6064 9.55616 31.5139 12.9514L24.5704 19.8948L19.7376 15.0721L21.1854 13.6243C21.583 13.2267 21.583 12.5843 21.1854 12.1867L10.9589 1.95C8.57304 -0.435848 4.68839 -0.435848 2.30254 1.95C-0.0833025 4.33584 -0.0833025 8.22049 2.30254 10.6063L12.5189 20.8226C12.9165 21.2203 13.569 21.2203 13.9565 20.8226L15.4043 19.3748L20.227 24.2077L13.2836 31.1511C9.88831 30.2437 6.11582 31.1103 3.46488 33.7613C0.722175 36.504 -0.21585 40.511 1.03825 44.2019C1.27276 44.9054 2.20058 45.1195 2.72058 44.5995L7.4107 39.9094L11.1934 40.4498L11.7338 44.2325L7.04365 48.9226C6.51346 49.4528 6.73777 50.3704 7.44129 50.6049C8.52206 50.972 9.63341 51.1453 10.7346 51.1453C13.3753 51.1453 15.9447 50.1053 17.8819 48.1681C20.5329 45.5172 21.3995 41.7447 20.4921 38.3494L38.7122 20.1497ZM35.5514 4.56015C37.1012 3.01037 39.1506 2.1845 41.2612 2.1845C41.567 2.1845 41.8831 2.2049 42.1992 2.23548L38.4573 5.97739C38.233 6.21189 38.1208 6.52797 38.1718 6.84404L38.8957 11.891C38.9569 12.3396 39.3137 12.6965 39.7624 12.7577L44.8093 13.4816C45.1254 13.5326 45.4517 13.4204 45.676 13.1961L49.4179 9.4542C49.7034 11.891 48.8775 14.3278 47.0932 16.1019C43.9223 19.2729 38.7632 19.2627 35.582 16.0815C32.3907 12.9004 32.3805 7.73109 35.5514 4.56015ZM13.2428 18.6509L3.75036 9.15851C2.1598 7.56795 2.1598 4.97819 3.75036 3.38762C4.54565 2.59234 5.58563 2.1947 6.63581 2.1947C7.68599 2.1947 8.72597 2.59234 9.52126 3.38762L19.0137 12.88L13.2428 18.6509ZM16.8521 17.927L18.2897 16.4894L23.1226 21.3121L21.685 22.7497L16.8521 17.927ZM32.2989 15.0212C32.768 15.9184 33.3797 16.7647 34.1342 17.5192C34.8887 18.2737 35.735 18.8854 36.6322 19.3544L19.7172 36.2695C19.2482 35.3722 18.6364 34.526 17.8819 33.7715C17.1274 33.017 16.2812 32.4052 15.3839 31.9362L32.2989 15.0212ZM16.4647 46.7305C14.6906 48.5046 12.2538 49.3304 9.81694 49.0552L13.5588 45.3133C13.7832 45.0889 13.8953 44.7627 13.8443 44.4466L13.1204 39.3996C13.0592 38.951 12.7024 38.5941 12.2538 38.533L7.20678 37.8091C6.89071 37.7581 6.57463 37.8702 6.34013 38.0945L2.59822 41.8364C2.31274 39.3996 3.13861 36.9628 4.92289 35.1887C8.09383 32.0178 13.253 32.028 16.4341 35.2091C19.6152 38.3902 19.6254 43.5596 16.4647 46.7305Z" fill="#010101"/>
<path id="Vector_2" d="M20.0434 32.6295C20.3085 32.6295 20.5634 32.5275 20.7674 32.3338L32.6966 20.4046C33.0942 20.0069 33.0942 19.3646 32.6966 18.9669C32.2989 18.5693 31.6566 18.5693 31.259 18.9669L19.3297 30.8962C18.9321 31.2938 18.9321 31.9361 19.3297 32.3338C19.5234 32.5275 19.7783 32.6295 20.0434 32.6295Z" fill="#010101"/>
<path id="Vector_3" d="M49.2547 41.7856C49.1426 41.5205 48.9183 41.3064 48.643 41.2146L44.5442 39.8483L33.9405 29.2548C33.5428 28.8571 32.9005 28.8571 32.5028 29.2548C32.1052 29.6524 32.1052 30.2948 32.5028 30.6924L43.2799 41.4593C43.3921 41.5714 43.5246 41.653 43.6776 41.704L47.5622 42.9989L49.2751 46.9855L47.3685 48.8921L43.3819 47.1792L42.087 43.2946C42.036 43.1416 41.9544 43.0091 41.8423 42.8969L31.0652 32.13C30.6676 31.7324 30.0252 31.7324 29.6276 32.13C29.2299 32.5277 29.2299 33.17 29.6276 33.5676L40.2211 44.1714L41.5874 48.2702C41.6792 48.5455 41.8831 48.7698 42.1584 48.8819L47.2053 51.0435C47.5928 51.2066 48.0312 51.125 48.3269 50.8293L51.2123 47.9439C51.508 47.6482 51.5896 47.1996 51.4265 46.8223L49.2547 41.7856Z" fill="#010101"/>
<path id="Vector_4" d="M6.6358 7.2926C7.19891 7.2926 7.6554 6.83612 7.6554 6.27301C7.6554 5.7099 7.19891 5.25342 6.6358 5.25342C6.0727 5.25342 5.61621 5.7099 5.61621 6.27301C5.61621 6.83612 6.0727 7.2926 6.6358 7.2926Z" fill="#010101"/>
</g>
</svg>
