<svg xmlns="http://www.w3.org/2000/svg" width="1600" height="128" viewBox="0 0 1600 128" fill="none">
  <path d="M1600 52.1376C1600 52.1376 1558.8 75.0297 1520.99 76.6268C1482.61 78.2239 1449.88 76.6268 1403.03 68.6412C1339.26 57.9937 1216.23 14.8714 1150.76 38.2959C1085.29 61.7203 1082.47 62.7851 1049.17 77.6916C1011.92 94.7275 936.296 128.799 842.61 127.202C742.716 125.605 561.552 38.8283 487.055 43.0872C479.153 43.6196 449.806 47.3462 427.795 53.7347C406.349 60.1232 374.744 73.9649 331.852 78.7563C313.792 80.8858 285.009 84.6124 251.711 83.5477C243.245 83.0153 216.155 81.4182 183.986 75.0297C151.817 68.6412 121.905 58.5261 94.8148 55.3318C36.6843 49.4757 0 57.9937 0 57.9937V0.497314H1600V52.1376ZM1471.89 60.6556C1467.94 55.3318 1460.6 58.5261 1447.62 58.5261C1434.64 58.5261 1413.19 52.1376 1414.89 52.67C1416.58 53.2024 1432.38 60.6556 1448.75 62.7851C1465.68 65.447 1475.27 65.9793 1471.89 60.6556ZM1368.04 46.2815C1368.04 46.2815 1354.5 45.2167 1336.44 41.4901C1318.38 37.2311 1278.31 26.5836 1251.22 22.857C1204.94 17.0009 1162.05 22.857 1166 23.3894C1170.51 23.9218 1220.18 20.1952 1265.33 29.2455C1283.95 32.9721 1317.81 40.9577 1335.31 43.6196C1353.93 46.8139 1368.04 46.2815 1368.04 46.2815ZM1045.22 45.7491C1054.81 42.0225 970.159 70.7707 940.811 78.2239C928.959 81.4182 905.82 86.7419 884.374 88.8714C862.363 91.0009 834.145 91.0009 834.709 91.5333C834.709 92.598 867.443 95.7923 897.919 91.5333C928.395 87.2743 927.266 85.6772 940.811 83.0153C962.257 78.7563 1035.63 49.4757 1045.22 45.7491ZM1123.67 37.2311C1124.8 37.2311 1119.15 35.1016 1096.58 43.0872C1074 51.0729 1058.77 61.7203 1057.64 62.7851C1056.51 63.3175 1077.39 53.2024 1094.89 46.8139C1111.82 40.4254 1123.1 37.2311 1123.67 37.2311ZM1597.18 32.4398C1596.61 32.9721 1586.46 38.2959 1570.09 45.7491C1553.72 53.2024 1531.15 60.6556 1532.28 60.1232C1533.4 60.1232 1552.03 56.929 1574.04 46.8139C1596.05 36.6988 1597.74 31.9074 1597.18 32.4398ZM176.649 62.2527C177.213 61.188 165.926 61.188 151.252 55.8642C136.578 50.5405 120.776 47.3462 107.231 45.2167C84.6561 40.9577 41.1993 45.7491 43.4568 46.2815C45.1499 46.8139 89.7355 44.6844 114.004 50.0081C126.42 52.67 127.548 52.67 146.173 58.5261C164.797 64.3822 176.085 63.8498 176.649 62.2527ZM411.993 49.4757C414.25 48.9434 431.746 40.9577 459.4 35.634C487.055 29.7779 509.63 32.9721 509.63 31.375C509.63 29.7779 503.986 26.5836 474.638 29.7779C445.291 32.9721 409.735 50.0081 411.993 49.4757ZM404.092 36.1664C405.22 36.6988 423.28 29.2455 436.261 27.116C449.242 25.5189 446.984 24.4541 446.984 23.9218C446.984 23.3894 440.776 22.857 431.746 24.9865C422.152 27.6484 402.963 35.634 404.092 36.1664ZM528.254 23.9218C528.818 24.9865 548.007 28.1808 559.859 33.5045C571.711 38.8282 570.018 36.6988 570.582 36.1664C571.146 35.634 566.067 31.9074 557.037 29.2455C548.007 26.0513 527.69 22.857 528.254 23.9218ZM369.101 59.5908C368.536 61.188 370.794 62.2527 379.824 58.5261C388.854 54.7995 394.497 51.6052 392.24 52.1376C389.982 52.67 387.16 54.2671 378.13 56.3966C368.536 58.5261 369.665 57.9937 369.101 59.5908ZM194.709 66.5117C193.58 66.5117 206.561 70.7707 213.333 71.3031C220.106 71.8354 224.621 71.8354 224.621 70.2383C224.621 68.6412 224.056 67.5764 215.591 68.1088C206.561 68.6412 195.838 66.5117 194.709 66.5117ZM858.977 112.828C858.413 113.361 845.432 111.231 816.649 111.231C788.43 111.231 739.894 98.4541 719.577 92.598C699.259 86.7419 776.014 113.361 812.698 114.425C849.383 115.49 859.541 112.296 858.977 112.828Z" fill="white"/>
</svg>